<?xml version="1.0" encoding="utf-8"?>
<!-- Generator: Adobe Illustrator 24.0.0, SVG Export Plug-In . SVG Version: 6.00 Build 0)  -->
<svg version="1.1" id="Layer_1" xmlns="http://www.w3.org/2000/svg" xmlns:xlink="http://www.w3.org/1999/xlink" x="0px" y="0px"
	 viewBox="0 0 500 500" style="enable-background:new 0 0 500 500;" xml:space="preserve">
<style type="text/css">
	.st0{fill:#024E91;}
	.st1{opacity:0.7;}
</style>
<g>
	<g>
		<path class="st0" d="M131.8,177.1c1.6-4.1,7.7-5.3,10.8-2.2c1.3-3.4,3.9-5.7,7.3-5.8c2.7,0.1,5.7,2.4,6.2,3.8
			c1.1-1.9,1.9-3.9,3.9-5c2.9-1.5,6.8,0.4,6.3,2.7c2.4-1.8,5-3.6,7.9-4.4s6.4,0.1,8,2.8c2.1-1.5,4.1-2.9,6.5-3.4
			c2.4-0.6,5.3,0,6.8,2.1c2.2-1.2,4.5-2.4,6.9-2.7c2.5-0.1,5.2,1.1,6.1,3.4c1.8-1.8,3.8-3.8,6.2-4.4c2.4-0.6,5.7,0.8,5.9,3.4
			c4.1-3.9,10.9-4.5,15.6-1.3c2.1-1,4.2-1.9,6.5-1.9s4.7,1.2,5.4,3.4c1.9-3.3,7.9-2.7,9,1c3.8-5.7,13.8-4.7,16.5,1.5
			c2.4-1.2,5.1-2.3,7.9-2.2c2.8,0.1,5.6,2.2,5.6,5c1.9-1.1,4-2.2,6.3-2.2c2.2-0.1,4.7,1.2,5.1,3.5c2.4-1.2,5-2.5,7.6-2.3
			c2.7,0.1,5.4,2.4,5.2,5.1c2.9-0.5,5.8-0.8,8.7-1.3c1.2-0.2,2.5-0.4,3.8,0.2c1.1,0.6,1.8,2.2,1.1,3.1c2.8,1.2,5.9-0.1,9-0.2
			c3-0.1,6.8,2.2,5.8,5c2.8-0.8,5.8-1.5,8.5-0.4s4.5,4.5,3.1,7c2.5-0.5,5.2-1,7.6-0.2c2.4,0.7,4.6,3.1,4.1,5.7
			c2.8-1.1,5.8-2.3,8.8-1.7c3,0.6,5.7,3.5,4.8,6.4c2.9-0.2,4.4-1,7.3-1.2c1.5-0.1,4.5,0.2,5.6,1.1c2.2,1.7,1.8,5.2,0.6,6.1
			c2.1-1.2,4.5-1.5,7.3-1.2c1.6,0.1,3.3,0.4,4.4,1.5c1.1,1.1,1.5,3.8,0.8,5.7c4.1-0.7,6.4-0.5,9.9,2.1c2.7,1.9,2.5,7,1.1,9
			c2.5-1,6.3,0.7,7,2.9c0.7,2.2,0.2,4.7-1.3,6.4c2.9,0.1,5.6,2.7,5.7,5.7c0,1.1-0.2,2.2-0.4,3.3c-1.2,6.5-0.2,13.2-0.1,19.8
			c0.2,11.9-2.1,23.7-6.8,34.6c-2.2,5.1-5,9.9-6.9,15c-1.9,5.2-3.1,10.8-2.2,16.2c1.3,7.1,6.3,13.1,11.1,18.5
			c4.6,5.7,27.6,8.7,37.6,12.8c10,4.1,20.1,12.6,23.1,19.4s2.9,18.4,1,20.7c-1.9,2.3-5.7-15-33.2-23.4c-27.3-8.3-35.7-6.4-49.6-12.8
			c-13.9-6.4-29.8-30-26.3-54c3.5-23.8,13.4-45-10.2-59.3c-23.6-14.2-51.8-13.2-69.5-14.8c-17.7-1.6-50.9,6.4-75.9,7
			s-54.2,0.2-63.3,3.3C143.9,246.9,131.8,177.1,131.8,177.1z"/>
	</g>
	<g>
		<g>
			<g class="st1">
				<path class="st0" d="M25.6,256c2.8,1.7,6.2,2.2,9.3,2.7c1.9,0.2,4.2,0.4,5.4-1.1c1-1.2,0.8-3,1.7-4.4c1.2,0.8,2.3,1.7,3.5,2.7
					c0.4,0.2,0.8,0.6,1.2,0.5c0.5,0,0.8-0.5,1.2-0.8c1.3-1.6,2.5-3.1,3.8-4.8c1.1,1,2.1,1.9,3.1,2.9c0.4,0.4,0.7,0.6,1.2,0.6
					c0.6,0,1.1-0.5,1.5-0.8c1.2-1.2,2.3-2.5,3.5-3.8c1,1,2.1,1.9,3.3,2.5c1.2-1.8,2.4-3.6,3.6-5.4c1.3,0.6,2.5,1.2,3.9,1.8
					c0.4,0.1,0.7,0.2,1,0.2c0.4-0.1,0.6-0.4,0.8-0.7c1.2-1.6,2.3-3.1,3.5-4.8c1.6,1,3.1,2.1,4.8,3c0.8-2.3,1.9-4.6,3.1-6.7
					c1.8,0.8,3.6,1.8,5.4,2.7c0.5-2.1,1-4.1,1.5-6.1c1.7,0.5,3.4,1.1,5,1.8c-0.1-2.7,0-5.3,0.5-8c2.5,0.1,5.2,0.7,7.5,1.7
					c0.8-2.2,1.8-4.4,2.9-6.3c0.4-0.6,0.7-1.1,1.2-1.5c0.5-0.2,1.1-0.1,1.7,0c3.1,0.6,6.7,1.9,9.4,0.4c0.4-0.2,0.8-0.5,1.3-0.4
					c0.4,0.1,0.5,0.4,0.7,0.7c1,1.6,3,0,5.1-2.2l-31.2-16.3c-11.5,7.3-23.2,14.4-35.1,21.2c-1.7-1.3-3.4-2.7-5.1-4
					c-1.3,1.8-2.2,3.9-2.4,6c-1.3-0.6-2.5-1.2-3.9-1.8c-0.6,2.1-1.1,4.1-1.3,6.2c-1.2-0.4-2.3-1-3.3-1.7c-0.5,2.2-1,4.2-1.6,6.4
					c-1.1-1-2.3-1.7-3.6-2.3c-1.3,2.5-2.5,5.2-3.4,8c-1.1-1-2.2-1.9-3.4-2.9c-1.1,2.2-2.2,4.4-2.9,6.7c-1.2-1-2.4-2.1-3.6-3
					c-0.7,2.7-2.9,4.8-5.4,5.7C21.8,252.7,23.5,254.8,25.6,256z"/>
			</g>
			<g>
				<path class="st0" d="M136.1,227l-8.5-4.5c-2.1,2.2-4,3.8-5.1,2.2c-0.2-0.2-0.4-0.6-0.7-0.7c-0.5-0.1-1,0.1-1.3,0.4
					c-2.9,1.6-6.3,0.2-9.4-0.4c-0.6-0.1-1.1-0.1-1.7,0c-0.6,0.2-1,0.8-1.2,1.5c-1.1,2.1-2.2,4.1-2.9,6.3c-2.4-1-5-1.5-7.5-1.7
					c-0.5,2.7-0.6,5.3-0.5,8c-1.6-0.7-3.3-1.3-5-1.8c-0.5,2.1-1,4.1-1.5,6.1c-1.8-0.8-3.6-1.8-5.4-2.7c-1.2,2.1-2.3,4.4-3.1,6.7
					c-1.6-1-3.1-2.1-4.8-3c-1.2,1.6-2.3,3.1-3.5,4.8c-0.2,0.2-0.5,0.6-0.8,0.7c-0.4,0.1-0.7-0.1-1-0.2c-1.3-0.6-2.5-1.2-3.9-1.8
					c-1.2,1.8-2.4,3.6-3.6,5.4c-1.2-0.6-2.3-1.6-3.3-2.5c-1.2,1.2-2.3,2.5-3.5,3.8c-0.4,0.5-0.8,0.8-1.5,0.8c-0.5,0-0.8-0.4-1.2-0.6
					c-1.1-1-2.1-1.9-3.1-2.9c-1.2,1.7-2.4,3.3-3.8,4.8c-0.4,0.4-0.7,0.7-1.2,0.8c-0.5,0-0.8-0.2-1.2-0.5c-1.2-0.8-2.3-1.7-3.5-2.7
					c-0.8,1.3-0.7,3.1-1.7,4.4c-1.2,1.6-3.5,1.3-5.4,1.1c-3.3-0.5-6.5-1-9.3-2.7c-2.1-1.2-3.8-3.3-4.2-5.6c-0.1,0-0.1,0-0.2,0.1
					c-0.8,0.2-1.7,0.4-2.5,0.7c-2.8,1.3-3.3,5.3-2.3,8.2c1.8,5.7,7.1,9.7,12.8,11.4c5.7,1.7,14.9,2.5,20.7,1.6
					c5.8-1,11.6-2.5,17.5-3.1c6.3-0.6,12.6-0.1,18.9-0.2c12.2-0.4,24.6-3.5,34.4-10.8S136.9,239.1,136.1,227z"/>
			</g>
		</g>
		<g>
			<path class="st0" d="M118.9,187c-8.5-0.8-16,2.7-22.4-2.9c-1.7-1.5-3.8-3.9-6.9-5c-5.1-1.8-10.5-0.8-15.9-0.1
				c-9.7,1.5-19.6,1-28.1-4c-1.8-1.1-3.5-2.3-5.3-3.3c-1.9-1.1-4.1-1.9-6.2-2.7c-2.4-0.8-4.8-1.7-7.4-1.6c-6.4,0-12.2,6.1-12,12.5
				c0.1,3,1,4.8,1.9,7.7c0.5,1.8,1.2,6.5,1.2,6.5c2.5-1.5,4.4-1.8,6.4-3.9c0.1,2.9,1.3,4.4,2.7,6.9c2.2-1.2,4.4-2.5,6.3-4.1
				c1.1,2.8,2.1,5.7,3.1,8.5c2.7-1.5,5.3-3,8-4.5c1,2.9,1.9,5.9,2.9,8.8c2.3-1.5,4.5-3.1,6.5-5c1.2,2.8,2.3,5.8,3.1,8.7
				c2.7-0.8,5.1-2.2,7.3-3.9c1,1.9,1.9,4,2.9,5.9c1.7-1.5,3.3-3,5-4.5c0.6,1.5,1.3,3,2.2,4.4c0.2,0.4,0.5,0.7,0.8,1
				c0.4,0.1,0.7,0,1.1-0.1c3.9-1.2,8,0.7,11.7,2.5c15,7.1,31.1,12.2,47.4,14.9c1.3,0.2,2.8,0.4,3.8-0.5c1.1-1,1-2.7,0.7-4.1
				c-1.6-9.3-4.5-18.3-8.8-26.7L118.9,187z"/>
		</g>
		<g>
			<path class="st0" d="M146.7,181c-6.3-2.4-12.8-4.6-19.5-5.2c-6.8-0.6-13.8,0.5-19.4,4.4c-1.6,1.1-3,2.4-4,4
				c-2.1,3.3-2.2,7.4-2.3,11.4c-0.1,6.7,4.2,14.8,6.8,24.8c2.9,11.9-7.4,19.8-2.9,31.2c0.8,2.2,1.9,4.5,4,5.6c1.1,0.6,2.4,0.8,3.8,1
				c2.4,0.4,5,0.7,7.5,0.5c4.6-0.4,12.2-1.8,16.5-3.6c7-3.1,10.8-7,16.1-10.6c1.9-1.3,3.9-2.7,5.6-4.2c3.5-3.4,2.1-9.1,4.2-13.4
				c1.8-3.8,3.5-7.5,4.2-11.6c0.7-4.1,0.2-8.5-1.8-12L146.7,181z"/>
		</g>
	</g>
	<g>
		<g>
			<path class="st0" d="M197.6,219.8c2.1-2.1,4.5-3.9,7-5.3c7.4-4.2,29-6.2,29.8,6.9c0.2,4.4-4.7,10.4-6.8,14
				c-3.1,5.6-6.3,11.3-9.4,16.8c-2.1,3.6-4.1,7.3-5.3,11.1c-1.9,5.9-2.2,12.7-6.1,17.5c-3.8,4.8-10.4,6.9-14,11.7
				c-2.2-3.3-3.3-7.3-2.9-11.1c-3,2.3-6.1,4.8-8.8,7.5c-0.5-4.6-0.7-9.2-0.8-13.8c-3.4,1.8-6.8,3.5-10.2,5.3
				c0.5-5.9,1.8-11.9,4.1-17.3c-3.8,0-7.4-0.1-11.1-0.1c3.6-2.7,7.3-5.4,11-8.1c1.5-1.1,2.8-2.1,3.9-3.5c1-1.3,1.7-2.9,2.3-4.5
				c2.3-5.4,5.2-10.6,8.5-15.6C191.1,227.2,194.1,223.2,197.6,219.8z"/>
		</g>
		<g>
			<path class="st0" d="M178.4,203c8.1-1.1,16.2-2.1,24.4-1.7c8.1,0.5,16.3,2.4,23.1,7c2.4,1.7,4.6,3.6,6.1,6.2
				c1.5,2.5,2.1,5.7,1.1,8.5c-0.8,2.7-3,4.6-5.1,6.4c-4.6,4-9.8,7.4-15.6,9.3c-10.3,3.3-21.4,1.2-32.1-1c-1.5-0.2-2.9-0.6-4.1-1.6
				c-1.5-1.2-2.1-3.3-2.5-5.1c-1.9-9-1.6-19.1,4.1-26.3L178.4,203z"/>
		</g>
	</g>
	<g>
		<g>
			<path class="st0" d="M245,213.3c1.5-7.5,12-14.4,20.9-16.9c6.3-1.8,13.1-2.3,19.5-1c7.1,1.6,13.4,5.4,18.8,10.4
				c5.3,5,9.6,10.9,13.4,17.1c1.1,1.7,2.2,3.6,2.5,5.6c0.4,2.1,0,4.4-1.6,5.7c-1.3,1.2-3.1,1.5-5,1.6c-9.2,0.8-18.5-0.5-27.7-2.2
				c-5.7-1-22.1-1.6-30.1-4.7C245.4,224.7,244.1,217.5,245,213.3z"/>
		</g>
		<g>
			<g>
				<path class="st0" d="M259.6,238.9c-5-4-9.2-9.1-12.1-14.8c-1.2-2.4-2.3-5-2.4-7.7c-0.1-2.7,0.8-5.6,2.9-7.3
					c1.5-1.1,3.1-1.6,5-1.9c14-2.9,28.8,1.7,40.7,9.8c8.5,5.7,16.2,13.7,18.8,23.6c0.8,3.5,1.1,7.5-1,10.6
					c-2.2,3.4-6.3,4.8-10.3,5.6C287.1,259,272.1,249.1,259.6,238.9z"/>
			</g>
			<g>
				<path class="st0" d="M283.3,240.9c-9.3,3.5-19.8,13.7-27.3,20.2c3,0.2,5.9,0.4,9,0.6c-1.7,1.7-3.1,3.6-4,5.9
					c3.9,0.6,7.7,0.4,11.5-0.5c0,2.4-0.1,4.8-0.1,7.3c5.8,0,11.5-2.3,16.9-4.5c4.2-1.8,8.8-3.1,12.8-5.3c3.6-1.9,5.8-3.1,7-4.1
					c3.6-2.9,4.1-9.4,3.9-14c-0.1-2.2-0.5-4.6-2.2-5.9c-1.3-1.2-3.3-1.3-5.1-1.5c-6-0.4-12.1-0.4-18.1,0L283.3,240.9z"/>
			</g>
		</g>
	</g>
</g>
</svg>
