<?xml version="1.0" encoding="utf-8"?>
<!-- Generator: Adobe Illustrator 23.0.4, SVG Export Plug-In . SVG Version: 6.00 Build 0)  -->
<svg version="1.1" id="Layer_1" xmlns="http://www.w3.org/2000/svg" xmlns:xlink="http://www.w3.org/1999/xlink" x="0px" y="0px"
	 viewBox="0 0 600 400" style="enable-background:new 0 0 600 400;" xml:space="preserve">
<style type="text/css">
	.st0{fill:#024E91;}
</style>
<path class="st0" d="M271.9,234.5l-9.5,1c0,0-10.9,3.8-13.2,3.3c-2.3-0.5-57.4,2.9-66.5,0c-9.1-2.8-46.1,0.2-65.5-6.1
	s-49.1-14.1-69-6.8c-19.9,7.3-20.7,12.4-22.4,14c-1.8,1.6-6,2.2-7.3,0c-1.3-2.2,1.3-11,2.3-13c1-2,3.3-5,3.8-6.3
	c0.5-1.3,2-7.1,3.8-7.1c1.8,0,3,0,3,0s0.8-3.5,1.8-3.5c1,0,2.5,0.5,4.4,0c1.9-0.5,0.6-5,1.4-5c0.8,0,6.5-1,8.1-1.8
	c1.5-0.8-0.5-4.3,3.3-3c3.8,1.3,6.5,0.8,6.5,0.8s-0.5-2.5,0.5-2.5c1,0,5.3,0,7.3,0c2,0,2.5-2.8,2.5-2.8l8.8,1c0,0,3.8-2.3,4.5-2.3
	s15.4-0.5,16.4,0c1,0.5,2.5,0.1,2.8-0.2c0.3-0.3-0.5-3.3,2.3-3.3c2.8,0,6,1.5,6,1.5s5-3.5,6.5-3.5s3.3,4,4.3,3c1-1,1.8-3.8,4-3
	c2.3,0.8,4.5,2.8,4.5,2.8s3-3.8,3.8-2.9c0.8,0.9,7.8,3.4,7.8,3.4s-1.5-3,3-2.3c4.5,0.8,7.3,1.5,7.3,1.5s-1.3-4.3,2.5-2.8
	c3.8,1.5,6.8,1.3,6.8,1.3s-0.5-1.2,2-1.6c2.5-0.4,5.8,1.6,5.8,1.6s1.5-1.9,4.3-2.6c2.8-0.7,5.8-0.3,7.1,0c1.3,0.3-0.8-3.5,2.8-3.5
	c3.5,0,8.3,3.5,8.3,3.5l1.8-4.7l9.1,1.3c0,0-0.3-3.5,1.8-3.5c2,0,9.3,0,9.3,0s-1-2.8,3-2.8c4,0,10.6,2.3,10.6,2.3s0.8-5.3,1.8-5.3
	c1,0,8.3,1.3,8.3,1.3l2,1.3c0,0-0.8-1.8,0.8-2.5s8.1,0,8.1,0l2.3,2.5c0,0-0.5-4.5,0.8-5c1.3-0.5,6.8,0.5,7.6,0
	c0.8-0.5,2.5-0.1,2.5-0.1s1.4-4.1,2.8-4.4c1.4-0.3,4.5-0.3,5.5,0c1,0.3,3.5-0.2,3.5-0.2l0.3-3.6h9.1c0,0,2,2,2.8,2s-1.3-5,2-5.3
	c3.3-0.3,6.8-1,7.6,0c0.8,1,2.3,1,2.3-0.5c0-1.5,1.5-1.8,1.5-1.8h9.4c0,0,1.2-2.2,3.2-2.2c2,0,9.1,0,9.1,0s0.3-1,2-1.8
	s11.6,0,11.6,0s-0.3-2,2.5-2s5.5,0,5.5,0l3.3-1.5h7.6c0,0,12.1-0.8,13.9,0c1.8,0.8,4,1.3,6,1.3c2,0,3.8-2.9,5.3-1.6s0,2.1,2.8,2.4
	c2.8,0.3,5.8-1.3,6.8-1.3c1,0,4.5,1,5.3,1.5c0.8,0.5,0.8,1.8,3.3,0.8c2.5-1,0.5-2.3,3.8-1c3.3,1.3,5,1.8,6.5,1.8
	c1.5,0,6.5-0.8,8.3-0.8c1.8,0,3,1,3,1h5.8h5.3l2.5-0.3c0,0,2.8-2.5,6.3-1.8c3.5,0.8,4,2,5.5,1c1.5-1,1.8-2.5,2.8-2.5
	s3.3-1.2,3.3-1.2l6.8,1.4l4,3.3c0,0,1.3-0.8,2.5-1.5c1.3-0.8,2.8-1.8,4.5-0.8c1.8,1,3.8,1,3.8,1s2.5-2.3,4-1.8s3.3,0.3,3.3,0.3v-3.8
	c0,0,5.3-1.8,8.1-2.3c2.8-0.5,4.8-3,7.3-3.3c2.5-0.3,6.5,0.3,8.1,0c1.5-0.3,1-5.3,6-5.3c5,0,7.3,2,8.1,2.3c0.8,0.3,23.9,0,26.4-0.5
	c2.5-0.5,12.1-5.3,14.1-5.5c2-0.3,6-2.8,7.8-2.8c1.8,0,3-2.8,4-3c1-0.3,3.8,0.3,4.5,0c0.8-0.3,3.3,0.8,4,1c0.8,0.3,5.8,1.8,7.8,3.8
	c2,2,0,8.6,0,8.6l-1.5,3c0,0-2.1,6.5-3.6,6.4c-0.2-3.2,0.2-4.3,0.2-4.3l-3,1.7v3c0,0-2.5-2.1-2.5-3.2l-1,0.6l-0.6,4.1l-2.2-2
	l-1.3,0.8c0,0,0.3,4.9-0.4,5.2s-1.8-2.7-2.2-2.6c-0.4,0.1-0.9,1.4-0.9,1.4s0,5.8-0.8,5.6c-0.9-0.2-1.9-3.6-2.3-3.6c-0.4,0-1,1-1,1
	s0,5.6-0.8,5.6s-2.1-4.9-2.1-4.9l-1.3,1.2c0,0,0,3.8-0.5,4.1c-0.5,0.3-1.5-2.2-1.7-2.5c-0.2-0.3-2.6,0.3-2.6,0.3s-0.1,3.9-1.1,3.6
	c-1-0.3-1.6-3-1.6-3l-1.9,1.1c0,0,0.4,3.6-0.8,3.3c-1.1-0.3-1.6-2.7-1.6-2.7l-1.9,1.4c0,0,0.1,2.5-0.7,2.6c-0.8,0.2-1.4-1.6-1.4-1.6
	l-1.7,1c0,0-1.2,0.7-1.2,0.9s-0.8,2.8-0.8,2.8s-0.3,0.4-1-0.8c-0.8-1.1-0.8-0.4-0.8-0.4l-0.2,3c0,0-0.9,1.5-2.8-1.6
	c-0.6,0.9-1.6,0.9-1.6,1.3c0,0.5-0.3,2.8-0.8,2.9c-0.5,0.1-1.4-1.5-2-1.8c-0.6-0.3-1.4,0.4-1.4,0.7c0,0.3-0.1,3.6-1.1,3.4
	c-1-0.2-2.2-3.5-2.2-3.5s-0.9-0.4-1.3,0.6c-0.4,0.9-2.5,2.3-2.5,2.3s1.1,2.1,1.9,2.1s1.3-0.4,2.3-0.7c0.9-0.3,2.1,0.5,2.3,1.2
	c0.2,0.8,1.2,0.4,1.7,0.5c0.5,0.1,0.9-1.4,1.2-1.9c0.3-0.5,0.6,1.8,1.5,2.4c0.9,0.6,2.8-0.1,3.3-0.9c0.5-0.9,1,0.6,1.2,1.5
	c0.2,0.9,1.2,1.2,1.7,0.9c0.5-0.3,2.5-2.6,2.5-2.6s0.8-0.2,0.8,0.4c0,0.6-0.7,1.8,0,1.9c0.7,0.1,1.5,0.2,1.8-0.4
	c0.3-0.6,1.5-2.7,2.2-2.5c0.7,0.2,0.9,2.2,0.9,2.5c0,0.3,1.2,0.8,1.7,0.3c0.5-0.5,0.8-4,1.8-3.2s1.1,2.6,1.1,2.6s2-0.4,2.3-0.7
	c0.3-0.3,1.4-3.5,1.9-4c0.5-0.5,1.3,0.8,1.4,1.8c0.1,1-0.9,3.1,0.7,3c1.5-0.1,2-4.2,2.7-4.2s1.4,1.9,1.3,3.4
	c-0.1,1.5,0.3,1.1,1.3,0.8s2.7-4.3,3.3-4.7c0.6-0.4,1.3,2.5,1.3,2.8c0,0.3,0,1.9,0.9,1.8c0.8-0.1,3.1-1.7,3.4-2.4s1-3.6,1.6-3.6
	c0.6,0,1.4,2.1,1.4,2.6s-0.7,2.6-0.2,3c0.5,0.4,1.4-2,2.2-2c0.8,0,1.1,1.5,1.2,2c0.1,0.5-0.6,3.6-0.7,3.9c-0.1,0.3-0.6,4.8-1.6,6.2
	c-1,1.4-6.3,6.8-9.6,7.2c-3.3,0.4-12.6,3.8-15.4,3.6c-2.8-0.2-8.2,2.1-12.9,2.5c-4.7,0.4-14,1.9-18.2,2.8
	c-4.3,0.9-15.1,7.4-18.1,8.1c-3,0.8-9.9,3.6-20.4,2.7c-10.5-0.9-19.5,1.2-23.5,0.9c-4.1-0.3-6,1.5-5.9,2.4c0.1,0.9,8.4,8.3,11,10.5
	c2.5,2.2,5.2,3.2,8.6,3.9c3.4,0.7,10.3,2.5,11.3,3c1,0.6,2.9,1.5,3.3,1.9s-0.2,1.2,0.5,1.2c0.7,0,5.6,0.2,6,0.9
	c0.5,0.8,1.1,1.1,1.5,2s0.3,1.7,0,1.6c-0.3-0.1-3.9-2-5.5-1.2c-1.6,0.8,4.1,2.2,4.8,3c0.8,0.9,1.1,3.8,1.1,3.8s-3.5-0.9-4.9-0.8
	c-1.4,0.2-2.3-0.3-1.5,0.8c0.8,1,2.6,2.3,2.6,3.2c0,0.9-0.4,2.9-0.4,2.9s-3.5-2.1-4.8-2.3c-1.3-0.2-5.3-2.1-5.3-2.1s0.8,3.6,0.8,4.3
	c0,0.8-1.8,1.4-1.8,1.4s-1.7-1.4-3.2-3.1s-8.4-2.4-12.7-4.3c-4.3-1.9-13.4-5.4-14.3-6.6c-0.9-1.2-2.4-1-5.9-2.6
	c-3.5-1.6-16.2-6.1-19.5-9c-3.3-2.8-6.1-7-6.2-8.7c-0.1-1.7-18.8,4.1-22.3,4.7c-3.5,0.7-32.2,6.1-42.1,3.4
	c-9.9-2.7-12.4-0.5-12.4-0.5s-2.9,7.3-8.2,10.3c-5.6,3.1-10.5,4.2-14.1,4.3l-6.5,0.9c0,0,1.3,3.3,4.1,3.3c2.7,0,9.6,0.7,10.3,1.7
	c0.7,1,3.7,7.5,3.7,8.2c0,0.8-0.9,0.1-1.6,0c-0.8-0.1,1.1,2.8,1.3,3.6c0.2,0.8-0.4,2.5-0.4,2.5s-0.9-1.1-2.7-1.4
	c-1.9-0.3-3-0.7-3-0.7l0.9,3.4c0,0-2.7,0.6-4.3-0.6c-1.6-1.1-4.3-2.2-5.2-2.3c-0.9-0.1-0.6,2.2-0.3,3c0.3,0.8,1,2.4,1,2.4
	s-0.5,1.5-3.1,0s-5.8-4.4-8.3-4.7c-2.5-0.3-10.4-1.8-14.3-4.7c-3.9-2.9-9.3-7.4-10-10.2c-0.8-2.8,0.3-10.7-0.9-13
	C273,236.7,271.9,234.5,271.9,234.5z"/>
</svg>
