<?xml version="1.0" encoding="utf-8"?>
<!-- Generator: Adobe Illustrator 23.0.4, SVG Export Plug-In . SVG Version: 6.00 Build 0)  -->
<svg version="1.1" id="Layer_1" xmlns="http://www.w3.org/2000/svg" xmlns:xlink="http://www.w3.org/1999/xlink" x="0px" y="0px"
	 viewBox="0 0 600 400" style="enable-background:new 0 0 600 400;" xml:space="preserve">
<style type="text/css">
	.st0{fill:#002224;}
</style>
<path id="path2818" class="st0" d="M374.8,326.1c-0.9-0.4-3-4.4-4.1-5.1c-5.5-3.5-1.1,2.6-7.1,0.4c-5.3-2-10.6-6.1-15.7-8.7
	c-5.2-2.7-10.2-7.6-15.7-9.1c-8.8-2.4-13.1,3.1-17.2-3.5c-1.4-2.3-7,4.6-8.1,4.6c-2.6,0,5-7.9,6-8.4c2.9-1.3,11.2,2.6,12.4-2.3
	c1.5-6.2-23-18.4-25.7-21.2c-10.2-10.5,3.5-22.7-1.4-31.8c-4.1-7.6-29.3-6.6-38.1-7.4c-13.3-1.3-34.3,1-48.9,4.7
	c-25.4,6.3-49.1,31.7-74.2,31.7c0.1-0.5,0.3-0.9,0.8-1.3c-2.5,0.7-9.1,1.8-11.7-0.5c-3.5-3,2.7-7.5,2.4-7.7c0.4,0.4-7.1,0.5-7.9,0.6
	c5.5-4.9,12.2-8.1,18.4-12.1c-0.1,0.3,2-7,2-6.7c0-0.3-8.3,2.7-8.5,2.5c-1.1-1.1,18.5-14.6,19.7-13.5c-1.1,0.3-2.2,0.6-3.3,0.7
	c-0.2-0.2,46.9-27.7,48.7-29.7c2.3-2.5,9.6-1.6,13.2-3.2c5.7-2.5,12.3-8.3,17.1-12.4c-0.9,0-3.2,0.4-3.8,0
	c-1.9-1.1,43.1-24,48.8-26.3c20.8-8.8,37.6-25,58.7-34.4c15.2-6.8,30.9-12.1,42.9-23.4c6.5-6.1,13-11.9,18.2-16.5
	c-0.3-7.5,20.9-12.6,28-12.3c11.3,0.4,18.4,6.7,28,10.6c6.6,2.7,11.9,2.2,18.6,5.4c0.3,0.1,15.1,12.6,11.4,12.6
	c-18,0-42.2,5.4-49.2,25.1c-5.8,16.2-5.5,31.9-15.8,46.7c-9.4,13.6-20.5,27.4-33.6,37.8c-16.9,13.4-65.3,37.8-47.5,63.3
	c3.9,5.7,11.3,10.2,16.3,14.4c6.7,5.7,9.8,11.7,15.6,17.9c6.6,7,22.6,6.1,19.9,18.5c-0.1-0.2-4.7-6-5.5-5.9
	C377.3,320.4,374.9,325.5,374.8,326.1z M345.4,298.2c2.1-2.1-27.6-22.9-27.6-22.9C320.9,282.3,339.4,295.8,345.4,298.2z
	 M317.9,274.7c-0.5,0.9-4.3-7.7-4.8-7.7C310.1,267,316.4,274.1,317.9,274.7z M312.5,257.1c-0.8-3.9,4.6-9.3,4.6-13.2
	C317.1,244.9,310.7,250.6,312.5,257.1z M315.4,246.7C315.4,245.9,315.4,247.1,315.4,246.7z M315.9,246
	C315.9,245.7,316.7,245.8,315.9,246z M473.8,94.3C473.5,94,473.2,94.9,473.8,94.3z M320.9,295.8C320.9,295,320.9,296.3,320.9,295.8z
	 M453.6,85.1C454.3,84.8,454.5,85.2,453.6,85.1z"/>
</svg>
