<?xml version="1.0" encoding="utf-8"?>
<svg version="1.1" xmlns="http://www.w3.org/2000/svg" xmlns:xlink="http://www.w3.org/1999/xlink" x="0px" y="0px"
	 viewBox="0 0 600 400" style="enable-background:new 0 0 600 400;" xml:space="preserve">
<style type="text/css">
	.st0{fill:#192768;}
</style>
	<path class="st0" d="M293.6,252.2c0.1,0.1,0.2,0.3,0.3,0.4c-12.7,15.6-19.7,34.7-27.6,52.8c37.6-3,74.5-7.9,116.5-4.7
		c36.7,2.8,74.3,4,110.4-5c25.7-6.4,62.8-22.1,72.2-49.2c11.2-32,20.8-65.2,24.9-99.1c1.5-11.8,2.2-24.6-4-34.8
		c-13.1-21.6-44.8-17.2-66.2-16.3c-26.1,1.1-52.1,5-77.7,10c-39.9,7.8-80.5,12.9-120.6,20.3c-58.7,10.8-116.3,27.1-176.3,30
		c-15.7,0.7-29.5,5-41.5-5.2c-4.8-4-9.2-8.6-12-14.2c-2.8-5.6-3.6-12.4-1.1-18.1c3.5-7.9,12.4-11.9,20.8-13.8
		c10.5-2.4,21.3-2.6,31.9-4.2c10.6-1.5,21.5-4.5,29.7-11.4c2.4-3.1,0.5-8-2.8-10.1c-3.3-2.1-7.5-2.2-11.4-2.1
		c-9,0.3-18.2,1.2-27-0.4c-7.8-1.4-15.1-4.7-22.8-6.3c-7.7-1.6-16.6-2.7-22.6,2.4c-0.5-4.2-3.6-7.9-7.4-9.8c-3.8-2-8.2-2.5-12.5-2.5
		c-14.5,0-28.5,1.9-42.8-1c-4.9-1-9.8-2-14.6-3c1.6,21.9,35.9,27.7,41.1,49.1c2.2,9.2-1.8,18.7-5,27.6
		c-12.4,34.5-16.1,71.4,1.6,104.9c11.8,22.4,31.7,40.4,55,50.2c12,5,24.2,9.8,37,12.6c14.5,3.2,41.3,3.4,41.5,3.4
		c4.8-5.4,12.5-11.8,17.9-16.6c9-8.2,17.7-15.1,26-24.1c8.1-8.8,16.2-18.2,27.2-23c6.5-2.9,14.4-3.5,21.2-1.4
		c-4.1-0.4-8.2,0.1-11.8,1.3c-20.9,7.1-34.7,27.8-51.2,41.6c-10.6,8.9-23.1,16.2-30.7,28.2c-6.5,10.1-8.3,24.3-0.8,33.8
		c0.8,1,1.7,2,2.7,2.8c10.3,9.1,27.9,6.8,40.3-0.4c22.7-13.2,34.8-37.2,48.7-60.2C276.7,275.2,283.3,264.1,293.6,252.2z"/>
	<path class="st0" d="M374.3,310.6c-3.7-2.8-7.5-5.6-11.5-7.9c-17.2-1.8-35.3,2.3-52.8,2.7c9.1,4.8,17.1,11.8,25.2,18.3
		c10.3,8.3,21.8,16.3,34.9,17.4c5,0.4,10.5-0.4,13.8-4.2c3.5-4,3.4-10.1,1-14.8C382.6,317.4,378.5,313.9,374.3,310.6z"/>
</svg>
