<?xml version="1.0" encoding="utf-8"?>
<!-- Generator: Adobe Illustrator 24.0.0, SVG Export Plug-In . SVG Version: 6.00 Build 0)  -->
<svg version="1.1" id="Layer_1" xmlns="http://www.w3.org/2000/svg" xmlns:xlink="http://www.w3.org/1999/xlink" x="0px" y="0px"
	 viewBox="0 0 500 500" style="enable-background:new 0 0 500 500;" xml:space="preserve">
<style type="text/css">
	.st0{fill:#7A4034;}
	.st1{opacity:0.7;}

		#leftEar, #rightEar, #face, #facenNeck, #tail, #eraser {
	  transform-box: fill-box;
	  -webkit-backface-visibility: hidden;
	}
</style>
<filter id="dropshadow" height="130%">
  <feGaussianBlur in="SourceAlpha" stdDeviation="5"/>
  <feComponentTransfer>
    <feFuncA type="linear" slope="0.3"/>
  </feComponentTransfer>
  <feMerge> 
    <feMergeNode/> <!-- this contains the offset blurred image -->
    <feMergeNode in="SourceGraphic"/> <!-- this contains the element that the filter is applied to -->
  </feMerge>
</filter>
<g style="filter:url(#dropshadow)">
<g>
	<path class="st0" d="M315.6,106.5c-16.6,3.7-32.8,9.5-49.6,12.1c-41.2,6.4-83.1-7-124.8-4.7c-15.9,0.9-31.6,4-46.6,9.4
		C81.3,128,68.4,134.6,58.8,145c-8.7,9.4-14.1,21.4-17.9,33.5c-8.4,26.5-9.7,56.8,3.9,81.1c7.2,12.8,18.1,23.1,28.9,33.1
		c8.1,7.4,16.3,14.9,25.7,20.5c17.5,10.4,38.1,14,58.3,16c37.9,3.8,76.6,4.9,113.6-4.2s65.7-16.7,93.2-43.1
		c8-7.7,15.5-20.6,20.2-30.7c7.3-15.5,14.3-41.1,12.2-58c-1.1-8.5-2.8-17.1-6.5-24.9c-4.6-9.9-12-18.1-19.9-25.6
		c-11.6-10.9-24.5-20.5-38.4-28.3L315.6,106.5z"/>
</g>
<g>
	<path class="st0" d="M339.2,278c-8.1,21.5-16.1,43.2-20.3,65.7c-4.1,22.6-4.1,46.4,3.9,68c2.1,5.7,4.8,11.3,5.5,17.3
		c0.2,1.3,0.2,2.7-0.5,3.8c-1.1,1.8-3.5,2.2-5.6,2.4c-11.5,1-33.2,1.7-41.9-5.9c-3.3-2.9-5.7-6.7-7.9-10.5
		c-7.5-12.9-13.7-26.5-19.9-40.1c-2.4-5.2-4.8-10.5-5.9-16.1c-0.9-4.4-0.9-8.9-1.2-13.4c-0.5-10.8-2-21.6-3.4-32.4
		c-1.8-13.3-3.6-26.7-5.4-40L339.2,278z"/>
</g>
<g class="st1">
	<path class="st0" d="M386.5,246.7c0.2,16.3-7.2,31.6-9.4,47.8c-1,7.7-0.9,15.6-0.4,23.4c1.4,26,5.7,56.2,12.8,81.2
		c1.4,5.1,2.7,7-1.3,10.5c-2.6,2.4-6.5,2.4-10,2.3c-8.4-0.2-25.6-0.9-30.9-7.5c-2.8-3.5-3.8-8-5.2-12.2c-2.3-6.9-6-13.3-10.7-18.8
		c-5.6-6.6-9.3-11.8-15.4-17.8c-17.5-17.2-5.1-47.6-5.1-72.1L386.5,246.7z"/>
</g>
<g>
	<path class="st0" d="M35.1,228c-0.3,49.5,16.1,78.8,25.6,112.6c1.8,6.4,3.7,12.9,4.3,19.5c1.4,14.6-3.6,29.1-3.5,43.8
		c0,2.7,0.3,5.5,1.8,7.7c2.3,3.2,6.7,5.6,10.4,6.9c8.3,3,24.1,4.3,32.3,4.7c1.3,0.1,2.7,0.1,3.9-0.3c4-1.5,4.4-6.9,4-11.2
		c-1-10.1-2.4-24.9,0.5-34.6c4.1-13.6,10.5-23.2,22-31.5s21.6-16.9,27.4-29.9c2.9-6.4,4-13.5,4.6-20.6c1.6-17.7,0.2-37.1-11.2-50.8
		C157.3,244.3,35.4,178.5,35.1,228z"/>
</g>
<g class="st1">
	<path class="st0" d="M152.1,324.2c3.8,22.6,4.8,44.7,13.6,65.8c0.9,2.2,1.5,4.7,5.6,7.3c4.7,3,8.3,3.8,13.1,4.4
		c5.2,0.5,20.3,0.4,25.5-0.4c2.1-0.3,4.4-0.9,5.9-2.4c3.2-3.1,1.9-8.4,0.6-12.7c-5.3-17.9-7.5-37.9,1-54.6
		c5.9-11.6,18.3-22.5,17.1-35.5L152.1,324.2z"/>
</g>
<g id="facenNeck">
	<g>
		<path class="st0" d="M357.4,257.2c10-12.9,27-20.1,34.6-34.6c8.4-16.2,16.1-24.5,31.4-37.2c12.6-10.4,11-31.9,5.5-47.2
			c-5.5-15.5-19.4-27-34.8-33.1c-15.3-6.1-32.1-7.4-48.6-7.7c-10.6-0.2-21.7,0.1-31.1,5.1c-9.1,4.8-15.5,13.5-20,22.8
			c-3.5,7.1-6.1,14.8-7,22.7c-1.2,11.3,1.1,22.7,4.1,33.6c6.5,24.1,16.7,48.2,35.2,65.2c6.4,5.9,14.3,11,23,11.3L357.4,257.2z"/>
	</g>
	<g id="face">
		<g>
			<path class="st0" d="M306,104.1c8.7-9.5,19-17.6,30.8-22.6c11.8-5,25.3-6.6,37.6-3.1c15.5,4.3,28,15.9,37,29.2
				c5.5,8.1,10.1,17.2,18.2,22.8c9.2,6.4,21.7,7.6,25.7,9.8s6.5,4.7,8.1,9.5c1.6,4.8,0.6,10.4-1.6,15c-2,4.4-6.1,7.6-10.3,10.1
				c-6.5,3.8-9.1,3.7-18.3,5.8c-3.9,0.9-8,3.4-11.8,4.3c-8.2,1.9-14.6,8-21.6,12.7c-8.7,5.8-18.7,7.5-28.9,10.2
				c-13.1,3.5-27,5.2-40.2,2.1c-13.2-3.1-25.6-11.7-30.8-24.2c-1.6-3.9-2.5-8.1-3.4-12.2c-1.6-7.3-3.1-14.7-4.7-22L306,104.1z"/>
		</g>
		<g id="rightEar" style="filter:url(#dropshadow)">
			<path class="st0" d="M319.8,138.4c-7.4-0.5-14.4-4.1-20-8.9c-5.6-4.9-9.9-11.1-13.5-17.6c-1.2-2.2-2.4-5-1-7.1
				c0.7-1.1,1.9-1.7,3.1-2.2c11.9-5.4,25.3-5.5,38.2-2.8"/>
		</g>
		<g class="st1" id="leftEar">
			<path class="st0" d="M358.1,83.2c2.7-4.8,5.5-9.7,9.2-13.8c3.8-4.1,8.7-7.4,14.2-8.1c0.4-0.1,0.9-0.1,1.3,0.1
				c0.7,0.3,1.1,1.1,1.4,1.8c3.4,8.6,4.8,18,4.2,27.3L358.1,83.2z"/>
		</g>
		<polygon id="eraser" class="st0" points="335.8,98 319.3,103.6 314.3,132.5 326.6,146.8 349.4,125.4 		"/>
	</g>
</g>
</g>
</svg>
