<?xml version="1.0" encoding="utf-8"?>
<!-- Generator: Adobe Illustrator 24.0.0, SVG Export Plug-In . SVG Version: 6.00 Build 0)  -->
<svg version="1.1" id="Layer_1" xmlns="http://www.w3.org/2000/svg" xmlns:xlink="http://www.w3.org/1999/xlink" x="0px" y="0px"
	 viewBox="0 0 500 500" style="enable-background:new 0 0 500 500;" xml:space="preserve">
<style type="text/css">
	.st0{fill:#5A6B41;}
</style>
<g>
	<path class="st0" d="M208.5,209.4c-2.9,10.1-0.4,21.1,4.7,30.4c5,9.2,12.3,17,19.6,24.6c5.2,5.5,10.4,11,15.6,16.5
		c3,3.2,6,6.4,8.3,10.1c3.1,5,4.6,10.8,6.4,16.4c3.4,10.6,7.9,20.8,13.4,30.5c1.6,2.8,3.3,5.6,5.7,7.6c2.5,2,5.8,3.2,8.9,2.3
		c0.9-0.2,1.7-0.7,2.6-0.6c1.4,0,2.5,1,3.7,1.7c4.5,2.4,10.8-1.7,10.5-6.7c1.8,0.9,4.1-0.4,5-2.3s0.7-4,0.5-6c2.8,1.5,6.5,1.1,8.8-1
		s3.2-5.7,2.1-8.6c1.1,0.2,2.2,0.5,3.3,0.7c0.8-1.1,1.1-2.5,0.9-3.9c5.7,1,11.3-5.5,9.4-11c2.5,1.2,5.3-1.7,5.2-4.4
		c-0.1-2.7-2.1-5-4-6.9c-11.7-11.8-26-20.6-38.9-31.1c-3-2.5-6-5.1-8.2-8.3c-3.1-4.5-4.5-10-6.4-15.1c-4.9-13.6-13.2-25.6-21.4-37.4
		c-3.7-5.4-7.5-10.8-12.3-15.2c-6.4-5.8-9-7.7-17.3-12c-3.7-1.9-8.5-4.6-13.9-6.3c-4.1-1.3-9.3-1.7-14.3-4.8
		c1.4,5.5-1.3,11.3-0.4,16.9c1.5,9.3,0.8,17.5,2.5,26.1"/>
</g>
<g>
	<path class="st0" d="M211.5,204.1c-16.2,12.2-38.9,15.1-57.6,7.4c-2.7-1.1-5.5-2.5-8.5-2.2c-3,0.3-5.4,2.3-7.7,4.3
		c-8.7,7.6-16.6,16.3-23.4,25.6c-5.3,7.3-10,15.1-14.6,22.8c-5.8,9.6-11.5,19.1-17.3,28.7c-5,8.3-10,16.7-14.3,25.5
		c-1.1,2.2-2.1,4.8-1,7s5.2,2.4,5.5-0.1c-5.5,12.5-9.3,25.7-11.5,39.1c2.7-0.8,5.1-2.7,6.6-5.1c-3.6,7.9-4.8,17-3.4,25.6
		c4.6-2.2,8.6-5.4,11.9-9.3c-0.9,2.6-1,5.4-0.4,8c5.2-6.7,9.4-14.1,12.5-21.9c-1.6,8.1-1.8,16.5-0.7,24.7c6.8-5.2,11.6-13.1,13-21.6
		c0.7,0.9,1.5,1.8,2.2,2.7c5.3-4.6,8.2-11.8,7.6-18.8c-0.8,4.4,5.5,7.1,9.4,5c3.9-2.2,5.5-6.8,6.9-11c-0.1,1.7,2.2,2.7,3.7,2
		s2.4-2.3,3.2-3.8c1.4-2.8,2.9-5.6,4.3-8.4c1.8,3,6.4,3.4,9.4,1.6c3.1-1.7,5-4.9,6.8-8c4,1.6,8.9,0,11.3-3.6
		c5.4,1.3,11.6-1.1,14.6-5.7c-0.3,2.4,3.2,3.5,5.5,2.6c2.3-0.9,4.3-2.8,6.8-2.7c1.5,0,2.9,0.8,4.4,0.7c1.7-0.2,3-1.5,4.5-2.4
		c3.2-1.9,7.2-1.8,10.9-2.3c3.7-0.5,7.8-2.3,8.8-5.9c1.5,1.7,4.5,1.3,6.1-0.2c1.7-1.6,2.3-3.9,2.9-6.1c4.7,2.1,10.9-1.3,11.7-6.3
		c1.1,1.7,3.8,1.7,5.4,0.5s2.5-3.1,3.3-5c2.8-6.6,5.6-13.3,8.4-19.9L211.5,204.1z"/>
</g>
<g>
	<path class="st0" d="M294.7,264.8c2.3,0.6,5.2,1,6.7-0.7c0.6-0.7,0.9-1.6,1.4-2.4c2.5-3.5,9.7-1.6,11.9-5.3
		c0.8-1.4,0.6-3.3,1.7-4.5c2.7-3.1,9.6,0.9,11.8-2.5c0.7-1.1,0.5-2.5,0.9-3.8c0.7-2.3,3.3-3.7,5.3-5.2c2-1.5,3.8-4.3,2.2-6.3
		c2.3-0.2,4.3-1.6,5.4-3.4c0.7-1.1,1-2.5,2-3.4c1-0.9,2.4-1.1,3.7-1.6c3.3-1.2,5.9-4.1,6.4-7.4c2.1,1.2,5-0.3,6.3-2.4
		s1.7-4.5,3.1-6.4c1.4-2,3.8-3.3,5.4-5.3c1.6-1.9,2-5.2-0.2-6.5c2.2-0.7,4.4-1.5,5.8-3.2c1.4-1.7,1.4-4.6-0.6-5.6
		c2.9-0.9,6.1-0.2,9-1c2.9-0.9,4.9-4.9,2.3-6.3c3.2,0.8,6.8-0.5,8.6-3.1c1.8-2.6,1.6-6.2-0.5-8.5c7.1-0.3,14.2-2.4,20.1-6.1
		c4.1-0.2,8.2-0.4,12.3-0.6c2.4-0.1,5.6-0.9,5.7-3.1c0.1-1.9-2.2-3-4.1-3.7c7.7,2.6,16.5,2.5,24.1-0.4c-9.6-6.2-20.6-10.4-32-12.2
		c11.2,0.2,22.5,0.3,33.7,0.5c-6-3.3-12.8-5.4-19.8-6.2c6.8-1.7,13.6-3.4,20.4-5c-14.2-3.2-28.8-5.2-43.4-6c9.7-1.9,19.3-3.8,29-5.7
		c-18.9-2.2-37.9-3.1-57-2.8c2.4-1.5,4.8-3.1,7.2-4.6c-22.2-2.2-44.7-1.8-66.8,1.3c-17.6,2.4-35.5,6.7-49.5,16.9
		c-3.2,2.4-6.3,5.2-7.6,8.8c-1.2,3.4-0.7,7.2-0.5,10.8c0.6,16-8.8,33-25,38.5L294.7,264.8z"/>
</g>
</svg>
