<?xml version="1.0" encoding="utf-8"?>
<!-- Generator: Adobe Illustrator 23.0.4, SVG Export Plug-In . SVG Version: 6.00 Build 0)  -->
<svg version="1.1" id="Layer_1" xmlns="http://www.w3.org/2000/svg" xmlns:xlink="http://www.w3.org/1999/xlink" x="0px" y="0px"
	 viewBox="0 0 600 400" style="enable-background:new 0 0 600 400;" xml:space="preserve">
<style type="text/css">
	.st0{fill:#5A6B41;}
</style>
<path class="st0" d="M403.4,236.7l-23-25l51.8,13.2l22-4.9l-40.6-23.1l45.3,4.5l9.9-7.4l-49.5-19.7l74.7-3.6l-58.3-17.7l53-9.2
	l-47.5-12.1l57.6-20.6l16.6-24l-74,20.7L491.4,74l5.1-19.9L345,117.2L231.6,219.7l-1.1,0.6l-48.9-91.1l-80.7-75.1v15.6l24.7,34.4
	l-41-29.2l6.3,20.9l31.2,26H91.9l30.2,16.7l-37.5,2.1l44,16.7l-32.5,5.2l4.8,7.3l27.7,5.2l-27.7,9.4l12.3,7.8h32.9l-17.5,14.1h10.2
	h20.9L145.1,224l15.6-5.2l-5.2,12.5h14.6l-6.3,7.2h18.8l1,5.5c0,0-11.2,4.8-14.4,7.3c-2.7,2.1-6.8,7.8-5.1,12.6
	c0,0-9.2,5.5-7.8,12.3c0,0,7-2.8,13.5-3.1c6.5-0.3,18.9,10.3,28.1,7.2c1.7-0.6,3.4-0.9,5.2-1.1l-11,11.4l1.8,1.4l-1.8,6.9l0.6-0.5
	l-11.7,12l-3.8-16.4c0,0-3.4-3.4-4.8-3.4l-1.4,3l1.6,3.6l2.6,12l-10.8-7.4l-4.2-1.3v3l3.3,2.9l9.6,5.8l-7-1.2l-4.5,1.2v2.3h4.7
	l13.8,6.2l1.9,5.1l-0.8,1.3l1.5,2.2l2.2-2.8l-1.7-10.3l6.3-6.2l1.8,1.6l11.1,6.6l-8.1-1.3l-5.2,1.3v2.7h5.5l15.9,7.1l2.2,5.9
	l-0.9,1.5l1.8,2.5l2.5-3.2l-1.9-11.8l16.1-15.6l2.7,3.7l4.5-4.2h3.2l2.5-2.6l0.6,1.1v27.5l10.6-2.1l2.7,8.2l13.3-2.3l11.7,9.4
	l12.9-5.5l10.9,5.5l15.2-5.9l19.2,5.9v-9.8h21.1l-1.6-13.7h11v-10.2l7,2l-7-11.7h16.8l-83.8-39l3.8-7.5l29.6,7.5l-7.5-11.7l23,5.9
	l-4.2-18l22.9,12.9l-17.2-28.4l32.9,8.4L403.4,236.7z M193.2,306.8l4.2-4.1l2.3,3.2l2.8-2.6l2.5,11.7L193.2,306.8z M226.6,295.1
	l-2.1,7.9l0.7-0.6l-13.5,13.8l-3.6-15.8l12.9-13.4c2,1.2,4.2,2.3,6.7,3.1l-3.1,3.3L226.6,295.1z"/>
</svg>
