<?xml version="1.0" encoding="utf-8"?>
<!-- Generator: Adobe Illustrator 24.0.0, SVG Export Plug-In . SVG Version: 6.00 Build 0)  -->
<svg version="1.1" id="Layer_1" xmlns="http://www.w3.org/2000/svg" xmlns:xlink="http://www.w3.org/1999/xlink" x="0px" y="0px"
	 viewBox="0 0 500 500" style="enable-background:new 0 0 500 500;" xml:space="preserve">
<style type="text/css">
	.st0{fill:#99B87F;}
	.st1{opacity:0.7;}
</style>
<g>
	<g>
		<g>
			<path class="st0" d="M311.1,183.4c1.3-5.3-1.6-11.1-6-14.3c-4.5-3.2-10.2-4.1-15.7-3.8c-2.8,0.1-5.7,0.6-8.2,2
				c-2.8,1.6-4.8,4.1-6.7,6.7c-5.1,6.6-10.1,13.3-14,20.7c-0.5,0.9-0.9,1.8-0.7,2.8c0.2,1,1,1.8,1.9,2.5c7.9,6.5,17.2,11.1,27,13.6
				c2.5,0.6,5.1,1.1,7.6,0.6c6.1-1.2,9.5-7.6,12.1-13.3c2-4.5,4.1-9.5,2.6-14.2L311.1,183.4z"/>
		</g>
		<g>
			<path class="st0" d="M308.1,178c5.6,1.1,11.2,2.8,16.5,5c-5.4,4.9-12.7,6.7-19.8,8.2L308.1,178z"/>
		</g>
	</g>
	<g>
		<path class="st0" d="M270.2,192.2c-10,0.4-19.5,4.7-27.4,10.7c-7.9,6-14.5,13.6-20.7,21.4c-3,3.8-5.9,7.6-9.3,11
			c-3.5,3.5-7.6,6.4-11.6,9.3c-9.7,7-19.3,13.9-29,20.9c4.3,0.1,8.7-0.4,12.9-1.5c-4.2,1.7-8.1,4-11.6,6.9c4.5,0.3,9.1-0.2,13.4-1.5
			c-4.1,1.3-7.9,3.3-11.3,5.9c4.5,0.2,9-0.5,13.1-2.1c-3.7,1.3-7.2,3.3-10.1,5.9c9.6,2.5,18.7-5.6,28.6-6.6
			c4.1-0.4,8.2,0.3,12.3,0.8c15.2,1.7,30.8-1.3,44.3-8.4c13.5-7.1,24.8-18.4,32-31.8c5.7-10.6,8.7-23.7,3.8-34.7L270.2,192.2z"/>
	</g>
	<g>
		<path class="st0" d="M200.8,264.4c-11.2,10.1-18.4,23.8-26.1,36.8c-8.6,14.7-18.2,28.9-28.5,42.5c-1.2,1.5-2.4,3.1-2.5,5
			c3-0.5,5.7-2.3,7.3-4.9c-0.8,1-1.3,2.3-1.3,3.6c3.2-1.7,5.8-4.4,7.3-7.7c-0.3,0.6-0.2,1.4,0.2,2c4.6-3.6,7.9-8.5,11.4-13.1
			c15-19.9,34.4-36,53.6-52c5.6-4.7,11.3-9.4,17.3-13.5L200.8,264.4z"/>
	</g>
	<g>
		<g>
			<path class="st0" d="M250.1,258.8c-1.7,3.3-3.4,6.6-5,9.8c-1,2-2.1,4.2-1.6,6.5c0.1,0.7,0.4,1.3,0.4,2c-0.1,1.2-1.3,2-2.4,2.3
				c-2,0.6-4.3,0-6-1.2c-1.8-1.2-3.1-2.9-4.3-4.6c-1.2-1.7-2.2-3.6-2.5-5.7L250.1,258.8z"/>
		</g>
		<g>
			<path class="st0" d="M241.5,275.7c4.8,4.2,9.9,8,15.2,11.5c0.7,0.5,1.4,0.9,2.3,1.2c0.8,0.2,1.7,0.3,2.5,0.3
				c7.8,0.6,15,5.8,18.1,13c-3.2-3.2-5.8-6.3-9.9-8.2c4.5,1.9,8.5,6.7,9.4,11.3c-1.9-4.7-4.9-6.4-8.1-8.5c-1.5-1-4.1-1.4-5.7-2
				c-2.7-0.8-5.7-0.4-8.5,0.2c-2.8,0.6-6.5,3.1-7.3,5.9c-0.8,2.9,2.8,6.8,5,8.9c-2.3-0.6-5.8-2.9-6.8-5.1c-1-2.1,0.1-6.2,1.5-8.1
				c1.4-1.9,3.4-3.2,5.3-4.5c-6.7-4.9-12.7-10.8-17.8-17.3L241.5,275.7z"/>
		</g>
	</g>
	<g class="st1">
		<g>
			<path class="st0" d="M258.2,256.6c-1.7,3.3-3.4,6.6-5,9.8c-1,2-2.1,4.2-1.6,6.5c0.1,0.7,0.4,1.3,0.4,2c-0.1,1.2-1.3,2-2.4,2.3
				c-2,0.6-4.3,0-6-1.2c-1.8-1.2-3.1-2.9-4.3-4.6c-1.2-1.7-2.2-3.6-2.5-5.7L258.2,256.6z"/>
		</g>
		<g>
			<path class="st0" d="M246.4,271.2c4.8,4.2,9.9,8,15.2,11.5c0.7,0.5,2.6,1.6,3.4,1.8c0.8,0.2,1.7,0.3,2.5,0.3
				c7.8,0.6,13.5,1.8,16.7,8.9c-3.2-3.2-4-4.4-8.1-6.3c4.5,1.9,6.7,4.8,7.6,9.4c-1.9-4.7-5.4-6.2-9.1-7.3c-2.4-0.7-4.6-0.9-6.8-0.6
				c-2.7,0.4-3.3,0.4-6.1,1c-2.8,0.6-6,0.9-7.3,3.7c-1.2,2.8-0.9,6.5,1.3,8.6c-2.3-0.6-3.9-3.4-4.3-5.7c-0.3-2.3,1.2-5.2,2.6-7.1
				c1.4-1.9,3.8-2.4,5.8-3.7c-6.7-4.9-13-9.4-18.1-15.9L246.4,271.2z"/>
		</g>
	</g>
</g>
</svg>
