<?xml version="1.0" encoding="utf-8"?>
<!-- Generator: Adobe Illustrator 23.0.4, SVG Export Plug-In . SVG Version: 6.00 Build 0)  -->
<svg version="1.1" id="Layer_1" xmlns="http://www.w3.org/2000/svg" xmlns:xlink="http://www.w3.org/1999/xlink" x="0px" y="0px"
	 viewBox="0 0 600 400" style="enable-background:new 0 0 600 400;" xml:space="preserve">
<style type="text/css">
	.st0{fill:#81BAA9;}
</style>
<g>
	<path class="st0" d="M456.2,104.1c-0.6-0.4-5.5-5.3-5.5-5.3s1.7-5,0.5-10.3c-1.2-5.3-4.6-6.6-5.7-6.9c-1.1-0.3-1-5.3-2.7-6.9
		c-1.7-1.6-2.2,3.3-4,3.2c-1.8-0.1-1.5-7.9-3.2-8.6c-1.7-0.8-1.8,5.5-3.9,4.4c-2.1-1.1-1.9-7.3-3.6-7.7c-1.6-0.3-1.2,7.8-2.4,6.9
		c-1.2-0.9-4.1-8.6-5.4-8.2c-1.3,0.4,0.3,10.9-1.6,9.9c-1.9-1-5.3-5.2-7.8-4.3s-3.7,5.9-1.6,11.5c2.1,5.5,9.4,6,9.4,6
		s-17.4,2.4-29.9,14.2s-26.6,34-31.8,43.2c-5.2,9.2-19.9,17.6-34.3,22.2c-7.7,2.5-15,7.9-20.2,12.4c-0.1,0.1-5.9,5.6-8,11.5
		c-2.1,6-2.4,10.2-2.4,10.2s-0.5-2.2,0-7.5c0.3-3.1,1.6-5.9,2.6-7.8c-1.3-2.3-5-9-8.8-16.1c-4.6-8.6-6.6-18-8.1-27.1
		c-1.5-9.1-5.2-22.3-18.6-40.2c-13.4-17.9-41.1-37.4-64-42.1s-46.2,1.9-45.8,5.6s6-0.9,18.8,0s18.8,6,18.8,6
		c-25.9-1.1-45.4,11.7-43.2,13.5c2.2,1.7,9.8-1.3,19.6-2.6c9.8-1.3,23.6-0.3,36,4.5c12.4,4.8,34,25.5,34,25.5s-5.6-4-13.3-8.8
		c-7.6-4.8-10.5-3.3-10.5-0.6c0,2.7,17.9,19.7,17.9,19.7s-8.8-7.3-14-10.1c-5.2-2.7-8.9-3.6-10.8,1.9c-1.9,5.5,13.3,24.1,13.3,24.1
		s-12.8-12.8-19.3-14.1c-6.5-1.3-9.9,3-8.8,8.8c1.2,5.8,17.7,19.9,17.7,19.9s-14.8-11.2-18.3-13c-3.5-1.7-7.3,0.7-5.3,8.4
		c2,7.6,17,21.2,17,21.2s-9.7-6.6-12.8-10.1c-3.2-3.5-7.8-5-8.5,1c-0.7,6,2,9.1,10.2,15c8.2,5.9,25.6,15.4,25.6,15.4s0,0-7.2-2.4
		c-7.2-2.4-11.8-7.2-13.1-7.2s-3.7,4.5,1.6,9.1c5.3,4.6,24.2,9.9,31.5,13.4c7.3,3.5,19.7,17.3,29.7,26.6c9.9,9.4,22.8,8.8,22.8,8.8
		s0.9,7.2,4.1,12.1c3.2,4.9,8.3,6.3,8.3,6.3c-0.1,4.3-0.3,11.6,6.4,10.7c6.7-0.9,22.5-5.9,35.4-11.5c13-5.5,27.7-15.7,27.7-15.7
		s-7.1,7.6-14.6,11.9c-7.5,4.3-22.6,11.1-22.6,11.1s2.2,5.5,4.2,11.5c2.1,5.9,4,17.9,6.4,26.8c2.4,8.9,4.5,23.1,4.5,23.1
		s3.2-0.7,3.5-1.4c0.3-0.7-0.7-8.1-2.3-14.6c-1.6-6.6-4.5-17.9-4.5-17.9s2.2,2.9,4.2,10.4s4.9,21.9,4.3,23.3
		c-0.5,1.4-5.9,2.3-5.9,2.3s6,1.4,6.9,2.4c0.9,1,1.2,2.9,6.9,5c5.7,2.1,11.5,4.8,13.3,4.9c1.8,0.1,0.5-3.5-1.5-4.5
		c-2.1-1.1-3.6-2.6-1.3-2.8c2.3-0.2,15.4,0.1,18.9,0s2.7-1.6,1.5-2.4c-1.2-0.8-5.3-1.4-8.8-1.4s-10.7-1-10.7-1s7.8-1.4,7.9-2.3
		c0.1-0.9,0.6-1.9-1.8-1.8c-2.5,0.1-13.3,2.4-15.3,0c-2-2.4-5.1-14.5-7.7-22.6c-2.6-8.1-4.1-12.3-5.6-13c-1.5-0.6-2.7-3.9-2.7-3.9
		s1.6,1.8,4.1,2.2s4.8-4.6,7.7-10.4c2.9-5.8,12.8-17.4,12.8-17.4c38.1-7.7,52.3-51.9,53.4-56.4c1.1-4.5,7.9-12.7,14.3-30
		c5.9-15.6,3.7-44.4,3.2-49.7c-1.2-0.3-3.1-1.8-3-3.5c0.1-1.9,0.6-3.8,0.6-3.8s-0.3,2.6,0.2,4.4c0.5,1.7,2.6,2,2.9,2.1
		c11.6-0.1,12.7-14.4,13.8-15.9C449.4,105.3,456.8,104.6,456.2,104.1z"/>
</g>
</svg>
