<?xml version="1.0" encoding="utf-8"?>
<!-- Generator: Adobe Illustrator 24.0.0, SVG Export Plug-In . SVG Version: 6.00 Build 0)  -->
<svg version="1.1" id="Layer_1" xmlns="http://www.w3.org/2000/svg" xmlns:xlink="http://www.w3.org/1999/xlink" x="0px" y="0px"
	 viewBox="0 0 500 500" style="enable-background:new 0 0 500 500;" xml:space="preserve">
<style type="text/css">
	.st0{fill:#5D6EA4;}
	.st1{opacity:0.7;}
</style>
<g>
	<path class="st0" d="M123.5,261c-1.4,5.2,6.2,11.7,9.7,15.8c1.7,2,4.3,3.1,6.8,3.9c9.5,3.1,19.6,4.1,29.5,5.1
		c21,2.3,41.9,5.3,62.9,6.3c21.1,1,42.5-0.1,62.7-6.1c6.2-1.8,12.6-3.2,18.3-6.3c5.2-2.9,9.9-6.5,13.1-10.3c4-4.7,5.4-7.9,4.9-13.9
		L123.5,261z"/>
</g>
<path class="st0" d="M349.9,189.3c0,0-7.1,0.4-16.4-6.2s-47-38.1-108.2-29.3c-61.2,8.9-88.7,33.7-100.2,55.4s-10.3,55.1-6.2,58.1
	c4.5,3.3,10.1-2.8,17.5-2.5s6.2,4.3,14.3,6.2c8.1,1.8,12.3,1.2,12.3,1.2s2.8,3.5,9.8,4.2c7,0.7,13.8,0,13.8,0s4,4.8,12.1,5.8
	c8.1,1,14.5,0,14.5,0s6.2,3.8,15.1,3.3c9-0.5,13.6-1.7,13.6-1.7s7.6,2.6,17.6,1.7s15.6-6.9,15.6-6.9s10.6,1.5,21-2
	c10.3-3.5,10.8-9.1,10.8-9.1s11.6-3.8,16.5-9.6c4.8-5.8,5.8-11.3,5.8-11.3s10-4.1,13.5-10.1c3.5-6,0.5-14.3,0.5-14.3
	s5.4-3.7,6.7-9.8c1.3-6.2-2.1-11.8-2.1-11.8S350.8,197,349.9,189.3z"/>
<g>
	<path class="st0" d="M148.4,265.9c-3.3,6.2-8.3,11.3-13.7,15.8c-5,4.1-10.5,7.9-13.6,13.5c-2.5,4.6-3.2,9.9-3.8,15.2
		c0,0.4-0.1,0.8,0.1,1.1c0.6,0.9,1.9,0.1,2.9-0.1c0.9-0.2,1.9,0.2,2.7,0.6c3.4,1.7,6.6,3.8,9.5,6.2c0.6-1,1.2-1.9,1.8-2.9
		c3.8,1.7,7.7,3.2,11.7,4.5c1.3-1.2-1.1-3.7,0.2-4.9c0.3-0.2,0.6-0.3,1-0.4c2.5-0.5,5.1-0.3,7.5,0.6c0.3,0.1,0.8,0.3,1.1,0.1
		c0.3-0.2,0.4-0.5,0.4-0.8c0.1-1.2-0.6-2.4-1.6-3.2c-1-0.8-2.2-1.2-3.4-1.5c-0.3-0.1-0.7-0.2-0.9-0.5c-0.2-0.3-0.3-0.6-0.3-1
		c-0.3-4.5,0.9-9.5,4.6-12c1.9-1.3,4.2-1.8,6.3-2.8c2.5-1.3,4.5-3.3,6.4-5.4c4.4-4.9,8.4-10.2,11.8-15.9c-9.3-6.2-21.1-6.9-32.3-7.4
		L148.4,265.9z"/>
</g>
<g>
	<path class="st0" d="M363.2,246.7c0.9,3.6,0.5,7.5-0.8,10.9c-1.4,3.7-3.7,6.9-6.3,9.8c-1.2,1.3-2.6,2.6-4.4,3.1
		c-1.3,0.3-2.7,0.2-4.1-0.1c-5-0.8-10-1.9-14.8-3.4c-2.1-0.6-4.1-1.3-6.3-1.3c-4.4,0-8.5,2.6-12.9,2.6c-3.7-0.1-7.1-2.1-10.2-4
		c-0.4-0.3-0.9-0.6-1.2-1c-0.3-0.5-0.2-1.1-0.2-1.6c0.3-3.3,0.9-6.5,1.8-9.7c0.9-3.1,2.2-6.2,4.5-8.6s5.4-4,8.7-3.6l13.8,1.2
		c10,0.6,20,1.3,29.8,3.2c2.3,0.5,2.1,2,2.6,3.9c0.7,2.4,1.7,4.6,2.2,7.1c1.1,5,1.4,10.2,2,15.3c0.6,5.5,1.6,10.9,2.9,16.2
		c1.4,5.5,3.2,11.2,6.9,15.5c1.2,1.4,2.7,2.7,3.8,4.3c1.1,1.6,1.8,3.5,1.4,5.4c-1.4-1.4-2.8-2.7-4.2-4.1c1.1,1.8,1.5,4.1,1.1,6.2
		c-0.7-0.6-1.5-1.2-2.2-1.7c0.4,1.4,0.6,2.8,0.5,4.2c-2.1-0.3-3-2.8-4.9-3.8c-0.8-0.4-1.7-0.6-2.6-0.7c-5.1-0.5-10.7,0.7-14.9-2.2
		c-2.5-1.7-4-4.4-5-7.2c-3.1-8.7-2.2-18.4-3.7-27.5c-1.2-7.6-4.3-15-9.1-21.1L363.2,246.7z"/>
</g>
<g>
	<g>
		<path class="st0" d="M369.4,221.6c-3.3,8.9-7.6,17.5-12.8,25.5c-2,3.1-4.3,6.3-7.8,7.8c-4,1.8-8.7,0.8-12.9-0.6
			c-9.4-3.1-18.3-8.4-24.2-16.3c-0.8-1.1-1.6-2.4-1.5-3.7c0.1-1.2,0.9-2.1,1.8-2.9c3.9-3.3,9.3-3.8,14.4-4.2
			c12.9-1,25.7-2.6,38.4-4.7L369.4,221.6z"/>
	</g>
	<g>
		<g>
			<path class="st0" d="M339.6,198.7c5.4-0.9,10.8-1.9,16.3-2.8c1-0.2,2.1-0.3,3,0.1c0.7,0.3,1.3,0.9,1.8,1.5
				c6,6.9,11.8,14.1,17.4,21.4c0.8,1,1.6,2.2,1.6,3.5c0,2.6-2.8,4-5.3,4.9c-14.6,5.1-29.3,9.9-44.1,14.4c-0.7,0.2-1.5,0.4-2.2,0.3
				c-1.4-0.2-2.2-1.6-2.8-2.9c-2.3-5.1-2.3-10.8-2.3-16.4c0.1-5.3,0.2-10.6,0.4-15.8c0-1.4,0.1-2.9,0.8-4.1
				c1.8-3.4,6.5-3.5,10.3-3.1L339.6,198.7z"/>
		</g>
		<g>
			<path class="st0" d="M352.1,201.1c4.7-4.6,9.6-9.2,15.1-12.8s11.8-6.4,18.4-6.9c5-0.4,10.2,0.5,15.2-0.4c2.4-0.4,4.7-1.2,7.1-1.3
				c6.1-0.2,11.7,4.6,13.7,10.4s0.9,12.3-1.6,18c-0.7,1.6-1.5,3.2-2.6,4.6c-2.8,3.8-7.1,6.3-11.4,8.3c-9.5,4.4-19.8,7.2-30.2,8.2
				c-4.6,0.4-9.4,0.5-13.9-0.7c-4.5-1.2-8.8-3.7-11.3-7.6L352.1,201.1z"/>
		</g>
	</g>
</g>
<g class="st1">
	<g>
		<path class="st0" d="M359.1,234.9c6.4,10,9,21.9,14.9,32.2c2.3,3.9,5.1,8,4.7,12.5l-2.6-0.8c0,0.6-0.2,1.2-0.6,1.7
			c-5.3-0.9-10.6-1.9-15.8-2.9c-0.8-0.2-1.7-0.4-2.4-0.9c-0.8-0.6-1.3-1.5-1.8-2.4c-3.5-7.1-5.2-14.8-7.5-22.3
			c-1.5-4.7-3.2-9.3-5.1-13.7L359.1,234.9z"/>
	</g>
	<g>
		<path class="st0" d="M318.9,216.6c10.8,0.7,22.1,1.5,31.3,7.4c2.9,1.9,5.7,4.4,7,7.6c1,2.5,1.2,5.3,1.2,8c0,1.3,0,2.7-0.8,3.7
			c-0.6,0.8-1.6,1.2-2.6,1.5c-5,1.6-10.3,1.3-15.5,0.8c-7.5-0.7-14.9-1.8-22.3-3.3L318.9,216.6z"/>
	</g>
</g>
</svg>
