<?xml version="1.0" encoding="utf-8"?>
<!-- Generator: Adobe Illustrator 24.0.0, SVG Export Plug-In . SVG Version: 6.00 Build 0)  -->
<svg version="1.1" id="Layer_1" xmlns="http://www.w3.org/2000/svg" xmlns:xlink="http://www.w3.org/1999/xlink" x="0px" y="0px"
	 viewBox="0 0 500 500" style="enable-background:new 0 0 500 500;" xml:space="preserve">
<style type="text/css">
	.st0{fill:#43110A;}
	.st1{opacity:0.7;}

	#nose1, #nose2, #nose3, #nose4, #tail {
	  transform-box: fill-box;
	  -webkit-backface-visibility: hidden;
	}

</style>

<g>
	<path class="st0" d="M458.7,214.9c-6.1-34-22.5-66.1-46.5-90.9c-12.4-12.9-27.5-24.1-45-27.8c-12.4-2.6-27.1-4.4-45.5-1.5
		c-16.1,2.6-25.5,5.9-33.1,9c-34.8-8-69.4,1.2-106,0.5c-25.6-0.4-51.4-0.8-76.3,5S57.2,127.9,42.8,149c-18.6,27.4-17.8,63.2-14,96
		c1.8,15.1,4.1,30.3,9.8,44.4s15.3,27.1,28.6,34.4c18.4,10.1,40.8,8,61.5,4.8c33.7-5.3,67.1-13.3,99.6-23.8
		c-0.1,1.4-0.1,2.8-0.2,4.2c-1.3,33.1-1.7,66.2-1,99.2c0,1.9-0.3,6.3,7.8,10.2c8.1,3.8,34.6,6.8,44.9,2.8s6.6-10.9,5.2-16.1
		c-2.9-10.1-8.2-18.6-9.9-29c-5.2-32.9,7.9-64.6,18.6-96.7c8.3-4.2,16.4-8.9,23.8-14.4c16.5,0.5,32.6-11.6,38.9-27.3
		c5.4,2.1,11.3,3.9,15.7,4.8c14.5,3.1,33.3-3,50,7.6c8.6,5.5,15.2,2.2,25.7-1.3c4.4-1.5,5.8-9.5,8.7-13.2
		C460.6,229.8,460,221.9,458.7,214.9z"/>
</g>
<g>
	<path class="st0" d="M33.7,266c17.1,44.7,19.4,74.4,19.5,122.3c0,8.3,0.1,17.4,5.4,23.7c4.4,5.2,11.4,7.4,18.2,8.6
		c13.4,2.4,27.3,2.1,40.5-0.8c3.1-0.7,6.4-1.6,8.8-3.6c4.8-4,5.4-11.5,3.3-17.4c-2.1-5.9-6.3-10.8-9.8-16c-6-8.9-10.4-19-12.6-29.5
		c-1.8-8.6-2.4-17.4-5-25.8c-5.2-16.2-17.9-28.8-30.1-40.6c-12-11.6-23.2-23.6-39.8-25.3L33.7,266z"/>
</g>
<g class="st1">
	<path class="st0" d="M173.6,308.9c-4.5,22.7-1.9,46.9,5.5,68.9c1.8,5.2,1.5,11.7-6.7,14c-7.5,2.1-18.8,0.2-27.4-1.4
		c-8.6-1.6-12.9-1-17.7-6.6s-6-44.1-3.4-64.5c0.9-7.3,2.9-15.2,8.8-19.7c5.4-4.1,12.8-4.4,19.6-3.8c4.1,0.4,8.4,1.1,11.9,3.4
		L173.6,308.9z"/>
</g>
<g class="st1">
	<path class="st0" d="M310.6,268.1c0.1,11.3-1.1,23-1.4,33.7c-0.6,23.7,1.1,46.3,9.8,68.2c1.6,4,3.5,8.5,1.5,12.3
		c-1.7,3.4-5.8,4.6-9.5,5.5c-15.5,3.4-21.6,3.3-37.3,1.5c-1.4-0.2-2.8-0.3-4-1c-2.9-1.7-3.4-5.6-3.5-9c-0.9-25.4-4.4-51-0.6-76.1
		c1.2-8,1-26.6,3.4-34.3L310.6,268.1z"/>
</g>
<g style="filter:url(#dropshadow)">
	<path class="st0" d="M376,191.6c9,16.6-10.7,30.9-17.5,48.5S332.6,271,314,267.3c-14.8-3-25.7-15.4-35.4-27
		c-8.3-9.9-14.1-16.8-24.8-29.6s-15-22.1-15-39.1s10.2-30.2,29.7-38.1c19.5-8,30.4-8.2,45.7-9.8L376,191.6z"/>
</g>
<g id="nose4">
	<g id="nose3">
		<g>
			<path class="st0" d="M433.4,301.8c0.8,22.1-3.2,35.5-8.9,50.6c-1.3,3.6-0.6,7.8,1.5,10.1c2.8,3,8.3,5.1,13.4,4.3
				c3.7-0.6,11.6-4.8,14-8.5c8.9-17.8,12.3-37.2,12.7-52.4c0.4-14.8-4.1-13.2-13.2-13.2C443.7,292.7,433.1,296.6,433.4,301.8z"/>
		</g>
		<g id="nose2">
			<g>
				<path class="st0" d="M423.7,354.4c-3,7.8-7.3,15.8-16.2,15.8c-8,0-9.2,0.9-10.3,5.7c-0.6,2.4-1.8,4.6-2.3,6.9
					c-0.5,2.1-0.8,4.4-0.1,6.5c1.4,4.4,6.7,6.1,11.3,6.2c11,0.3,22.4-4,30.5-11.5c8.1-7.5,12.3-16.5,17.7-27.9c2.1-4.6-4.7-5-11.3-5
					C436.3,351.4,426,347.2,423.7,354.4z"/>
			</g>
			<g id="nose1">
				<path class="st0" d="M400.4,368.1c-7-3.6-11.2-10-16.6-8.7c-5.4,1.3-11.9,10.9-10.5,16.2c1,3.4,6.3,8.9,12.8,13.5
					c5.6,4,17.9,8,24.5,6c6.3-1.9,6-11.1,5.9-17c0-6.9-3.6-7.9-8.9-7.9C405.3,370.2,402.6,369.1,400.4,368.1z"/>
			</g>
		</g>
	</g>
	<g>
		<path class="st0" d="M457.6,208.4c8.1,31.1,11,63.5,8.4,95.5c-0.3,3.2-1.2,7.2-4.4,7.8c-6.9,2.8-23.2,6.4-25.1,5.1
			s-2.8-11.5-3.4-19c-0.4-4.7-1.2-10.2-2.3-17.4c-2.6-16.3-5.2-25.1-14-33.3c-1.2-1.1,3.7-16.5,4.3-18c0.7-1.9,2.4-3.2,4.1-4.2
			L457.6,208.4z"/>
	</g>
</g>
<g id="tail">
	<path class="st0" d="M26.6,212.9c-1.5,21.5-0.2,52-3.8,74.1c-0.2,1.3-0.4,2.6-1,3.8c-0.8,1.7-2.2,3.1-3.3,4.7
		c-3.5,5-4.5,13.6-3.5,19.5s4.1,9.8,4.4,15.8c7.2-9.1,12.3-17.9,10.3-29.3c-0.4-2.4-2.1-7.8-2.5-10.3c-0.4-2.9-0.2-5.8,0-8.7
		c0.7-11.7,3.3-23.4,4-35.1c0.3-5.5,0.8-11.5,4.5-15.6L26.6,212.9z"/>
</g>
<g style="filter:url(#dropshadow)">
	<path class="st0" d="M409.2,234.7c2.6,6.4,7.2,12.2,13.4,15.1c6.2,2.9,12.1,6.1,18.9,7.2c13.7,2,28.6,3,40.7-3.8
		c-2.6,9.8-13.3,15.1-23.2,17.3c-13.9,3-28.8,2.3-42-3.2s-24.5-15.8-30.2-28.8L409.2,234.7z"/>
</g>
<g class="st1">
	<path class="st0" d="M417.9,225.3c10.8,3.9,22.6,2.8,34,1.3c9.2-1.3,18.9-3.1,25.9-9.2c-1.5,7.3-7.7,13-14.6,15.9s-14.5,3.4-22,3.6
		c-4.4,0.1-9,0.2-13.1-1.4L417.9,225.3z"/>
</g>
<polygon class="st0" points="305,130.4 327,113.1 389.1,177.3 370.9,197.9 "/>
<polygon class="st0" points="386,237.8 381.5,233.6 414.1,227.2 409.4,241.2 390.5,241.2 "/>
</svg>
