<?xml version="1.0" encoding="utf-8"?>
<!-- Generator: Adobe Illustrator 23.0.4, SVG Export Plug-In . SVG Version: 6.00 Build 0)  -->
<svg version="1.1" id="Layer_1" xmlns="http://www.w3.org/2000/svg" xmlns:xlink="http://www.w3.org/1999/xlink" x="0px" y="0px"
	 viewBox="0 0 600 400" style="enable-background:new 0 0 600 400;" xml:space="preserve">
<style type="text/css">
	.st0{fill:#D58E9F;}
</style>
<path class="st0" d="M183.5,223.2c-1,1.3-2.1,1.6-3.1,2c-7.6,2.9-15,2.1-22.3-1c-3.4-1.4-6.6-3.3-9-6.3c-5.1-6.5-5.1-16-0.2-23.7
	c4.7-7.4,11.6-12.1,19.6-15c14.6-5.3,29.7-8.8,45.3-9.9c12.5-0.8,24.5,1.5,36.4,5c5.4,1.6,10.6,3.5,15.9,5.5c2.7,1,2.9,1,3.1-1.9
	c0.5-6.2,2.4-12.1,5-17.7c3.5-7.5,9.5-12.3,17-15.6c12.2-5.3,24.1-4.8,36.1,0.8c6.7,3.1,12.8,7.1,19.2,10.6c3.1,1.7,6,3.6,9.4,4.8
	c2.1,0.8,4.3,0.9,6.5,0.8c6.1-0.2,12-1.8,17.9-3.5c7.1-2,14.3-3.9,21.8-3.5c5,0.3,9.6,1.6,13.6,4.7c3.6,2.8,7.8,3.7,12.2,4.2
	c5.8,0.7,11.6,1.7,17.4,2.4c2.4,0.3,4.7,0.6,6.9,1.3c1.6,0.5,2.5,1.5,2.7,3.1c0.2,1.7-0.9,2.6-2.2,3.3c-1.4,0.8-3.1,0.7-4.7,1
	c-1,0.2-2,0.3-2.7,1c-2.6,2.4-5.9,3.7-9.1,5c-0.9,0.4-1.8,1.1-2.4,1.9c-4.5,5.4-10.6,8.3-16.9,10.8c-5.6,2.2-11.2,4.1-16.1,7.7
	c-2.3,1.7-4,3.8-5.4,6.2c-2,3.4-3.8,6.9-6.4,9.9c-2.2,2.7-1.4,6-1.4,9.1c0,0.5,0.2,1.1,0.3,1.6c0.4,5.8,4.2,6.4,8.8,5.9
	c2.4-0.3,4.5-0.3,6.4,1.4c0.2,0.2,0.4,0.5,0.6,0.7c0.1,0.1,0.1,0.3,0.2,1c-2.1-1.2-4.1-2.1-6.4-1c4,0.5,6.4,2.6,7.2,6.6
	c-1.7-1.9-4.2-1.7-6.4-2.6c0.7,0.8,1.4,1.6,2.1,2.5c0.7,0.9,1.1,1.9,0.2,3.6c-1.3-3.1-3.9-3.2-6.5-3.6c0,1.6,0.3,3.2-0.5,4.6
	c-0.2,0.4-0.5,1-1,0.9c-0.7-0.2-0.4-0.8-0.4-1.3c0.2-1.7-0.4-3-1.8-4c-0.9-0.6-1.9-1.2-2.9-1c-1.5,0.3-0.5,1.7-0.8,2.6
	c-0.1,0.2-0.1,0.5-0.5,0.6c-1.2-1.2-2.2-2.7-2.9-4.3c-1.6-3.3-2.6-6.8-2.6-10.5c0-2.2-0.4-4.4-1.3-6.5c-0.6-1.5-1.6-2.2-3.3-1.9
	c-2.8,0.5-5.6,0.9-8.4,1.4c-2,0.4-3.9,1.1-5.6,2.3c-1.1,0.8-2.2,1.5-3.4,2.3c-3.8,2.4-5,6.3-3.1,10.4c0.2,0.3,0.3,0.7,0.5,1
	c1.7,4,4.6,6.1,9.1,5.7c1.6-0.1,3.2,0.1,4.8,0.3c2.1,0.3,3,1.3,3.2,3.7c-1.7-2.3-3.5-0.6-5.3-0.5c3.5,1.4,4.5,3.3,3.1,6.3
	c-1.4-2.7-3.9-3.4-7-3.8c1.8,1.3,3.9,1.6,4,3.8c0,1.3,0.4,2.6-0.6,4.3c-1.1-2.9-3-4.4-5.8-4.7c0.6,1.5,1.4,3,0.2,4.9
	c-1.1-1.4-2.1-2.7-3.4-3.7c-1.2-1-2.5-1.8-4.1-2.1c-2-0.3-3.3-1.5-4-3.4c-1.3-3.2-2.5-6.4-4.6-9.2c-1.2-1.6-1.5-3.6-1.5-5.6
	c0-2.2,0-4.3,0-6.5c0-1.5-0.5-2.5-1.7-3.5c-3.8-3.3-8.4-4.6-13.3-5c-6.6-0.5-12.9-1.7-18.7-5.1c-3.9-2.3-8.2-2.4-12.5-1.4
	c-1,0.2-1.5,0.6-1.3,1.7c0.5,2.9,1,5.8,2.2,8.5c2.3,4.8,6.3,7.1,11.4,7.6c3.2,0.3,5,1.6,5.7,4.7c-0.5,0.4-0.8-0.5-1.2-0.3
	c0.2,1.1,1.1,2.1,0.6,3.6c-1.2-2.1-3-2.7-5.3-2.3c1,1,2,1.8,2.6,3c0.2,0.4,0.4,0.8,0.2,1.2c-0.4,0.6-0.8,0-1.1-0.1
	c-1-0.5-2.3-0.8-3.2-0.6c-1.7,0.4,0.7,1.7-0.6,2.6c-2.1-1.9-5.1-2.5-7.4-4.3c-0.9-0.7-1.2-0.5-1.4,0.6c-0.2,1.2-0.2,2.6-1,3.9
	c-0.9-1.4-1-2.9-1.2-4.3c-0.6-4.3-2.2-7.8-5.7-10.6c-2.3-1.8-3.2-4.5-3.3-7.4c0-1,0-2.1-0.1-3.1c-0.1-2.6-0.8-4.6-3-6.5
	c-5-4.3-8.5-9.9-11.3-15.8c-1.5-3.1-3.4-4.9-6.5-6.2c-11.7-5-23.6-9.2-36.2-11.3c-12.2-2-24.3-1.6-36.4,0.7
	c-7.3,1.4-14.6,2.9-21.7,5.4c-6.2,2.2-11.8,5.5-16,10.8c-6.2,8-5,16.4,2,22.7c4.3,3.9,9.6,5.4,15.4,5.7
	C177.1,223.9,180.1,223.4,183.5,223.2z"/>
</svg>
