<?xml version="1.0" encoding="utf-8"?>
<!-- Generator: Adobe Illustrator 24.0.0, SVG Export Plug-In . SVG Version: 6.00 Build 0)  -->
<svg version="1.1" id="Layer_1" xmlns="http://www.w3.org/2000/svg" xmlns:xlink="http://www.w3.org/1999/xlink" x="0px" y="0px"
	 viewBox="0 0 500 500" style="enable-background:new 0 0 500 500;" xml:space="preserve">
<style type="text/css">
	.st0{fill:#D58E9F;}
	.st1{opacity:0.7;}
	.st2{opacity:0.7;fill:#D58E9F;}
</style>
<g>
	<g>
		<path class="st0" d="M217.2,218.2c-2.8-3.4-6.7-6-10.9-7.3c-5.7-1.8-11.9-1.3-17.6,0.4c-5.7,1.6-11.1,4.4-16.4,7.1
			c-4,2.1-8,4.1-12,6.2c-5.2,2.7-10.6,5.4-14.9,9.5s-7.6,9.5-7.6,15.4c0.2-2.8,2.6-5,5.3-5.8c2.7-0.8,5.6-0.3,8.3,0.4
			c2.7,0.7,5.3,1.5,7.8,2.6c-2.1,1.6-4.5,0.5-7,1.5c6.1,0.6,12.1,3.6,18,5.1c6.9,1.7,13.5,4.7,20.5,6.4c6.9,1.7,14.6,2.1,20.9-1.2
			c9.5-4.9,13.7-17.2,11.4-27.6L217.2,218.2z"/>
	</g>
	<g>
		<path class="st0" d="M192.3,222.5c-2-5.4-1.7-11.6,0.8-16.8c2.5-5.2,7.2-9.3,12.7-11.1c0.4-0.1,0.8-0.3,1.3-0.1
			c0.4,0.1,0.7,0.5,1,0.8c2.7,3.5,2.9,8.4,2.9,12.8c0,6.8-0.2,14.2-4.5,19.4L192.3,222.5z"/>
	</g>
	<g>
		<path class="st0" d="M185.4,253.9c2.6,8.1,6.1,15.9,10.4,23.3c0.6,1.1,1.3,2.2,2.4,2.8c1.7,0.9,3.7,0.3,5.5,0
			c3.8-0.7,7.8-0.4,11.7,0.1c6.8,0.8,11.1,3.2,17.5,5.8c6.7,2.8,12.1,3.5,18.1,2.7c7.1-0.9,15.3-3.3,20.8-6.1
			c5.4-2.9,9.8-8,10.7-14.1c0.9-6.1-1.7-12.2-5.2-17.4c-7.5-11.3-18.7-19.6-29.6-27.7c-2.7-2-5.4-3.9-8.3-5.5
			c-7-3.8-15.5-5.4-23.1-3.1s-14.2,8.7-15.6,16.6L185.4,253.9z"/>
	</g>
	<g class="st1">
		<path class="st0" d="M182.9,218.2c-0.7-8.3-1-17.1,3-24.3c1-1.9,2.9-3.8,4.9-3.2c1.1,0.3,1.8,1.3,2.4,2.2
			c2.3,3.7,3.4,8.1,3.7,12.4c0.3,4.4-0.1,8.7-0.5,13.1L182.9,218.2z"/>
	</g>
	<g>
		<path class="st0" d="M199.3,274.5c-2.5,4.4-5,8.8-7.5,13.2c-0.4,0.7-0.9,1.5-1.5,2c-1.7,1.5-4.3,1-6.5,1.3
			c-2.5,0.2-4.9,1.4-6.7,3.3c0.8,0,1.5,0,2.3,0c-0.6,0.3-1.1,0.9-1.3,1.5c0.8-0.3,1.7-0.5,2.5-0.4c-0.1,0.3,0,0.6,0.1,0.9
			c3.2-0.2,6.5-0.4,9.7-0.6c0.7-0.1,1.4-0.1,2-0.4c0.6-0.3,1.1-0.9,1.5-1.4c4.1-5.4,7.5-11.4,10-17.8L199.3,274.5z"/>
	</g>
	<g>
		<path class="st0" d="M267.6,279.3c0.7,1.4,1.4,2.8,2,4.2c0.3,0.6,0.6,1.3,0.5,2c-0.1,0.8-0.6,1.5-1.1,2.1c-2.9,3.5-6,6.8-9.1,10.1
			c-0.5,0.5-1,1-1.7,1.2c-0.6,0.2-1.2,0.1-1.8,0.1c-2.3,0-4.5,1-6.1,2.7c0.5-0.2,1.2-0.3,1.7-0.1c0.5,0.6,1,1.2,1.6,1.8
			c2.1-0.5,4.3,0.2,6.5-0.2c2.7-0.6,4.7-2.9,6.4-5.1c3.2-4,6.4-8.1,9.5-12.1c0.3-0.3,0.5-0.7,0.6-1.1c0.1-0.5,0-1-0.1-1.4
			c-0.5-1.7-1.3-3.3-2.4-4.6L267.6,279.3z"/>
	</g>
	<g class="st1">
		<path class="st0" d="M191.9,262.6c-1.6,1.6-3.2,3.4-4.6,5.2c-0.5,0.6-1,1.3-1.7,1.6c-0.4,0.1-0.8,0.2-1.2,0.2
			c-1.5,0.1-2.9,0.2-4.4,0.2c-1.8,0.1-3.8,0.2-5.4,1.1c1.1,0.2,2.1,0.6,3.1,1c-0.7,0.1-1.4,0.1-2.1,0.2c3.8,0.3,7.7,0.5,11.6,0.6
			c0.5,0,1.1,0,1.6-0.2c0.6-0.2,1-0.8,1.4-1.2c2-2.5,4-4.9,5.9-7.5L191.9,262.6z"/>
	</g>
	<g>
		<path class="st0" d="M279.4,263.6c13.9,4.4,27.3,10.2,40.7,15.9c3.9,1.7,10.9,6.4,14.7,8.4c7.6,4.1,11.3,6.6,18.3,11.8
			c7.8,5.8,16,11,24.5,15.8c2.8,1.6,5.7,3.2,7.7,5.6c-9.3-2.8-18.2-6.8-26.5-11.8c-4.3-2.6-8.3-5.5-12.7-8
			c-3.2-1.8-10.3-6.7-13.5-8.5c-19.6-10.8-35.3-15.6-55.7-22.9L279.4,263.6z"/>
	</g>
	<polygon class="st2" points="171,248.4 152.1,248 149.5,243.6 170.3,246 	"/>
</g>
</svg>
