<?xml version="1.0" encoding="utf-8"?>
<!-- Generator: Adobe Illustrator 23.0.4, SVG Export Plug-In . SVG Version: 6.00 Build 0)  -->
<svg version="1.1" id="Layer_1" xmlns="http://www.w3.org/2000/svg" xmlns:xlink="http://www.w3.org/1999/xlink" x="0px" y="0px"
	 viewBox="0 0 600 400" style="enable-background:new 0 0 600 400;" xml:space="preserve">
<style type="text/css">
	.st0{fill:#38A2A0;}
</style>
<path class="st0" d="M419.9,70.8C419.9,70.8,419.9,70.8,419.9,70.8C419.9,70.8,419.8,70.8,419.9,70.8c-0.4-0.1-0.9-0.2-1.4-0.2
	c0,0,0,0,0,0c-0.5-0.1-1-0.1-1.5-0.1c0,0,0,0,0,0c-2.1-0.1-4.5,0.1-7.1,0.4c0,0,0,0-0.1,0c-0.6,0.1-1.2,0.2-1.9,0.3c0,0-0.1,0-0.1,0
	c-0.6,0.1-1.2,0.2-1.9,0.4c0,0-0.1,0-0.1,0c-0.6,0.1-1.3,0.3-1.9,0.4c0,0,0,0-0.1,0c-1.3,0.3-2.7,0.7-4,1.1c0,0-0.1,0-0.1,0
	c-0.6,0.2-1.2,0.4-1.9,0.6c-0.1,0-0.1,0-0.2,0.1c-0.6,0.2-1.2,0.4-1.8,0.6c-0.1,0-0.1,0.1-0.2,0.1c-0.6,0.2-1.1,0.5-1.7,0.7
	c-0.1,0-0.1,0.1-0.2,0.1c-0.6,0.2-1.1,0.5-1.7,0.8c0,0-0.1,0-0.1,0.1c-0.6,0.3-1.2,0.6-1.7,0.9c-16.9,8.9-45,38.7-48.4,41.8
	c-1,0.9-2.4,1.8-4.1,2.8l0,0c-0.8,0.5-1.7,1-2.6,1.6c0,0-0.1,0.1-0.1,0.1c-0.3,0.2-0.7,0.4-1,0.6c-0.1,0-0.1,0.1-0.2,0.1
	c-0.4,0.3-0.8,0.5-1.2,0.8c0,0,0,0-0.1,0c-0.4,0.3-0.8,0.5-1.1,0.8c-0.1,0.1-0.2,0.1-0.3,0.2c-0.4,0.3-0.8,0.6-1.1,0.9
	c0,0-0.1,0.1-0.1,0.1c-0.4,0.3-0.8,0.7-1.2,1.1c-0.1,0.1-0.2,0.2-0.3,0.3c-0.3,0.3-0.7,0.6-1,1c-0.1,0.1-0.2,0.2-0.3,0.3
	c-0.4,0.4-0.8,0.9-1.3,1.3c-0.1,0.1-0.2,0.2-0.2,0.3c-0.3,0.4-0.7,0.8-1,1.2c-0.1,0.1-0.1,0.1-0.2,0.2c3.6-11,3.4-21.3,2.6-24.5
	c0-0.2-0.1-0.4-0.1-0.6c0-0.1,0-0.2,0-0.2c0-0.2,0-0.3,0-0.5c0-0.1,0-0.2,0-0.3c0-0.2,0-0.3,0-0.5c0-0.1,0-0.2,0-0.3
	c0-0.2,0-0.3,0-0.5c0-0.1,0-0.2,0-0.4c0-0.2,0-0.4,0-0.6c0-0.1,0-0.3,0-0.4c0-0.2,0-0.4,0.1-0.6c0-0.1,0-0.2,0-0.4
	c0-0.3,0.1-0.6,0.1-0.8c0-0.1,0-0.1,0-0.2c0.1-0.3,0.1-0.7,0.2-1c0-0.1,0-0.2,0.1-0.4c0-0.2,0.1-0.5,0.1-0.7c0-0.1,0.1-0.3,0.1-0.4
	c0-0.2,0.1-0.5,0.1-0.7c0-0.1,0.1-0.3,0.1-0.4c0.1-0.2,0.1-0.5,0.2-0.7c0-0.1,0.1-0.3,0.1-0.4c0.1-0.2,0.1-0.5,0.2-0.7
	c0-0.1,0.1-0.2,0.1-0.4c0.1-0.3,0.1-0.6,0.2-0.9c0-0.1,0-0.2,0.1-0.2c0.3-1.1,0.6-2.3,0.9-3.4c0,0,0,0,0,0c0-0.1,0.1-0.1,0.1-0.2
	c0.1-0.1,0.2-0.3,0.3-0.4c0.1-0.1,0.2-0.2,0.2-0.4c0.2-0.3,0.3-0.5,0.5-0.8c0,0,0-0.1,0.1-0.1c0.2-0.3,0.3-0.5,0.5-0.8
	c0.1-0.1,0.1-0.2,0.2-0.2c0.1-0.2,0.2-0.4,0.4-0.6c0.1-0.1,0.1-0.2,0.2-0.3c0.1-0.2,0.3-0.4,0.4-0.6c0-0.1,0.1-0.2,0.1-0.2
	c0.2-0.3,0.3-0.5,0.5-0.8c0,0,0-0.1,0.1-0.1c0.1-0.2,0.3-0.5,0.4-0.7c0-0.1,0.1-0.2,0.1-0.2c0.1-0.2,0.2-0.4,0.3-0.5
	c0.1-0.1,0.1-0.2,0.2-0.2c0.1-0.2,0.2-0.4,0.4-0.6c0-0.1,0.1-0.1,0.1-0.2c0.1-0.2,0.3-0.5,0.4-0.7c0-0.1,0.1-0.1,0.1-0.2
	c0.1-0.2,0.2-0.3,0.3-0.5c0-0.1,0.1-0.2,0.1-0.2c0.1-0.2,0.2-0.3,0.3-0.5c0-0.1,0.1-0.1,0.1-0.2c0.1-0.2,0.2-0.4,0.3-0.5
	c0,0,0-0.1,0.1-0.1c0.1-0.2,0.2-0.4,0.3-0.6c0-0.1,0.1-0.1,0.1-0.2c0.1-0.1,0.1-0.3,0.2-0.4c0-0.1,0.1-0.1,0.1-0.2
	c0.1-0.1,0.1-0.2,0.2-0.4c0-0.1,0.1-0.1,0.1-0.2c0.1-0.2,0.1-0.3,0.2-0.5c0,0,0,0,0,0c0.1-0.2,0.1-0.3,0.2-0.4c0,0,0-0.1,0-0.1
	c0-0.1,0.1-0.2,0.1-0.3c0,0,0-0.1,0-0.1c0-0.1,0-0.2,0.1-0.3c0,0,0-0.1,0-0.1c0-0.1,0-0.2,0-0.3c0,0,0,0,0,0c0-0.1,0-0.1,0-0.2
	c0,0,0,0,0-0.1c0,0,0-0.1-0.1-0.1c0,0,0,0,0-0.1c0,0-0.1-0.1-0.1-0.1c0,0,0,0,0,0c-0.1,0-0.1-0.1-0.2-0.1c0,0,0,0-0.1,0
	c-0.1,0-0.1,0-0.2,0c0,0-0.1,0-0.1,0c-0.1,0-0.1,0-0.2,0c0,0-0.1,0-0.1,0c-0.1,0-0.2,0.1-0.3,0.1c0,0,0,0-0.1,0
	c-0.1,0-0.3,0.1-0.4,0.2c0,0-0.1,0-0.1,0.1c-0.1,0.1-0.2,0.1-0.4,0.2c-0.1,0-0.1,0.1-0.2,0.1c-0.1,0.1-0.3,0.1-0.4,0.2
	c-0.1,0-0.1,0.1-0.2,0.1c-0.2,0.1-0.4,0.2-0.6,0.4c-12.6,8-30,32.2-36.2,54.8c-1.3,4.9-4.9,14.6-8.2,23.1c-0.6-0.6-1.3-1.3-2.2-2.1
	c-0.1,0-0.1-0.1-0.2-0.1c-0.1-0.1-0.3-0.2-0.4-0.4c-0.1-0.1-0.2-0.2-0.3-0.2c-0.1-0.1-0.3-0.2-0.4-0.3c-0.2-0.2-0.4-0.3-0.6-0.5
	c-0.1-0.1-0.3-0.2-0.4-0.3c-0.2-0.1-0.3-0.3-0.5-0.4c-0.1-0.1-0.2-0.2-0.4-0.3c-0.2-0.1-0.4-0.3-0.6-0.4c-0.1-0.1-0.2-0.2-0.3-0.2
	c-0.3-0.2-0.6-0.4-0.9-0.7c-0.1-0.1-0.2-0.1-0.2-0.2c-0.2-0.2-0.5-0.3-0.7-0.5c-0.1-0.1-0.2-0.1-0.3-0.2c-0.3-0.2-0.5-0.4-0.8-0.5
	c-0.1-0.1-0.2-0.1-0.2-0.2c-0.4-0.2-0.7-0.5-1.1-0.7c-0.1,0-0.1-0.1-0.2-0.1c-0.3-0.2-0.6-0.4-0.9-0.5c-0.1-0.1-0.2-0.1-0.3-0.2
	c-0.3-0.2-0.7-0.4-1-0.5c-0.1,0-0.1-0.1-0.2-0.1c-0.4-0.2-0.8-0.4-1.2-0.6c-0.1,0-0.2-0.1-0.2-0.1c-0.3-0.2-0.7-0.3-1-0.5
	c-0.1-0.1-0.2-0.1-0.3-0.2c-0.4-0.2-0.8-0.3-1.1-0.5c-0.1,0-0.1,0-0.2-0.1c-0.4-0.2-0.9-0.3-1.3-0.5c-0.1,0-0.2-0.1-0.3-0.1
	c-0.4-0.1-0.7-0.2-1.1-0.4c-0.1,0-0.2-0.1-0.4-0.1c-0.4-0.1-0.8-0.3-1.3-0.4c0,0-0.1,0-0.1,0c-0.5-0.1-0.9-0.2-1.4-0.3
	c-0.1,0-0.2,0-0.3-0.1c-0.4-0.1-0.7-0.1-1.1-0.2c-0.1,0-0.3,0-0.4-0.1c-0.5-0.1-0.9-0.1-1.4-0.2c0,0-0.1,0-0.1,0
	c-0.5-0.1-1-0.1-1.5-0.1c-0.1,0-0.3,0-0.4,0c-0.4,0-0.7,0-1.1,0c-0.1,0-0.3,0-0.4,0c-0.5,0-1,0-1.5,0.1c-16.5,1.1-17.7,8.8-25.4,8.9
	c0,0,0,0,0,0c-0.3,0-0.7,0-1,0c-0.1,0-0.1,0-0.2,0c-0.4,0-0.7-0.1-1.1-0.1c-9.9-1.5-41.2-2.4-54.2-1c-3.8,0.4,5.2,4.8,12.2,4.4
	c7.1-0.4,36.1-0.8,41.6,3.4c0.5,0.4,0.9,0.7,1.4,1.1c0,0,0,0,0,0c0.1,0,0.1,0.1,0.2,0.1c0,0,0,0,0,0c3,2.6,5.7,5.9,7.8,9.7
	c0,0,0,0.1,0,0.1c0.1,0.1,0.1,0.2,0.2,0.3c0,0,0,0,0,0c0.5,1,1,2,1.4,3c0.1,0.3,0.2,0.5,0.3,0.8c0.1,0.3,0.3,0.7,0.4,1.1
	c0.3,0.7,0.5,1.4,0.7,2.2c1,3.3,3,7.6,5.2,11.7c0,0,0,0,0,0c0.2,0.3,0.3,0.6,0.5,0.9c0.1,0.1,0.2,0.3,0.2,0.4
	c0.1,0.1,0.2,0.3,0.2,0.4c0.1,0.2,0.3,0.4,0.4,0.6c0,0.1,0.1,0.1,0.1,0.2c2.5,4.2,5.1,7.8,7,9.4c4,3.4,9.9,21.4,20.8,30
	c3.7,2.9,9.2,9.5,15.1,16.5c-8.5,3.4-18.8,11-26.9,18.2c-0.1,0.1-0.1,0.1-0.2,0.2c-0.5,0.4-1,0.8-1.4,1.3c-0.1,0.1-0.2,0.2-0.3,0.3
	c-0.5,0.4-0.9,0.8-1.4,1.3c-0.1,0.1-0.1,0.1-0.2,0.2c-0.5,0.5-1,0.9-1.5,1.4c-0.1,0.1-0.2,0.2-0.4,0.4c-0.3,0.3-0.6,0.6-1,0.9
	c-0.2,0.2-0.4,0.4-0.6,0.6c-0.2,0.2-0.5,0.5-0.7,0.7c-0.2,0.2-0.4,0.4-0.6,0.6c-0.2,0.2-0.4,0.4-0.6,0.7c-0.2,0.2-0.3,0.3-0.5,0.5
	c-0.4,0.4-0.7,0.7-1,1.1c-3.9,4.3-6.7,7.7-8.6,10.3c0,0,0,0,0,0c0,0-0.1,0.1-0.1,0.1c-0.1,0.2-0.2,0.3-0.3,0.5
	c-0.1,0.1-0.1,0.2-0.2,0.3c-0.1,0.2-0.2,0.3-0.3,0.5c-0.1,0.1-0.1,0.2-0.2,0.2c-0.1,0.2-0.2,0.3-0.3,0.5c0,0-0.1,0.1-0.1,0.1
	c-0.5,0.8-0.9,1.5-1.2,2.2c0,0,0,0,0,0c-0.1,0.2-0.1,0.3-0.2,0.4c0,0,0,0,0,0c-0.1,0.1-0.1,0.3-0.2,0.4c0,0,0,0,0,0
	c-2,5.9,8.4,0.6,13.1-2c0,0,0,0,0,0c0.1-0.1,0.2-0.1,0.3-0.2c0,0,0,0,0.1,0c0.1,0,0.2-0.1,0.2-0.1c0,0,0,0,0.1,0
	c0.3-0.2,0.6-0.3,0.8-0.5c0,0,0.1,0,0.1-0.1c0,0,0.1,0,0.1-0.1c0,0,0.1,0,0.1,0c0,0,0.1,0,0.1-0.1c0,0,0,0,0,0c0,0,0.1,0,0.1,0
	c0,0,0,0,0,0c0.1,0,0.1-0.1,0.1-0.1c0,0,0,0,0,0c-20.1,34.3,5.2,18.5,5.2,18.5c-11.3,26.4,15.6-0.5,15.6-0.5
	c-7.3,30.6,10.7,8.5,10.7,8.5c-6.7,21.4,9.1,2.1,9.1,2.1c0,0.3,0,0.5,0,0.8c0,0.1,0,0.1,0,0.2c0,0.2,0,0.3,0,0.5c0,0.1,0,0.1,0,0.2
	c0,0.1,0,0.3,0,0.4c0,0.1,0,0.1,0,0.2c0,0.1,0,0.3,0,0.4c0,0.1,0,0.1,0,0.2c0,0.1,0,0.2,0,0.3c0,0,0,0.1,0,0.1c0,0.1,0,0.3,0.1,0.4
	c0,0,0,0,0,0c0,0.1,0.1,0.3,0.1,0.4c0,0,0,0,0,0c0,0.1,0.1,0.2,0.1,0.3c0,0,0,0.1,0,0.1c0,0.1,0.1,0.1,0.1,0.2c0,0,0,0,0,0.1
	c0,0,0.1,0.1,0.1,0.1c0,0,0,0,0,0.1c0,0,0.1,0.1,0.1,0.1c0,0,0,0,0,0c0,0,0.1,0.1,0.1,0.1c0,0,0,0,0,0c0.1,0,0.2,0.1,0.4,0
	c0,0,0,0,0,0c0.1,0,0.1,0,0.2,0c0,0,0,0,0.1,0c0.1,0,0.1,0,0.2-0.1c0,0,0,0,0.1,0c0.1,0,0.1-0.1,0.2-0.1c0,0,0,0,0,0
	c0.1,0,0.1-0.1,0.2-0.2c0,0,0,0,0,0c3.2-2.4,8.4-13.2,8.4-13.2c1.8,17.5,6.5-12.5,6.5-12.5c3.6,13.9,6.3-4.4,6.3-4.4
	c4.5,5.7,4.4-14.1,4.4-14.1c0.1,0,0.2,0.1,0.3,0.1c0,0,0.1,0,0.1,0c0.1,0,0.2,0,0.2,0.1c0,0,0.1,0,0.1,0c0.1,0,0.1,0,0.2,0
	c0,0,0.1,0,0.1,0c0.1,0,0.1,0,0.2,0c0,0,0.1,0,0.1,0c0.1,0,0.1,0,0.2,0c0,0,0.1,0,0.1,0c0.1,0,0.1,0,0.2,0c0,0,0.1,0,0.1,0
	c0.1,0,0.1,0,0.2-0.1c0.1,0,0.1,0,0.2-0.1c0.1,0,0.1,0,0.2-0.1c0.1,0,0.1,0,0.2-0.1c0,0,0.1-0.1,0.1-0.1c0.1,0,0.1-0.1,0.2-0.1
	c0,0,0.1,0,0.1-0.1c0.3-0.2,0.5-0.4,0.7-0.7c0,0,0,0,0,0c0.1-0.1,0.1-0.2,0.2-0.3c0,0,0-0.1,0.1-0.1c0.1-0.1,0.1-0.2,0.2-0.3
	c0,0,0-0.1,0.1-0.1c0.1-0.1,0.1-0.2,0.2-0.4c0,0,0-0.1,0.1-0.1c0.1-0.1,0.1-0.3,0.2-0.4c0,0,0-0.1,0.1-0.1c0.1-0.1,0.1-0.3,0.2-0.5
	c0,0,0-0.1,0-0.1c0.1-0.2,0.1-0.3,0.2-0.5c0,0,0-0.1,0-0.1c0.5-1.5,0.8-3.5,0.9-6c0,0,0,0,0-0.1c0-0.3,0-0.7,0-1c0,0,0-0.1,0-0.1
	c0-0.3,0-0.7,0-1c0-0.1,0-0.1,0-0.2c0-0.4,0-0.7,0-1.1c0-0.1,0-0.1,0-0.2c0-0.4,0-0.8,0-1.1c0-0.1,0-0.1,0-0.2c0-0.4,0-0.8-0.1-1.2
	c0,0,0-0.1,0-0.1c-0.1-2-0.3-4.1-0.6-6.5c-0.1-0.7-0.3-1.3-0.6-1.9c3.9-11.3,5.5-26,0.6-41.8c-0.3-0.8-0.5-1.6-0.8-2.4
	c0-0.1,0-0.1-0.1-0.2c6,0.6,5.5-7.6,5.5-7.6c5.7,0.3,5.2-3.4,5.2-3.4c4.6,0.3,7-5.4,7-5.4c8.5,0,7.9-6.3,7.9-6.3
	c12,0,11.5-10.3,11.5-10.3c11.5-0.3,6.6-9.5,6.6-9.5c8.3-2.3,5.2-13.8,5.2-13.8c7.4-3.4,5.2-11.5,5.2-11.5
	c8.6-4,15.2-19.8,15.2-19.8c12.6-7.4,10-16,10-16c12.6-4.9,6.9-16.6,6.9-16.6C427.3,76.3,425.8,72,419.9,70.8z"/>
</svg>
