<?xml version="1.0" encoding="utf-8"?>
<!-- Generator: Adobe Illustrator 24.0.0, SVG Export Plug-In . SVG Version: 6.00 Build 0)  -->
<svg version="1.1" id="Layer_1" xmlns="http://www.w3.org/2000/svg" xmlns:xlink="http://www.w3.org/1999/xlink" x="0px" y="0px"
	 viewBox="0 0 500 500" style="enable-background:new 0 0 500 500;" xml:space="preserve">
<style type="text/css">
	.st0{opacity:0.6;}
	.st1{fill:#F47C76;}
</style>
<g>
	<g class="st0">
		<path class="st1" d="M255.4,280.5c-8-7.1-19.2-10.6-29.8-9.1c-4.6,0.6-20,3.6-22.4,7.6c-2.1,3.4-4,13.4-3.5,17.4
			c1.9,14.1,19.6,20.9,27.3,32.8c-7.6,1.7-15.2,3.4-22.8,5.1c-2.8,0.6-6.2,2.1-6,4.9c0.2,2.9,3.9,3.9,6.8,4.1
			c23.7,1.5,47.4,2.1,71.2,1.7c1.8,0,3.7-0.1,5.3-1c3.4-1.9,3.9-6.4,3.7-10.3c-0.4-12.8-3.3-25.6-8.5-37.3L255.4,280.5z"/>
	</g>
	<g class="st0">
		<path class="st1" d="M171.4,224.7c-8.8,28.3-8.5,63-15.7,91.8c-1.4,5.8-3.3,11.8-7.8,15.8c-3.4,3-8.7,0-12.4,2.5
			s-6.9,7.2-5.4,11.4c18,1.5,31.3,1.7,49.2-0.8c0.3-6.3,1.8-9.3-0.2-17.7c-6.6-27.2,5.1-63.6,14.3-90L171.4,224.7z"/>
	</g>
	<g>
		<path class="st1" d="M312.8,283c4.5,11.3,8.9,22.6,13.4,33.9c2,5.2,4.5,10.2,7.9,14.6c6.2,8,17.2,11.8,24.5,10.7
			c7.3-1.1,13.3-4.2,16.4-11c3.7-8-1.2-20-3.9-28.5c-2.6-8.4-6.5-19.5-8-28.3c-1.5-8.7,0.1-18.6,6.7-24.5c5.9-5.2,14.7-6.2,22.3-4.1
			c7.6,2.1,14.2,6.7,20.3,11.7c12.1,9.8,22.9,21.2,32.1,33.7c1.5,2.1,3.1,5,1.5,7.1c-1.4,1.9-4.4,1.8-6.5,0.9
			c-17.2-7.4-21.5-27.6-49.1-40.5c-4.5-2.1-10.3-3.2-13.5,1.5c-2.5,3.7-2.2,9.3-1.6,14.2c3.1,22.3,8.3,26.4,11.4,38.5
			c3.2,12.1,2.9,23.3-5.3,32.7c-7,7.9-18.4,10.6-29,10.5C333,356,313.8,348,300,334.3L312.8,283z"/>
	</g>
	<g>
		<path class="st1" d="M177.3,160.8c33.1,8.2,63.7,26.1,87.1,51c7.2,7.6,13.7,15.9,20,24.2c14.5,19,28.6,39.4,32.8,62.9
			c1.8,10,1.4,21-3.9,29.7c-6.1,10-17.7,15.2-29.1,17.8c-13.9,3.1-28.5,3-42.4-0.3c-5.9-1.4-9-8.7-14.1-12
			c-16-10.4-7.1-23.2-17.2-39.4c-6.6-10.6-32.3-22.1-38.7-32.9c-6-10.1-9.5-21.5-13-32.7c-4.1-13.2-8.2-26.4-12.3-39.6L177.3,160.8z
			"/>
	</g>
	<g>
		<path class="st1" d="M249.9,299.9c-8-7.1-19.2-10.6-29.8-9.1c-4.6,0.6-9.5,2.4-11.9,6.4c-2.1,3.4-1.8,7.8-1.3,11.8
			c1.9,14.1,6.9,27.7,14.7,39.6c-7.6,1.7-15.2,3.4-22.8,5.1c-2.8,0.6-6.2,2.1-6,4.9c0.2,2.9,3.9,3.9,6.8,4.1
			c23.7,1.5,47.4,2.1,71.2,1.7c1.8,0,3.7-0.1,5.3-1c3.4-1.9,3.9-6.4,3.7-10.3c-0.4-12.8-3.3-25.6-8.5-37.3L249.9,299.9z"/>
	</g>
	<g>
		<path class="st1" d="M177,231.1c-7.8,32.7-14.3,65.7-19.6,98.9c-0.5,2.8-1,5.9-3,8c-3.6,3.8-9.9,2.7-14.6,0.6
			c-4.7-2.2-9.6-5.3-14.7-4.5c-8.5,1.2-12.1,11.2-14,19.6c0,4.9,11-7.5,17.3-6.3c-4.8,3.3-8.2,8.7-9,14.4
			c-0.1,2.8,16.8-6.3,25.3-4.4c4,0.9,7.9,2.6,12,3.2c4.1,0.6,8.7-0.2,11.4-3.4c1.7-2,2.3-4.5,3-7c8.5-32.4,20.1-64,34.6-94.2
			L177,231.1z"/>
	</g>
	<g>
		<g>
			<path class="st1" d="M202,176c-19.5-12.9-15.6-21.4-30.2-33.5c-8.9-7.4-22.9-12-34.3-13c-9.6-0.8-19.9,1.1-27.1,7.4
				c-7.2,6.3-10.4,17.8-5.4,26c0.7,1.1,1.5,2.2,1.8,3.5c0.5,2.5-0.5,6.6-2,8.6c-4.9,6.4-9.1,14.4-3.4,20.2c1.9,1.9,4.7,3.2,5.7,5.8
				c0.5,1.3,1,3.4,1.4,4.8c1.6,5.2,7.7,7.2,13,8.1c9.8,1.6,18-0.4,27.6-2.7c12.8-3,25.6-6.2,38.3-9.3c4.9-1.2,10-2.6,14-5.8
				s6.4-8.8,4.4-13.5L202,176z"/>
		</g>
		<g>
			<path class="st1" d="M130.3,131.3c-6.1,1.2-11.8,7.8-15.4,15.4c-3.6,7.6-5.3,16.2-6.7,24.7c-0.5,2.7-0.9,5.5-0.8,8.2
				c0.1,3.1,1,5.9,1.9,8.7c1.5,4.7,3.1,9.4,4.6,14.2c0.6,1.9,1.3,3.9,2.3,5.4c1.6,2.3,4,3.3,6.3,4.1c2.2,0.8,4.4,1.5,6.8,0.7
				c2.1-0.7,4.1-2.5,5.9-4.2c5.4-5.1,10.7-10.7,14.8-17.7c4.1-7,7-15.7,6.6-23.9L130.3,131.3z"/>
		</g>
	</g>
</g>
</svg>
