<?xml version="1.0" encoding="utf-8"?>
<!-- Generator: Adobe Illustrator 24.0.0, SVG Export Plug-In . SVG Version: 6.00 Build 0)  -->
<svg version="1.1" id="Layer_1" xmlns="http://www.w3.org/2000/svg" xmlns:xlink="http://www.w3.org/1999/xlink" x="0px" y="0px"
	 viewBox="0 0 500 500" style="enable-background:new 0 0 500 500;" xml:space="preserve">
<style type="text/css">
	.st0{fill:#FFFFFF;}
	.st1{opacity:0.9;}
	.st2{opacity:0.7;fill:#FFFFFF;enable-background:new    ;}

	#end1, #end2, #tails, #tail-R, #tail-L, #wing-R, #wing-L {
	  transform-box: fill-box;
	  -webkit-backface-visibility: hidden;
	}

	@keyframes tailLAnimation {
    0%, 10% {transform: skewY(0deg) translate(0%, 0%);}
	35%, 55% {transform: skewY(10deg) translate(1%, -7%);;}
    75%, 100% {transform: skewY(0deg) translate(0%, 0%);;}
  	}
	#tail-L {
	  animation:tailLAnimation infinite ease-in-out;
	  transform-origin: bottom right;
	}

	@keyframes tailRAnimation {
    0%, 10% {transform: skewY(0deg) translate(0%, 0%);}
	35%, 55% {transform: skewY(-10deg) translate(-1%, -7%);;}
    75%, 100% {transform: skewY(0deg) translate(0%, 0%);;}
  	}
	#tail-R {
	  animation:tailRAnimation infinite ease-in-out;
	  transform-origin: bottom left;
	}

	@keyframes tailsAnimation {
    0%, 10% {transform: translate(0,0) rotate(0deg);}
    20%, 25% {transform: translate(1%, 0%) rotate(-6deg);}
	35%, 55% {transform: translate(-1%, 0%) rotate(4deg);}
    65%, 100% {transform: translate(0,0) rotate(0deg);}
  	}
  	#tails {
	  animation:tailsAnimation infinite ease-in-out;
	  transform-origin: bottom center;
	}

	@keyframes end1Animation {
    0%, 10% {transform: translate(0,0) rotate(0deg);}
    20%, 25% {transform: translate(1%, 0%) rotate(-6deg);}
	35%, 55% {transform: translate(-1%, 2%) rotate(4deg);}
    65%, 100% {transform: translate(0,0) rotate(0deg);}
  	}
  	#end1 {
	  animation:end1Animation infinite ease-in-out;
	  transform-origin: bottom center;
	}

	@keyframes end2Animation {
    0%, 10% {transform: translate(0,0) rotate(0deg);}
    20%, 25% {transform: translate(3%, -4%) rotate(-6deg);}
	35%, 55% {transform: translate(-2%, 2%) rotate(4deg);}
    65%, 100% {transform: translate(0,0) rotate(0deg);}
  	}
  	#end2 {
	  animation:end2Animation infinite ease-in-out;
	  transform-origin: bottom center;
	}

	#tail-L, #tail-R, #tails, #end1, #end2 {
	animation-duration: 18s;
}

	@keyframes wingLAnimation {
    0%, 10% {transform: skewY(0deg) translate(0%, 0%);}
	35%, 55% {transform: skewY(8deg) translate(1%, -7%);;}
    75%, 100% {transform: skewY(0deg) translate(0%, 0%);;}
  	}
	#wing-L {
	  animation:wingLAnimation 12s infinite ease-in-out;
	  transform-origin: top right;
	}

	@keyframes wingRAnimation {
    0%, 15% {transform: skewY(0deg) translate(0%, 0%);}
	40%, 60% {transform: skewY(8deg) translate(1%, -7%);;}
    80%, 100% {transform: skewY(0deg) translate(0%, 0%);;}
  	}
	#wing-R {
	  animation:wingRAnimation 12s infinite ease-in-out;
	  transform-origin: top left;
	}

</style>
<g>
	<g>
		<path class="st0" d="M402.4,227.5c-8-10.7-37.7-9.8-87.3-18.2s-124.3-30.8-170.4-23.7c-46.1,7-55.1,18.9-85.2,24.5
			S9.3,238.7,7.2,260.3s20.3,49.6,83.1,64.3c62.9,14.7,106.9,19.5,167.6,6.3s127-52.4,141.8-64.3
			C414.3,254.8,410.8,238.7,402.4,227.5z"/>
		<g id="end2">
			<g>
				<path class="st0" d="M369.4,268.4c10,1.2,22.2,5.1,30.2-1.9c5-4.3,9.6-9.6,12.1-15.7c3.1-7.8,7.8-21.6,8.4-30
					c0.9-13.5,0.3-27.9-9.6-38.8c-1.1-1.2-2.2-2.3-3.7-2.7c-3.9-1.1-7,3.1-9.2,6.5c-10.9,17-25.2,27.5-46.2,28.8
					c-6.1,0.3-18.8,4.1-20.5,17.1c-0.9,7.6,6.2,18.6,11.4,24c5.4,5.5,12.5,8.6,19.6,11.5"/>
			</g>
			<g id="end1">
				<path class="st0" d="M419.8,203.5c0-19.4-10.5-45.9-14.2-46.6c-3.7-0.7-6.9,33-18.5,41.8c-11.5,8.8,2.2,18.7,12.4,19.8
					C409.8,219.7,419.8,219,419.8,203.5z"/>
				<g id="tails">
					<g class="st1" id="tail-R">
						<path class="st0" d="M411.4,180.5c-2.1-2.8,4.1-5.9,7.6-6.5c3.5-0.6,7,0.1,10.6,0.5c9.3,1.1,19.1-0.4,27.2-5.2
							c4.3-2.6,8.1-6.1,11-10.3c3.6-5,5.5-10.4,10.1-14.7c3.6-3.3,6.9-4.2,11.2-6.3c0.8-0.4,1.7-0.9,1.9-1.8c0.3-1.7-2-2.4-3.7-2.4
							c-5.6,0-8.1-0.1-13.6-0.1c-4.3,0-8.6,0.9-12.9,0.6c-14.3-1.2-12.7-5.9-27-6.4c-5.5-0.2-15.4,3.7-19.9,6.7
							c-3.1,2.1-7.8,6.7-8.8,11.7C402.2,159.5,403.3,169.7,411.4,180.5z"/>
					</g>
					<g class="st1" id="tail-L">
						<path class="st0" d="M400.8,183.5c0.9-3.7-2.3-7.4-5.9-8.6c-3.7-1.2-7.6-0.7-11.4-0.7c-10.8,0-21.5-4.5-29.2-12.2
							c-3.8-3.9-7.2-8.7-12.5-10.2c-5.1-1.4-10-1.7-15,0c-1.2,0.4-2.4,0.9-3.7,0.8c-1.3-0.1-2.6-0.9-2.7-2.2c0-0.5,0.1-1.1,0.3-1.6
							c1.8-4.4,7.5-8.3,12.3-9c4.7-0.6,10.5-0.8,17-5.2c7.7-5.2,23.3-6.1,31.7-3.4c7.8,2.5,12.3,6,16.7,12.9
							c4.4,6.8,11.6,20.9,11.1,29.1c-0.2,3.7-0.7,7.5-2.9,10.5L400.8,183.5z"/>
					</g>
				</g>
			</g>
		</g>
	</g>
	<g id="wing-R">
	<path class="st0" d="M199.4,282.4c0,0,10.3,9.3,40,20.1c29.8,10.7,61.7,23.3,91.3,25.6s58.1-5.6,60-12.1s-4.5-5.1-25.7-7.5
		c-21.2-2.3-31-14.9-48.7-19.5c-17.6-4.6-44.1-0.9-66.3-6.5h-50.6V282.4z"/>
	</g>
	<g id="wing-L">
	<path class="st2" d="M172.2,330.4c-18.9,8.2-27.9,18.2-37.9,29.3c-7.7,8.6-14.7,16.2-8.6,18.5c6.1,2.3,13.8-8.3,25.8-8.7
		c12.1-0.4,29.8-6.1,41.5-13c11.7-6.9,38.2-26,38.2-26L172.2,330.4L172.2,330.4z"/>
	</g>
</g>
</svg>
