<?xml version="1.0" encoding="utf-8"?>
<!-- Generator: Adobe Illustrator 23.0.4, SVG Export Plug-In . SVG Version: 6.00 Build 0)  -->
<svg version="1.1" id="Layer_1" xmlns="http://www.w3.org/2000/svg" xmlns:xlink="http://www.w3.org/1999/xlink" x="0px" y="0px"
	 viewBox="0 0 600 400" style="enable-background:new 0 0 600 400;" xml:space="preserve">
<style type="text/css">
	.st0{fill:#FFFFFF;}
</style>
<path class="st0" d="M389.1,120.2c-3.1-5.5-14.1-10.3-14.2-10.3c-3.9-3.8-13.8-11.9-26.6-8.6c-16.5,4.2-27.7,25.9-33.4,31.3
	c-2.8,2.6-8.5,6.4-15.1,12.2c-9.1,5.5-15.7,13.3-18.1,17.3c-0.9,1.5-2,3.7-2.8,6c-2.3,3.1-4.4,6.2-6.2,9.3
	c-2.2,3.8-4.5,8.5-6.5,13.3c-1.2,1.7-2.4,3.3-3.4,5c-8.9,13.8-19.5,40.4-14.9,38l0,0c0,0.7,0.1,1.3,0.4,1.7c0,0-27.6,27.5-25.5,29.5
	c2.2,2,9.5-3.5,9.5-3.5s-23.6,23.8-21.3,29.1c1.5,3.5,11.1-7.1,17.4-14.8c-5.4,7.2-12.7,18.1-11.4,23.2c2,8,48.9-54.3,48.9-54.3
	s6.8,2.3,19.1-11.2c0.7,4.7,0.9,10.9,0.8,12.5c-0.1,2.2-1.2,7-2.2,9c-1,2,0,4.2,0,4.2c-0.8,1.8-0.3,5.5-0.3,5.5l2-5
	c1.7-0.4,1.3-4,2-5.8c0.7-1.8-0.8-5.9,2-2.8c2.8,3.1,3,8.5,3.6,13c0.6,4.5,3.9,3.6,3.9,3.6c1.7,1.7,2.2,6.8,2.2,6.8
	c1.1-2.6,0.1-9.2-2.4-13.9c-2.5-4.7-1.2-6.8-1.2-6.8c2.8,1.7,2,8.9,3.4,8.4c1.5-0.4,1-6.5,0.7-7.7c-0.3-1.2-7.8-7.5-10.5-11.1
	c-1.5-2-1.7-7.5-1.7-12c0.8-0.1,1.8-0.4,2.8-0.8c10.3,5.5,26.3-1.5,26.3-1.5s-0.2,5.1,1.8,7.1c0.8,0.8,2,1.2,3.1,1.3
	c1.3,2,3.1,3.8,4.5,5.2c3,2.9,9.3,13.2,9.3,13.2s0,5.2-1.2,9.4c-1.2,4.2,0.4,4.4,0.4,4.4c-0.6,1.3-0.9,5.5-0.9,5.5l2.2-5.2
	c1-0.2,1.6-6.2,2.2-8.2c0.6-2,1.6,0.4,2.7,2.7c1.1,2.2,1.9,3.7,2.8,9.2c0.9,5.5,3.7,4.6,3.7,4.6c1.9,1.8,0.8,6.8,0.8,6.8
	s1.8-2,1.1-6.9c-0.7-4.9-2.4-6.8-3.2-9.1c-0.8-2.3-0.9-4.5-0.1-3.7c0.9,0.8,1.1,4.6,2.4,4.3c1.3-0.3,0.7-2.3,0.6-3.6
	c-0.1-1.2-2.9-5.4-6.3-8.2c-3.3-2.8-6-6.6-6-6.6s-9.8-13.3-11.2-14.8c0,0,0,0,0,0c0.6-0.9,1.4-2.4,1.2-5c-0.2-4.2,9.8-12.5,17-19
	c7.1-6.5,15.4-24.1,15.4-24.1v2.5c7.6-13.4,7.6-27.5,7.6-27.5l1.2,2.7c2.1-10.7,0-22.8,0-22.8s6.2-5,7.3-15.4l0.2-1.7
	c4.9-1.5,8.7-4.5,10.3-6C387.7,120.2,389.1,120.2,389.1,120.2z"/>
</svg>
