<?xml version="1.0" encoding="utf-8"?>
<!-- Generator: Adobe Illustrator 23.0.4, SVG Export Plug-In . SVG Version: 6.00 Build 0)  -->
<svg version="1.1" id="Layer_1" xmlns="http://www.w3.org/2000/svg" xmlns:xlink="http://www.w3.org/1999/xlink" x="0px" y="0px"
	 viewBox="0 0 600 400" style="enable-background:new 0 0 600 400;" xml:space="preserve">
<style type="text/css">
	.st0{fill:#FFFFFF;}
</style>
<path class="st0" d="M371.1,246.3c0,0-20.7,1.4-48.6,1.4c-27.9,0-57.4-5.2-57.4-5.2s0.3,8.2,3.1,16.7c2.8,8.5,1.6,20-4.1,22.6
	c-5.7,2.5-14.5,2.6-13.4-1.1c0,0-6.6,0.4-4.4-4.8c0,0-5.6,0.2-2.8-4.6c2.8-4.8,1.2-5.1-2.9-12.1c-4.1-7.1-7.9-18.2-6.9-30.5l-3-1.3
	c0,0-2.9,3.6-2.4,14.7c0.4,11.1-1,20.1-8.6,21.6c-7.6,1.5-8-2.1-8-2.1s-6.1,2.6-5.8-2.3c0,0-4.1,2.5-5.5-1.9c0,0-2.1-1.4-0.9-5.5
	c1.2-4.1,2-6.4,1.7-17.1c-0.3-10.7-2.5-20.4,4.9-30c0,0-7.2-1.7-15.2-7.6c-8-5.9-7.7-9.9-12.7-13.3c-5-3.4-6.6-2.1-9.9-5.3
	c-3.3-3.2-2.8-7.4-2.8-7.4s-1.2-1.2,0-4.3c1.2-3.1,5-10.2,13.6-9.5s18.9,4.6,32.9,13.2c0,0,7.7-8,19.2-13.3s29.3-15.3,57.3-20
	c28-4.8,57.5-9.6,86.3,3.5c28.8,13.1,52.3,31.6,55.9,55.3c3.6,23.7,0.4,26.3-5.5,28.8c0,0-1,5.6-2.6,6.1c-1.7,0.5-3.6-4.4-3.6-4.4
	s-4.6,4.6-13.5,9c0,0,3.4,4.3,5.2,8.9c1.8,4.6,0.1,8.7-4.7,11.4s-8,3.8-8,3.8s3.1,13.2-7.7,18.2c-10.8,4.9-19.3,6.8-21.6,1.9
	c0,0-6.7,0.2-6.3-5c0,0-5.1-2.1-0.2-7.1c4.9-5.1,6.9-6.4,7.2-10.4C369.8,253.3,371.1,246.3,371.1,246.3z"/>
</svg>
