<?xml version="1.0" encoding="utf-8"?>
<!-- Generator: Adobe Illustrator 23.0.4, SVG Export Plug-In . SVG Version: 6.00 Build 0)  -->
<svg version="1.1" id="Layer_1" xmlns="http://www.w3.org/2000/svg" xmlns:xlink="http://www.w3.org/1999/xlink" x="0px" y="0px"
	 viewBox="0 0 600 400" style="enable-background:new 0 0 600 400;" xml:space="preserve">
<style type="text/css">
	.st0{fill:#FFFFFF;}
</style>
<g>
	<path class="st0" d="M399,120.5c-9.9,3.3-19.2,8.2-28.4,13c-2.5,1.3-4.9,2.6-7.4,3.8c-4.1,2.1-5,6.2-7.3,9.9
		c-2.9,4.5-6.5,8.4-10.8,11.6c-1.6,1.2-3.6,2.9-3.1,4.9c0.3,1.1,1.3,1.9,2.3,2.5c10,5.6,22.4,0.2,32.2-5.7
		c7.9-4.8,15.8-10.2,21.9-17.2c3-3.4,5.6-7.2,7.4-11.5c1.8-4.5,3.2-9.1,4-13.8C406.3,117.7,402.2,119.4,399,120.5z"/>
	<path class="st0" d="M496.6,88.1c-5.9-7.1-8.9-12.9-14.1-20.5c-12.8-18.5-35.2-28.5-57.5-31.3c-22.3-2.8-44.9,0.7-67.1,4.2
		c-11.6,1.8-24.7,5-36.2,7.6c-15.6,3.5-30.6,9.9-43.9,18.7c-1.4,0.9-2.8,1.9-4.4,2.1c-1.8,0.3-3.6-0.2-5.3-0.7
		c-10.7-3-22-4.1-33.1-3.4c-3.9,0.3-23.7,1-24,6.6c-0.1,2,1.4,3.8,3.1,4.8c1.7,1,3.7,1.6,5.5,2.5c3.4,1.9,5.3,6.5,5.7,10.2
		c0.6,4.7,2.1,10.1-0.7,13.9c-32.7,44.4-66.1,90.5-78.2,144.3c-3.3,14.9-5,30.1-5.6,45.3c-0.2,5.6-0.5,11.5-3.5,16.2
		c-2.5,3.7-6.4,6.1-10.1,8.6c-16.5,11.2-30.3,26.4-39.9,43.9c-2.1,3.9-3.9,9.3-0.7,12.4c9.3-12.5,23.3-21.4,38.5-24.6
		c5.5-1.2,11.3-1.6,16.6-3.6c4.8-1.8,9.1-4.8,14-6c7.9-2,21.7,3.1,28.4-1.9c6.6-4.9-0.9-13.6-5.6-18c-1.1-1.1-16-10.9-16.6-8.8
		c12-38.9,30.8-77.2,62.3-102.9c15.2-12.4,32.7-21.4,50.2-30.3c15.5-7.9,32.6-12.3,48.1-20.7c7.8-4.3,14.9-9.8,22.6-14.4
		c9.8-5.9,20.9-9.6,31.1-14.8c6.4-3.3,12.9-6.7,19.7-9c4.8-1.6,9.6-3,14.3-4.9c4.5-1.9,8.4-4.6,13.5-4.7c5.9-0.2,11.7,0.9,17.5,1.2
		c15.1,0.9,30,1.3,44.9,4.1c6.7,1.3,13.9,5,20.8,3.5C528.6,113.1,501.3,93.8,496.6,88.1z M375.4,121.8c-4.3,4.5-9.5,8.2-15,11.1
		c-5.8,3-12.1,5.3-18.6,6.7c-6.4,1.4-13,2.1-19.6,1.8c-2.5-0.1-5.1-0.4-7.6-0.7c-0.3,0-0.6-0.1-0.9-0.1c-2-0.2-4-0.4-6-1
		c-2.3-0.7-4.7-1.4-6.2-3.5c-1.3-1.9-2.1-4.8-0.7-6.8c11.1-12.5,30.6-12.5,39-27.9c-7,13.9-22.3,16.7-34.8,25.1
		c-2,1.3-2.8,4.9-2.1,7.1c0.9,3,4.3,3.8,7.1,4.2c4.1,0.7,8.3,0.9,12.4,0.7c0.1,0,0.2,0,0.3,0c0.9,0,1.8-0.1,2.6-0.2
		c5-0.4,10.1-1.1,15-2.1c9.7-1.9,19.2-5.1,27.5-10.6c6.3-4.2,14.2-11.2,16.6-18.7C382.7,112.5,379.5,117.5,375.4,121.8z"/>
</g>
</svg>
