<?xml version="1.0" encoding="utf-8"?>
<!-- Generator: Adobe Illustrator 24.0.0, SVG Export Plug-In . SVG Version: 6.00 Build 0)  -->
<svg version="1.1" id="Layer_1" xmlns="http://www.w3.org/2000/svg" xmlns:xlink="http://www.w3.org/1999/xlink" x="0px" y="0px"
	 viewBox="0 0 500 500" style="enable-background:new 0 0 500 500;" xml:space="preserve">
<style type="text/css">
	.st0{fill:#FFFFFF;}
	.st1{opacity:0.7;}
</style>
<g>
	<g>
		<path class="st0" d="M288.8,218.3c-13.9-18.4-32.1-33.4-52.8-43.5c-2.3-1.1-5.5-2-7,0c-1,1.3-0.7,3.2-0.4,4.8
			c2.8,14.7,0.4,30.4-6.4,43.6c-0.8,1.4-1.5,2.8-1.9,4.3L288.8,218.3z"/>
	</g>
	<g>
		<g>
			<path class="st0" d="M472.4,285c-1.2-2.2-3.5-3.6-5.8-4.4c-6.4-2.1-13.5-0.2-19.6-3.1c-5.4-2.5-8.5-8-11.7-13
				c-11.5-17.7-28.8-31.6-48.6-39c-22.1-8.2-46.3-8.5-70-8.6c-13.2-0.1-26.3-0.1-39.5-0.2c-12.3,1.3-24.6,2.8-37,4.1
				c-7.5,0.9-15.1,1.6-22.3,3.4c-4.7,1.1-14.1,2.2-21.3,3.3c-12.9,2.3-24.6,5.2-33.1,12.9c-4.6,4.2-6.4,9.3-6.3,16.2
				c0.1,4.9,1.4,9.8,4.4,13.8c3.1,4.3,7.3,9.5,20.2,14c15.5,5.5,23,7.3,39.4,10.5c43.5,8.6,88.2,5.9,132.4,3.2
				c36.2-1.3,82.3,0.8,117.8-6.4v0.1C473.3,290.2,473.6,287.2,472.4,285z"/>
		</g>
		<g>
			<g>
				<path class="st0" d="M230.4,271.8c8.4-9.4,9.5-14.3,8.6-24.3c-1-10.7-24.5-23.8-42.5-19.8c-17.9,4.1-23.4,4.1-32,4.5
					c-29.9,1.9-59.9-1-89.3-6.4c-3-0.6-6.7-0.9-8.4,1.6c0.2,0.2,0.5,0.3,0.8,0.6c11.8,8,23.2,15.3,35.9,21.8
					c12.5,6.4,25.2,12.5,38.1,18.4c10.3,4.6,26.5,12.2,40.3,16.3C205.2,291.5,222,281,230.4,271.8z"/>
			</g>
			<g>
				<g>
					<path class="st0" d="M78.5,228.2c-4.1-2.2-8.1-4.4-12.4-6.3c-1.9-0.8-3.7-1.4-5.7-1.8c-1.6-0.2-3.4-0.3-4.8,0.4
						c-0.8,0.4-1.5,1.1-2.2,1.8c-3.6,3.7-6.4,8.2-9.8,12.2c-2.4,2.8-5.3,5.3-8.6,6.7c-1.2,0.6-1.1,2.2,0.1,2.5
						c18.4,4.9,38.5,4.4,55.8-3.7c1.5-0.8,3.1-1.5,4.4-2.6L78.5,228.2z"/>
				</g>
				<g class="st1">
					<path class="st0" d="M77.2,226.3c-3.4-2.6-6.8-5.3-10.2-7.9c-1.7-1.2-3.3-2.5-4.1-4.4c-0.8-1.8-0.8-3.7-1-5.6
						c-0.7-5.4-3.5-10.1-5.6-15.2c-0.1-0.3-0.3-0.8-0.2-1.1c0.2-1.2,2-1,3.1-0.4c8.2,4.1,16.3,8.9,22.7,15.6
						c6.3,6.7,15.1,18.6,14.9,27.8L77.2,226.3z"/>
				</g>
			</g>
		</g>
	</g>
	<g>
		<path class="st0" d="M365.4,280.2c0,6.5-6.3,15.2-9,18.8c-6.1,8-14.5,13.9-23.7,18c-9.1,4.2-18.9,6.5-28.8,8.5
			c-2,0.4-4.6,0.4-5.3-1.5c-0.3-1.2,0.4-2.5,1.3-3.5c5.4-6.5,12-12,16.7-18.9c1.4-2.1,2.6-4.3,4.7-5.8c1.7-1.2,3.6-2,5.6-2.5
			c8-2.4,18.9-4,26.1-7.4C360.2,282.4,365.4,280.2,365.4,280.2z"/>
	</g>
	<g class="st1">
		<path class="st0" d="M373.4,285.3c-1.9,14.7-9.6,28.2-19.5,39.3c-2.2,2.5-4.6,4.9-7.7,6.4c-0.4-6.3-1.5-12.4-3.4-18.4
			c-0.8-2.3-1.5-4.8-1.1-7.3c0.2-1.1,0.8-2.2,1.4-3.2c1-1.9,2.1-3.6,3.6-5.2c4-4.2,8.1-6.4,14.6-9
			C367.9,285.3,373.4,285.3,373.4,285.3z"/>
	</g>
</g>
</svg>
