<?xml version="1.0" encoding="utf-8"?>
<!-- Generator: Adobe Illustrator 24.0.0, SVG Export Plug-In . SVG Version: 6.00 Build 0)  -->
<svg version="1.1" id="Layer_1" xmlns="http://www.w3.org/2000/svg" xmlns:xlink="http://www.w3.org/1999/xlink" x="0px" y="0px"
	 viewBox="0 0 500 500" style="enable-background:new 0 0 500 500;" xml:space="preserve">
<style type="text/css">
	.st0{fill:#FFFFFF;}
</style>
<g>
	<g>
		<path class="st0" d="M147.7,236.7c10.6,2.4,33.3-9.6,50.2-13.6c22.9-5.4,57.9-1.2,77.8,11.4c7,4.4,13.4,9.8,21,13
			c8.7,3.7,27.2,2.4,36.3,4.9c9.1,2.5,18.4,7.9,21.1,17c2.2,7.3-0.5,15.4-5.5,21.2c-5,5.8-11.9,9.5-18.9,12.4
			c-16.5,6.9-34.4,9.9-52.2,11.8c-21.5,2.3-43.2,3-64.8,2c-11.9-0.5-23.8-1.5-35.1-5.2c-31-10-63.7-41.4-63.5-74
			c3.3,2.7,6.7,5.5,10,8.2c-1.3-10.1-4.6-18.3-5.9-28.4c4.7,5.7,9.4,11.4,14.2,17.2c-1.3-4.9-3.8-10.2-3.6-15.3
			C133,227.6,137.1,234.3,147.7,236.7z"/>
	</g>
	<g>
		<g>
			<path class="st0" d="M347.1,284.6c6.3-2.1,8.6-6,7.8-15.2c-0.6-7.2-4.4-16.4-9.8-21.3c-3-2.7-6.5-4.8-9.7-7.3
				c-5.5-4.3-9.9-10.3-11.3-17.2c-1.6-8,1-17.1-3.6-23.8c-4-5.8-10.9-10.8-17.4-8.1c-6.5,2.8-11.6,6.3-13.8,13
				c-2.2,6.7-1.6,19.4-0.2,27.2c1.4,7.7,3.6,13.4,6.1,19.6c2.6,6.5,5.9,12,12.1,19c6.2,7,15.3,12.2,22,14
				C329.3,284.4,340.8,286.7,347.1,284.6z"/>
		</g>
		<g>
			<g>
				<path class="st0" d="M288.7,211.7c0-9.2,2.9-14.1,7.7-19.3s10.8-7.8,18.9-8.6c8.1-0.8,12,0.6,17.6,3.6c5.5,3,8.9,8.7,13.1,13.3
					c8.8,9.5,21.5,14,33.7,18.4c1.9,0.7,4.1,2,3.7,3.9c-0.4,1.9-2.8,2.3-4.7,2.3c-10.6-0.1-21.3-0.8-31.8-2.1c-3.8-0.5-7.8-1-11.1,1
					c-2.8,1.7-4.3,4.7-6.6,6.9c-2.4,2.3-5.6,3.5-8.8,4.4c-4.8,1.3-12.2,0.2-18.5-2.5S288.7,220.9,288.7,211.7z"/>
			</g>
			<g>
				<path class="st0" d="M340,215.5c12.4,5.7,24.8,11.3,37.2,17c1.3,0.6,3.9,1.9,2.4,3.1c-1.8,1.5-6.9,0.1-10-0.7
					c-13.7-3.3-27-7.6-40.8-10.9L340,215.5z"/>
			</g>
		</g>
	</g>
</g>
<g>
	<path class="st0" d="M179.4,326c-17-1.4-34.1-4.6-47.7-15c-4.4-3.4-4.3-8.1-3-9c0,0-0.8,2.5,6.2,8.4
		C145.5,319.6,179.4,326,179.4,326z"/>
</g>
<g>
	<path class="st0" d="M348.8,309.3c12.4-4.2,18.7-8,25.1-14.1c3-2.8,3.4-5.6,2.9-9.6c0,0,0,3.7-6.7,9.9
		C365.7,299.6,356.6,305.8,348.8,309.3z"/>
</g>
<g>
	<path class="st0" d="M372.9,313.3c-30.9,12.1-63.3,19.6-97,21.4c0,0,26.3,1.6,56.3-6C362.2,321.2,372.9,313.3,372.9,313.3z"/>
</g>
<g>
	<path class="st0" d="M107.1,292.9c-2.1,0.6-4.2,1.5-5.7,3s-2.6,3.7-2.2,5.9c0.4,2,2.2,5,3.7,6.5c5.2,5,11.2,8.4,17.3,11.1
		c0,0-19.4-12.1-19.6-17.2C100.3,295,107.1,292.9,107.1,292.9z"/>
</g>
</svg>
