<?xml version="1.0" encoding="utf-8"?>
<!-- Generator: Adobe Illustrator 23.0.4, SVG Export Plug-In . SVG Version: 6.00 Build 0)  -->
<svg version="1.1" id="Layer_1" xmlns="http://www.w3.org/2000/svg" xmlns:xlink="http://www.w3.org/1999/xlink" x="0px" y="0px"
	 viewBox="0 0 600 400" style="enable-background:new 0 0 600 400;" xml:space="preserve">
<style type="text/css">
	.st0{fill:#FFFFFF;}
</style>
<path class="st0" d="M479.2,114.1c-21.6-8.6-32-30.2-34.3-35.8l-3.3-8.3c-7.4-22.5-26.9-21.9-26.9-21.9
	C386.5,46.1,378.9,67,378.9,67c-12.9,29.7-4.4,51.6-4.4,51.6c6.7,21.3,3.4,28.2,0,30.5c-4.4-1.5-9.4-2.6-15.2-3.2
	c0,0-52.5-17.1-122.2,10.8c0,0-55.9,20-72.6,17.5c0,0,4,4.6,10.9,11.4c-31.8,8-55.7,5.6-55.7,5.6c1.4,7.5,24.3,24.1,24.3,24.1
	c60.4,42.5,117.1,52.1,144.3,54.1c0.3,12.6,6.4,22.9,7.3,24.3l0,0c0,0,1.6,26.2-1.4,31.8l-1,3.2l1.5,3.6c0,0,4.3,7.8,16.2,11
	c4.5,1.2,23.9,8.7,23.9,8.7s-1.6-12.5,11.1-17.9c0,0-11.2-6.1-8.3-14.7l-35.6,6.3c0,0-0.6-21.9,4.1-31.9h0c0.6-0.9,1.2-1.8,1.8-2.8
	c-0.1,6.4-0.5,12.8-1.8,15.2l-1,3.2l1.5,3.6c0,0,23,2.7,27.1,3.2c4.6,0.6,19.8,3.2,19.8,3.2s-4.7-12.1,0-18.5c0,0-10-4.1-13-10.3
	l-26.7,15.7c0,0-0.6-21.9,4.1-31.9h0c1.1-1.5,2.1-3.2,2.9-5c67.8-4.9,101.2-47.6,101.2-47.6c32.9-38.8-3.3-78.7-3.3-78.7
	c-20.8-17.9-13.2-37.8-13.2-37.8c3.3-12.3,21.5-7,21.5-7c18.7,15,45.3,19.5,51.9,19C481.8,116.9,479.2,114.1,479.2,114.1z"/>
</svg>
