<?xml version="1.0" encoding="utf-8"?>
<!-- Generator: Adobe Illustrator 24.0.0, SVG Export Plug-In . SVG Version: 6.00 Build 0)  -->
<svg version="1.1" id="Layer_1" xmlns="http://www.w3.org/2000/svg" xmlns:xlink="http://www.w3.org/1999/xlink" x="0px" y="0px"
	 viewBox="0 0 500 500" style="enable-background:new 0 0 500 500;" xml:space="preserve">
<style type="text/css">
	.st0{fill:#FFFFFF;}
	.st1{opacity:0.7;}

		#leftEar, #rightEar, #face, #facenNeck, #tail, #tailEnd {
	  transform-box: fill-box;
	  -webkit-backface-visibility: hidden;
	}

	@keyframes leftEarAnimation {
    0%, 10% {transform: translate(0,0) rotate(0deg);}
    12%, 20% {transform: translate(2%,-2%) rotate(6deg);}
    24%, 100% {transform: translate(0,0) rotate(0deg);}
  	}
  	#leftEar {
	  animation:leftEarAnimation 12s infinite ease-in-out;
	  transform-origin: bottom right;
	}

	@keyframes rightEarAnimation {
    0%, 30% {transform: translate(0,0) rotate(0deg);}
    40%, 60% {transform: translate(2%, 1%) rotate(4deg);}
    70%, 100% {transform: translate(0,0) rotate(0deg);}
  	}
  	#rightEar {
	  animation:rightEarAnimation 6s infinite ease-in-out;
	  transform-origin: bottom right;
	}

	@keyframes faceAnimation {
    0%, 20% {transform: translate(0,0) rotate(0deg);}
    30%, 60% {transform: translate(-3%,-3%) rotate(-8deg);}
    80%, 100% {transform: translate(0,0) rotate(0deg);}
  	}
  	#face {
	  animation:faceAnimation 12s infinite ease-in-out;
	  transform-origin: center right;
	}

		@keyframes facenNeckAnimation {
    0%, 30% {transform: translate(0,0) rotate(0deg);}
    40%, 55% {transform: translate(2%, -2%) rotate(-6deg);}
    70%, 100% {transform: translate(0,0) rotate(0deg);}
  	}
  	#facenNeck {
	  animation:facenNeckAnimation 12s infinite ease-in-out;
	  transform-origin: bottom right;
	}

	@keyframes tailAnimation {
    0%, 10% {transform: translate(0,0) skew(0deg);}
    20%, 25% {transform: translate(-4%,0) skew(4deg);}
    30%, 30% {transform: translate(0,0) skew(-2deg);}
    40%, 100% {transform: translate(0,0) skew(0deg);}
  	}
  	#tail {
	  animation:tailAnimation 8s infinite ease-in-out;
	  transform-origin: top left;
	}

	@keyframes tailEndAnimation {
    0%, 10% {transform: translate(0,0) skew(0deg);}
    23%, 25% {transform: translate(-8%, -1%) skew(6deg);}
    35%, 100% {transform: translate(0,0) skew(0deg);}
  	}
  	#tailEnd {
	  animation:tailEndAnimation 8s infinite ease-in-out;
	  transform-origin: top left;
	}
</style>
<filter id="dropshadow" height="130%">
  <feGaussianBlur in="SourceAlpha" stdDeviation="5"/>
  <feComponentTransfer>
    <feFuncA type="linear" slope="0.3"/>
  </feComponentTransfer>
  <feMerge> 
    <feMergeNode/> <!-- this contains the offset blurred image -->
    <feMergeNode in="SourceGraphic"/> <!-- this contains the element that the filter is applied to -->
  </feMerge>
</filter>
<g style="filter:url(#dropshadow)">
<g>
	<path class="st0" d="M366.9,135.8c-24.2,5.5-35.4,8.4-53.4,11.4c-26,4.3-53.1,1.8-77.8-7.2c-7.6-2.7-15-6.1-23-7.5
		c-8.8-1.5-17.8-0.5-26.6,1.1c-12.4,2.3-25.1,6.3-33.7,15.4c-8.9,9.4-12,23.2-11.2,36.1c0.8,12.9,2.5,19.2,9.5,37.6
		s15.2,25.2,29.2,37.7c6.1,5.5,34.8,20,65.2,22.5c39.3,3.2,84.1-8.1,113.6-27.6c10.5-6.9,20.3-15.1,32-19.5c8.4-3.2,17.5-4.2,26.1-7
		c8.6-2.7,17.1-7.7,21-15.8c1.9-4.1,2.5-8.8,2.7-13.3c0.4-14.9-1.4-24.6-12.3-42.1C417.1,140.3,403.3,127.5,366.9,135.8z"/>
</g>
<g>
	<path class="st0" d="M176.5,247.5c7.8,31.3,7.5,58.4,22.9,86.8c11.9,21.9,13.2,57.4,7.2,82.6c-2.2,9.3-6.5,11-10.1,19
		c-1.7,3.7-3.3,8.6-0.2,11.2c1.5,1.3,3.7,1.4,5.7,1.3c12.2-0.9,22.4-2.6,27-14c4.6-11.4,0.2-29.1-1.6-41.2
		c-1.6-11.1-3.3-23.8-4.4-39c-1.4-20.3,3.3-40.7,3.9-61.1c0.6-20.4,7-41.5-2.2-59.7L176.5,247.5z"/>
</g>
<g class="st1">
	<path class="st0" d="M161.1,239.1c-1.2,31,1.6,53.3,8.3,83.6c1.6,7.2,3.6,14.2,4.7,21.5c2.9,20-2.2,50-13.8,66.4
		c-1.3,1.9-2.8,3.8-2.7,6.1c0.1,2.6,1.9,6,4.5,5.9c13.4-0.3,24.8-2.7,26.6-10.2c2.3-9.6-0.2-21.7-0.5-31.6
		c-0.6-22.6,4.1-44.7,8.4-66.9s7.4-45.3,1.6-67.1L161.1,239.1z"/>
</g>
<g>
	<path class="st0" d="M424.6,159.3c19.6,29.2,24,68,11.4,100.8c-3.7,9.6-8.7,18.7-11.4,28.6c-2.7,9.9-2.8,21.2,3,29.7
		c1.7,2.5,6.8,11.7,7.7,14.6c1.2,3.6,0.1,7.5-0.9,11.2c-7.3,27.5-9.1,49.1-7.2,77.5c0.1,2,0.3,4.2-0.8,5.9c-1.2,1.9-3.4,2.7-5.6,3.2
		c-5.5,1.3-11.3,1.4-16.9,0.2c-0.9-0.2-1.8-0.4-2.5-1.1c-1.2-1.2-0.9-3.3-0.4-5c5.3-19.7,6.6-39.3,11.8-59
		c2.3-8.6,4.4-18.5-0.9-25.6c-2.3-3.1-5.8-5.2-8.9-7.6c-17.8-13.6-24-37.2-29-59.1c-4.3-18.7-8.6-37.3-12.9-56L424.6,159.3z"/>
</g>
<g class="st1">
	<path class="st0" d="M340,233.5c0.3,23.8,8,47.5,21.7,66.9c2.2,3.2,4.7,6.3,5.7,10c0.9,3.5,0.6,7.1,0.2,10.7
		c-3.1,29.5-7,60.8-25.5,84c-1.5,1.9-3.2,4-2.8,6.4c0.2,1.6,1.3,2.9,2.5,3.9c4.7,4,11.8,4.9,17.3,2.2c6.3-3.1,9.9-10,11.6-16.8
		s1.8-14,3.4-20.8c2-8.6,6.4-16.4,9.5-24.7c4.3-11.2,6.4-23.2,8.5-35c2.3-13,4.5-26,6.8-39c1.9-11.1,3.9-22.3,4.5-33.5
		c0.9-14.9-0.6-29.9-4.2-44.3c-1.1-4.2-2.3-8.4-4.7-12.1c-2.5-3.9-6-7-9.8-9.6c-9-6-19.9-9.1-30.6-8.8L340,233.5z"/>
</g>
<g id="facenNeck">
	<g>
		<path class="st0" d="M263,162.2c-16.2-4.5-28-18-41.5-28c-6.7-5-13.9-9.1-21.2-13.3c-15-8.7-30.1-17.3-45.1-26
			c-13.3-7.7-26.8-15.4-41.8-18.7s-31.9-1.5-43.6,8.4c-3.7,3.1-6.8,7-8.3,11.7c-2.6,7.9,0.1,16.7,5,23.5
			c4.9,6.7,11.7,11.7,18.5,16.5c23.5,16.6,48.9,34.1,58.8,61c2.1,5.7,3.4,11.6,6.3,16.9c8.2,15,26.8,21.1,43.9,22.1
			C204,236.9,263,162.2,263,162.2z"/>
	</g>
	<g id="face">
		<g>
			<path class="st0" d="M110.3,88c-12.5-13.4-35.9-14.3-49.4-2c-3.8,3.5-6.8,7.7-9.7,12c-10.8,16-20.5,32.7-29,50.1
				c-2.5,5-4.9,10.3-4.9,15.9s3,11.6,8.3,13.3c7.8,2.5,15-4.7,22.6-7.7c8-3.1,13.9-3.6,22.5-3.9c10.7-0.3,21.3-3.6,30.3-9.4
				c4.8-3.1,9.3-6.9,12.2-11.8c7.5-12.3,7.4-26,4.1-40L110.3,88z"/>
		</g>
		<g id="leftEar">
			<path class="st0" d="M105.4,92.4C93,76.1,80.3,59.6,63.4,48c1,18.5,5.2,36.8,12.4,53.9L105.4,92.4z"/>
		</g>
		<g class="st1" id="rightEar">
			<path class="st0" d="M94.1,94.6C83.5,76.6,65.7,62.8,45.6,57.1c4.5,19.6,9.2,39.4,18.8,57.1L94.1,94.6z"/>
		</g>
	</g>
</g>
<g class="st1" id="tail">
	<g id="tailEnd">
		<path class="st0" d="M464.7,140.5c12,9.2,18.7,25.1,18.3,41.2c-0.4,16.9-6.9,38.2-12.4,53.8c-5.5,15.7,0.2,36.4,12.4,48.1
			c-25.1-11.5-41-27.7-32.1-81.2c2.9-17.1-11.2-15.3-11.2-15.3L464.7,140.5z"/>
	</g>
	<g>
		<path class="st0" d="M433.8,128.9c19.4-1.4,37.4,14.4,40,24.6c2.6,10.2-1.4,21.6-9.7,27.5c-8.3,5.9-30.3,7.2-37.3,5.3
			c-7-1.9-20.9-13.7-19.4-28.8C408.9,142.4,414.4,130.4,433.8,128.9z"/>
	</g>
</g>
</g>
</svg>
