<?xml version="1.0" encoding="utf-8"?>
<!-- Generator: Adobe Illustrator 23.0.4, SVG Export Plug-In . SVG Version: 6.00 Build 0)  -->
<svg version="1.1" id="Layer_1" xmlns="http://www.w3.org/2000/svg" xmlns:xlink="http://www.w3.org/1999/xlink" x="0px" y="0px"
	 viewBox="0 0 600 400" style="enable-background:new 0 0 600 400;" xml:space="preserve">
<style type="text/css">
	.st0{fill:#FFFFFF;}
</style>
<path class="st0" d="M250.2,223.3c0.3,0,0.5,0.5,1.2-0.6c0.7-1.1,0.9-2,0.7-3.1c-0.2-1.1-0.4-1.4-0.4-1.4s0.9,0,1.5,0.5
	c0.6,0.5,1.2-0.6,1.1-1.5c-0.1-0.9-0.1-3.1-0.6-3.8c-0.5-0.7-1.6-1.5-1.6-4.2c0.1-2.7,0.2-2-0.4-4.9c-0.6-2.9,0.1-3,0.1-4.1
	c0.1-1.1,1.8-3.8,1.9-4.9c0.1-1,0,0,0.9-0.9c0.9-0.9,0.3-0.8,0.5-2.4c0,0,2.1-4.8,2.7-6.4c0.6-1.6,5-11,6.5-13.8
	c0.7-1.3,1.7-2.6,2.8-3.8c-0.5,2.3-1.4,6.3-1.5,6.7c0,0-0.6,4.1-1,4.8c-0.4,0.7-1.7,4.1-2.3,6.8c-0.6,2.7,0.7,3.4,1.1,4.9
	c0.4,1.5,1.5,1.1,1.4,1.8c-0.1,0.7-1.7,1.9-1,4.7c0.7,2.9,0,4.9,0.1,8.3c0.1,3.3,0.6,7.4,0.4,8.7c-0.2,1.2-0.3,1.1,0.8,2.4
	c1.1,1.2,1.8,5.1,2.4,6.8c0.6,1.7,3.2,8.7,4.1,11.1c0.8,2.4,1.6,9.6,1.6,9.6s1.4,2.9,2.1,4.8c0.8,1.9,1.1,4.5,1.2,6.7
	c0.1,2.2,0.5,4.2,1.6,6.5c1.1,2.3,1.3,3.3,1.3,3.3s0.5,5.2,1,7.2c0.5,2,0.3,2.9,0.4,3.9c0.1,1-0.3,5.7-0.1,6.6
	c0.3,0.9,0.8,0.9,0.8,1.1c0,0.2-0.8,2.3-0.8,3c0,0.6,0.3,0.4,0.3,2.3c0,1.9,0.8,8.9,1,10.4c0.2,1.5,2.1,11,2.3,12.8
	c0.2,1.8,2.4,10.1,2.3,11.4c-0.1,1.2,1.5,9.6,2.4,12.2c0.9,2.7,0.1,2.3,2.3,3.8c2.2,1.5,1.4,1.4,1.7,3c0.3,1.6-0.4,2.5-1.2,4.1
	c-0.8,1.6,0.1,2.2,0.4,2.6c0.3,0.4,2.3,2.6,2.2,3c-0.1,0.4-0.7,2.2,0.2,4.3c0.9,2.1,0,1.1-1.1,2.2c-1.1,1.1-3.8,2.4-5.1,3.2
	c-1.4,0.8-2.7,2.4-0.1,4.4c2.6,1.9,13.5,0.9,15.9,0.7c0,0,3.8-0.5,4.2-1.8c0.3-1.3,1.7-0.3,2-0.9c0.3-0.6,0.3-3.6-0.5-5.4
	c-0.7-1.8,0.7-1.1,0.4-1.9c0,0,0.8-2,0.9-3.3c0.1-1.4,0.8-1.7,0.8-4.2c-0.1-2.5-0.4-3.8-2.3-7.7c-1.9-3.9-1.8-5.7-2.2-8.9
	c-0.4-3.2-0.5-9-1-12.4c-0.5-3.4-1.5-10.1-1.7-12.2c-0.3-2.1-0.8-11.3-1.1-13.7c-0.3-2.4-1.3-3.2-1.9-4.9c-0.6-1.7,1.6-4,1.4-5.8
	c0,0-0.4-3.4-0.7-5.9c-0.4-2.5-0.1-5-0.2-7.7c-0.1-2.7-0.6-5.5-1-9.3c-0.4-3.8-0.3-6.8-1.3-9.5c-1-2.7-1.2-8.1-1.4-11.2
	c-0.2-3.2,0.1-8.3,0.7-11.6c0.6-3.3-0.3-6-0.3-8.5s0.3-5.7,0.3-5.9c0-0.3,0.4,1.5,0.8,3.3c0.4,1.8,1,5.5,1,7.2
	c0,1.7,0.5,4.6,0.6,5.9c0.1,1.4,0.6,13.9,0.7,15c0.1,1.1,0.2,12.8,0.1,13.6c-0.1,0.8,0.3,9,0.8,10.8c0.5,1.8,0.8,5.1,2,6.4
	c1.1,1.3,1.4,1.1,1.4,1.1s0.7,1.1,0.6,2.7c-0.1,1.6-0.9,0.5,0.9,3.2c1.8,2.7,1.1,3.1,1.3,4.9c0.2,1.8,1,10.8,1,12.4
	c0,1.6,0.5,9.4,0.6,12.4c0.1,3,0.9,7.9,0.9,8.1c0,0.3,1.9,10.2,2,10.7c0.1,0.5,0.6,8.3,1.6,11.4c0.9,3.1,2.8,4.9,3.8,6.5
	c1,1.6,2.1,4,1.9,4.1c-0.2,0.1-0.7,1.9-0.4,4c0.3,2,1.2,2.2,1.7,2.8c0.5,0.6,0.1,0.8,0.7,1.5c0.6,0.6,2.2,0.3,2.5,0.6
	c0.3,0.4,0.3,2.9,2.3,4.3c2,1.4,4.9-0.6,9.1-0.8c4.2-0.3,6.2-0.4,6.6-3.1c0.3-2.7-2.4-3.7-3.2-4.6c-0.8-0.9-4.1-4.8-4.4-5.4
	c-0.3-0.6-0.3-1.8,0.1-2.8c0,0,0.8-1.5,0.7-3.5c-0.1-2,0.2-0.4,0.7-3c0.5-2.5,0.4-1-0.3-4.1c-0.7-3-0.3-4.1-0.7-7.1
	s-0.3-9.1-0.9-13.5c-0.7-4.3-1.1-12.2-2.2-19.7c-1.1-7.5-2.7-15.3-3.3-16.6c-0.6-1.3-1.2-1.6-0.6-3c0.7-1.4,0.2-2-0.3-2.9
	c-0.5-0.9-0.1-0.3-0.6-2c-0.5-1.7-1-1.7,0.2-3.2c1.2-1.5-1.5-2-1.2-3c0.3-0.9-0.4-1.1-1-1.7c-0.7-0.6-0.6,0.1,0.2-1.4
	c0.8-1.5,0.3-2.9,0.2-4.2c-0.2-1.3-1-1.1-0.8-1.5c0.2-0.5,1.1-3,1.5-5.7c0.4-2.7-0.6-4.1-0.6-6.2c0-2.1,0.2-3.9,0.9-7
	c0,0,0.9-6.4,1.9-9.8c1-3.4,2.4-20.5,2.4-22c0-1.4,0.2-4.6,0.3-6.6c0-2.1-0.5-3.8-1.2-6c-0.8-2.2-0.7-7.1-0.4-8
	c0.3-0.9,0.8-0.9,1-2.3c0.2-1.4,0.5-5,0.2-6.7c-0.3-1.7-0.1-4.8-0.7-7.4c-0.5-2.7-0.3-3.2-0.7-6.8c-0.4-3.6-0.8-1.8-1.4-4.8
	c-0.6-3-1.5-6.8-1.9-8c-0.4-1.2-2.3-5.9-2-6.4c0.3-0.5,0.7,0.4,0.5-1.4c-0.3-1.8-0.1-3.1,0-4.4c0.1-1.3,0.3-3.9,0.4-5.4
	c0.1-1.5,0.4-3.6,0.4-3.6s0.5,2.3,0.7,2.8c0.3,0.5,0,1.4-0.2,2.7c-0.2,1.3,0.5,1.8,1,2.7c0.4,0.9,0.5,3.5,0.8,4.6
	c0.3,1.1-0.2,2.8,0.5,3.9c0.7,1.1,0.7,2.7,0.8,5c0.1,2.3,2.3,2.5,2.3,2.5l2.8,6.2c0,0,3.1,8.8,3.8,9.9c0.7,1.2,2,6.6,3.2,9.1
	c1.1,2.5,0.9,6.7,1.2,7.4c0.3,0.7-0.8,1.8-1,2.5c-0.2,0.7-0.3,3.4,0.6,4.1c0.9,0.7,2.4,2.6,3.5,3.9c1.1,1.3,1.1,2.4,1.9,3.5
	c0.8,1.1,2.4,1.6,3.4,2.1c1,0.5-0.3,1.7-0.5,1.7c-0.1,0-1.8,0.3-2.3,1.1c-0.5,0.8-0.8,1.8,0.5,1.5c0.7-0.2,1.3,0.1,1.6,0.3
	c0,0-0.1,0.1-0.1,0.1c0,0-0.2,0.9,0.7,1.8c0.9,0.9,2,0.7,3.5,1.1c0.5,0.2,1,0.1,1.4-0.1c0,0,0,0.1,0,0.1c0,0.9-0.6,1.4-1.2,2
	c-0.6,0.6,0.2,0.8-0.1,1.5c-0.2,0.7-0.3,1.9,1.3,2.3c1.6,0.4,1-0.6,2.2-1.4c1.2-0.7,1.6-1.9,1.7-3.3c0-1.4-2.2-1.2-2.2-1.2
	s-0.4-0.4,0.1-0.7s1.9-0.9,2.5-1.9c0.7-1,1.7-3.8,1.9-4.8c0.2-1-1.3-3.2-1.6-4.1c-0.4-0.9-1.4-2.3-1.4-3.4c0-1.1-1.3-1.5-2.3-2.3
	c-0.9-0.8-2-1.8-2.4-2.3c-0.4-0.5-1.8-1.7-1.8-1.7c-1.1-0.5-1.9-4.9-2.2-6.2c-0.2-1.2-0.8-3.5-1-5c-0.2-1.5-0.7-7.4-0.8-9
	c-0.1-1.6-1.1-8.7-1.4-11.2c-0.2-2.5-1.2-6.4-1.1-7.1c0.2-0.7,0-1.8-0.2-3.2c-0.2-1.5-0.7-1.9-0.8-3.4c-0.1-1.5-1-2.4-1.3-3.4
	c-0.3-1-0.8-2-0.7-2.9c0.2-0.9,0-1.4-0.4-2.8c-0.4-1.5-1.6-0.5-1.1-2c0.5-1.5-0.1-2.5-0.4-3.5c-0.4-1.1-0.3-1.3-0.3-2.8
	c0-1.4-0.2-2.7-0.3-4.2c0-1.5-1.4-2-0.1-3.2c1.3-1.2,0.7-1.6,0.8-2.7c0.1-1-1.9-0.4-1.6-1.3c0.4-0.9,0.2-1.4-0.4-2.9
	c-0.6-1.5-0.8-9-1.1-12.4c-0.2-3.4-1.4-5-2.8-9.9c-1.4-4.9-3.1-5.5-3.8-6.4c-0.7-0.9-0.9-0.3-2.2-0.5c-1.3-0.2-2.9-0.2-4-0.8
	c-1.1-0.7-1.1,0.1-2.5-0.1c0,0-1.4-0.7-4.2-1.4c-2.7-0.7-3.9-3-3.9-3c2.4,2.5,5.9,2,5.9,2c-7.1-0.6-5.9-5.4-5.9-5.4
	c0.5,2.5,1.8,3.5,2.9,3.8c-2.8-0.8-2.5-4.9-2.5-5.8c0-1.2-0.2-1.8-0.2-1.8c0.6,2,2.4,3.7,2.4,3.7c-2.5-3-1.9-5.3-2.1-6.9
	c-0.2-1.7-1.6-2.9-1.6-2.9c1.5,0.8,3.1,3.4,3,3.2c0-0.2-1.2-2.1-3.7-4.6c-2.5-2.4-1.8-4.4-2.1-5.7c-0.3-1.3-0.5-1.6,0-2.8
	c0.5-1.3,0-2.5,0-2.5l0.9,1.2c0,0-0.6-1.3-0.9-1.9c-0.3-0.6-0.5-0.8-0.5-1.8s0.1-3.2-0.1-3.7c-0.2-0.5-0.9-1.9-0.9-2.2
	c-0.1-0.3,1.2,1.2,1.2,1.2l-1.2-2.9h0.4c-0.2-0.1-0.5-0.6-0.9-2.9c-0.6-3.4-2-4.2-3.2-5.5c-1.2-1.3-5.4-2.7-6.7-3.5
	c-1.3-0.9-3.6-1.1-4.3-1.2c-0.7-0.2-3-0.7-4.6-0.3c-1.6,0.4-2.2,2-2.1,1.9c0-0.1,0.4-1.4,0.4-1.4s-1.2,1.8-1.2,1.8
	c0,0,0.5-2.3,0.5-2.3s-1.2,2.7-1.2,2.5c0-0.1-0.7-1.3-0.7-1.3s0.4,1.5,0.3,1.4c-0.1-0.1-1.2-0.8-1.3-0.9c-0.1-0.1,0.8,1.3,0.8,1.3
	c-1.4-0.3-2.8,0.4-4.9,2.2c-2.1,1.9-1.1,2.4-3.9,5.7c-2.8,3.3-1.4,7.8-1.5,9.4c0,1.6,0.2,2.7,0.2,2.7s0.2-2.3,0.4-1.2
	c0.2,1.1,0.5,1.5,0.5,1.3c0-0.2-0.1-1.4-0.1-1.5c0-0.1,0.3,0.2,0.8,2c0.5,1.7-0.1,1.7-0.1,1.7s-0.6-0.2-0.9,0.8
	c-0.3,1,0.9,2.1,1.5,3c0.5,0.9,0.5,1.1,0.5,1.1c0.5,5,1.6,7.3,2.2,9.3c0.1,0.3,0.2,0.5,0.3,0.8c-0.2,0.4-0.2,0.8-0.3,1.1
	c-1.4,2-1.3,5.9-1.1,7.5c-0.3-3.6,1.2-5.7,1.2-5.7c-1.3,3.7,0.4,6.6,0.5,7.4c0.1,0.8,1.2,3.8,1.1,3.8c-0.1,0-5.5,1.2-6.6,1.5
	c-1.1,0.3-6.4,2.5-7.6,2.9l-1.4,0.7c-1-0.5-1.8,0.6-3,2c-1.2,1.4-2.9,4.4-3.2,7.3c-0.3,2.9-1.3,9.6-1.1,11.5
	c0.2,1.9,0.2,4.1,0.1,5.3c-0.1,1.2,0,4.4,0,4.6c0,0.2-0.5,0.3-1.2,0.5c-0.7,0.2-0.6,0.7,0.2,1.9c0.7,1.2,0.4,2.2,0.7,3.7
	c0.3,1.5,0,2.8-0.2,4.1c-0.2,1.3-0.5,0.8-0.2,2.5c0.3,1.7,0.2,2.4-0.1,3.7c-0.4,1.3-0.6,1-0.4,1.9c0.2,0.9,0.3,1.8,0.2,2.4
	c-0.2,0.6-0.3,1.6-0.4,1.8c-0.1,0.2-1,0.1-1.2,1.3c-0.2,0.9,0.4,1.1,0.6,1.1c-0.3,0.1-1.2,1.3-1.7,2.4c-0.6,1.2,0.4,0.7,0.4,0.7
	s0,0-0.2,0.8c-0.2,0.8-0.4,1.9-0.7,2.4c-0.3,0.5-1.5,1.8-1.6,2.3c-0.2,0.5,0.7,1.4,0.5,1.5c-0.2,0.1-0.7,3.4-0.9,3.9
	s-0.8,3.4-1.4,6.2c-0.5,2.8-3.3,13.8-3.5,15.2c-0.2,1.4-1.7,7.9-2.1,7.9l-0.6,1.6c0,0.7-1.4,5.4-1.4,5.4s-0.7,2.7-0.9,3.5
	c-0.2,0.9-1,2.8-1.1,3.2c-0.1,0.3-2.8,5.3-2.8,5.3s-1.3,2.1-2.3,2.9c-0.9,0.8-0.4,2-0.1,2.5c0.3,0.5,1.5,2,1.7,2.4
	c0.2,0.4,0.9,3.7,1.1,4.5c0.2,0.8,0.6,2.2,1.2,2.7c1.5,1.1,4.3,1.5,5.9,0.8C249.2,223.9,249.5,223.4,250.2,223.3z M273,153.9
	c0-1.8-0.2-4-0.5-5.9c-0.5-3,0.8-2.3,0.9-2.3c0.2-0.1,1.5,4.4,1.5,4.4C274.9,150.1,273.9,152.1,273,153.9z M284.1,80.2
	c-0.2-0.2-0.3-0.3-0.5-0.5c0-0.1,0-0.3-0.1-0.4c0.2,0.2,0.3,0.4,0.5,0.6C284.1,80,284.1,80.1,284.1,80.2z M284,78.9
	c-0.2-0.2-0.4-0.4-0.5-0.6c0-0.3,0-0.7,0-1c0.2,0.2,0.3,0.4,0.5,0.6C284,78.2,284,78.5,284,78.9z M284,77.9
	c-0.2-0.3-0.4-0.5-0.5-0.8c0-1,0.2-1.8,0.3-2.3c0.1,0.1,0.2,0.2,0.2,0.3C283.9,75.7,283.9,76.8,284,77.9z M282.3,74.2
	c0,1.1,0.4,2,1,2.8c0,0.3,0,0.6,0,1C282.2,76.2,282.3,74.2,282.3,74.2z M281.8,74.6c0.3,1.9,0.8,3.3,1.5,4.3c0,0.2,0,0.3,0,0.4
	C281.7,77.1,281.8,74.6,281.8,74.6z M283.3,76.5c-0.5-1.3-0.5-2.6-0.5-3.1c0.2,0.3,0.5,0.6,0.7,1C283.3,74.9,283.3,75.6,283.3,76.5z
	 M281.5,75.7c0.4,1.8,1,3.1,1.8,4c0.1,1.6,0.3,2.8,0.3,2.8C282.2,81.5,281.5,75.7,281.5,75.7z M283.7,80.1c0.2,0.2,0.3,0.3,0.5,0.4
	c0,0.1,0,0.2,0,0.3c0.1,0.8,0.1,1.4,0.1,1.4C284,81.5,283.8,80.8,283.7,80.1z M352.7,210.2c0,0-0.2,0-0.4-0.1
	c0.5-0.3,1.1-0.6,1.2-0.6C353.7,209.4,352.7,210.2,352.7,210.2z M357.2,211.7c-0.9-0.2-2.3-0.2-2.1-0.3c0.2-0.1,3.7-2.7,3.7-2.7
	S357.4,211,357.2,211.7z"/>
</svg>
