<?xml version="1.0" encoding="utf-8"?>
<!-- Generator: Adobe Illustrator 24.0.0, SVG Export Plug-In . SVG Version: 6.00 Build 0)  -->
<svg version="1.1" id="Layer_1" xmlns="http://www.w3.org/2000/svg" xmlns:xlink="http://www.w3.org/1999/xlink" x="0px" y="0px"
	 viewBox="0 0 500 500" style="enable-background:new 0 0 500 500;" xml:space="preserve">
<style type="text/css">
	.st0{fill:#FFFFFF;}
	.st1{opacity:0.7;}
</style>
<g>
	<g>
		<path class="st0" d="M207.3,217.3c17.5,9.8,27.9,28.3,39.3,44.8c14.5,21,32,39.8,51.1,56.7c-1.9-0.1-3.8-0.1-5.7,0.1
			c-24.5-11.3-49.1-22.6-73.6-33.9c-6.8-3.1-13.8-6.4-19.1-11.8c-10-10.4-11.3-26.2-11.9-40.7c-0.1-2.9-0.2-6,0.9-8.7
			c1.1-2.7,3.7-5.1,6.6-4.9L207.3,217.3z"/>
	</g>
	<g>
		<path class="st0" d="M213.6,240c46.7-10.7,92.1-26.1,138.4-38.1c0.7-0.2,1.5-0.4,2.1,0c0.7,0.4,0.9,1.4,1,2.2
			c0.7,5.9-0.2,11.9-1,17.7c-0.2,1.7-0.5,3.5-1.4,5.1c-0.9,1.7-2.4,2.9-3.3,4.6c-0.7,1.4-0.9,3-1.4,4.5c-0.9,2.5-2.8,4.6-5.2,5.7
			c-0.9,0.4-2,0.8-2.7,1.6c-0.6,0.7-0.7,1.6-0.9,2.5c-1,4-3.7,7.5-7.3,9.5c-0.9,0.5-1.8,0.9-2.4,1.6c-0.5,0.6-0.8,1.3-1.1,2.1
			c-1.7,3.7-5.1,6.6-9,7.8c-0.8,0.2-1.7,0.4-2.3,1c-0.7,0.6-1.1,1.4-1.5,2.2c-1.5,2.7-4.1,4.7-7.1,5.4c-0.9,0.2-2,0.3-2.7,0.9
			c-0.7,0.6-1.1,1.5-1.6,2.2c-1.7,2.4-4.8,3.3-7.6,4.1c-4,1-8.1,2.1-12.2,1.9c-1.3-0.1-2.5-0.3-3.8-0.3c-1.3-0.1-2.7,0-4,0
			c-3.1,0.1-6.2,0.2-9.3,0.3c-3.9,0.1-7.9,0.2-11.7-0.7c-7.9-1.9-14-8-19-14.4c-5-6.4-9.3-13.4-15.6-18.5L213.6,240z"/>
	</g>
	<g>
		<path class="st0" d="M218,228.9c-5.8-6.8-8.2-15.8-11.5-24.2c-1.4-3.5-3.1-7.1-6.1-9.4c-3.2-2.4-7.4-3.1-11.4-3.2
			c-2.7-0.1-5.5,0-8.1,0.8c-2.4,0.7-4.6,2-7,2.7c-2.9,0.8-5.9,0.6-8.9,0.4c-9.1-0.6-18.2-1.2-27.3-1.8c8.7,2.5,17.3,5,26,7.5
			c2.9,0.8,5.9,1.7,8,3.8c2.4,2.4,3.3,5.9,4.2,9.2c1.4,4.9,3.3,9.6,5.6,14.1c2.1,4.2,4.6,8.2,8,11.4c3.4,3.2,7.9,5.5,12.5,5.6
			L218,228.9z"/>
	</g>
	<g>
		<path class="st0" d="M227.7,281.2c-1,0.3-2.2-0.4-3,0.2c-0.3,0.2-0.4,0.5-0.6,0.8c-2.2,4.7-3,10-2.3,15.1c0.3-3.7,1.4-6.2,1.7-9.9
			c0.3,3,0,5,0.5,8c0.4,2.1,0.9,4.3,2,6.1c-0.3-6.2-0.1-12.3,0.6-18.5c0.7,5.6,2.1,11,4.1,16.3c-0.8-5.9-1.2-11.8-1.1-17.8
			L227.7,281.2z"/>
	</g>
	<g class="st1">
		<path class="st0" d="M210.6,276.5c-1.2,0.3-2.1,1.5-2.4,2.8s-0.1,2.6,0.2,3.8c0.5,2.4,1,4.7,1.7,7.1c0.7,2.4,1.5,4.9,3.5,6.6
			c-1.7-2.9-2.4-6.4-2.2-9.8c1.5,2.3,3.3,4.3,5.5,6c-2-2.2-3.5-5-4.2-7.9c-0.7-2.8-0.7-5.6-0.8-8.5L210.6,276.5z"/>
	</g>
	<g class="st1">
		<path class="st0" d="M207,234.9c-1.2-9.8-1.1-19.6-1-29.5c0.1-9.1,0.3-18.5,3.4-27c1-2.8,2.4-5.6,5-7.1c2.5-1.5,6.4-1.2,7.8,1.4
			c3.1-1.5,7.3,0.1,8.6,3.2c0.2,0.5,0.4,1,0.8,1.3c0.5,0.3,1.1,0.3,1.7,0.4c3.4,0.2,6.4,3.5,6.2,6.9c2.5,0.2,4.4,2.6,5,5
			c0.6,2.4,0.4,5,0.4,7.5c0,0.5,0,0.9,0.3,1.3c0.4,0.5,1.1,0.7,1.7,0.9c2.3,0.9,3.5,4,2.3,6.2c2.5,1.4,3.7,4.6,2.8,7.3
			c-0.3,0.8-0.7,1.6-0.6,2.5c0.1,0.6,0.5,1.1,0.9,1.5c1.7,2.5,1.3,6.2-0.8,8.3c1.7,1.2,1.9,4,0.4,5.5c-0.4,0.4-0.8,0.6-1.1,1.1
			c-0.7,1.1-0.1,2.5,0.1,3.8c0.3,1.9-0.2,4-1.5,5.4c-0.4,0.4-0.9,0.9-1,1.4c-0.1,0.6,0.2,1.3,0.4,1.9c0.9,2.3,0,5.1-2,6.5
			c-0.8,0.6-1.8,0.9-2.2,1.8c-0.7,1.2-0.1,2.9-0.9,4.1c-0.9,1.3-2.8,1.2-4.3,1.8c-1.6,0.7-2.5,2.2-3.7,3.5c-1.2,1.2-3.1,2.2-4.5,1.2
			c-0.3,1.9-2.5,3.3-4.4,2.8L207,234.9z"/>
	</g>
</g>
</svg>
