<?xml version="1.0" encoding="utf-8"?>
<!-- Generator: Adobe Illustrator 23.0.4, SVG Export Plug-In . SVG Version: 6.00 Build 0)  -->
<svg version="1.1" id="Layer_1" xmlns="http://www.w3.org/2000/svg" xmlns:xlink="http://www.w3.org/1999/xlink" x="0px" y="0px"
	 viewBox="0 0 600 400" style="enable-background:new 0 0 600 400;" xml:space="preserve">
<style type="text/css">
	.st0{fill:#FFFFFF;}
</style>
<path class="st0" d="M429.9,251c6.2,4,33,0,33,0s-3.7-3.3-5.2-8.5c4.7,0,4.7-6.9,4.7-6.9s0.8-3-0.1-5c0.2-1.1,0.1-3.9-1.9-5.1
	c-2-1.2-3.3-5.1-3.3-5.1s6.1-5.2,8-10.4c-10.8,2.4-18.5-9.6-25.4-13.7c-6.8-4-17.3-6.4-24.5-3.6c-7.3,2.9-12.8,14-14.1,12.9
	c-6.1-5.2-43.8,0.4-58.7-0.4c-14.9-0.8-53-15.3-77.4-22c-27.5-12.5-43.5-23-54.2-45.4c-15.1-31.5,12.5-53,11.2-94.8
	c-1-33.4-22.8-46.4-61.1-37.7c-41.2,9.4-21.4,55.8-19.1,62.3c2.3,6.5,9.3,16.4,12.9,15.7c3.6-0.8,4.9-4,0.4-10s-14.1-27.8-8.5-42.6
	s35.6-25.6,52.8-10.6c20.9,18.3,5.1,53.8-3,85.8c-8,31.9,24.9,69.1,31.9,73.4c6.9,4.3,14.8,13.7,14.4,21.4
	c-21.4,15.5-21.7,34.5-21.2,42.9c0.6,8.3,4.3,14.8,5.1,18.5c0.8,3.7-2.6,23-2.6,23s-16.6,8.8-27.3,20.4
	c-10.7,11.5-24.9,12.6-30.8,15.3c-5.8,2.6-5.6,6.7-4.9,13.3c0.8,6.7,3.7,25.7,4.5,30.5c0.8,4.9,6.2,9.4,6.2,9.4s7.3-0.6,8.3-0.2
	c1.1,0.2,6.9,1.9,9.9,2.1c3,0.2-1.3-2.6-1.3-2.6s1.9-1.3,6.4,1.3c4.5,2.6,3-4-1.3-6.9s-7.5-1.3-10.7-1.7c-3.2-0.2-6.2-11.5-6.7-14.8
	c-0.6-3.2,0.8-11.8,2.4-12.9c1.7-1.1,11.2-1.3,18.2-3s27.9-14.8,39.9-22.8s16.1-11.8,19.5-23c5.4,5.6,8.6,9.6,7.5,16.6
	c-1.1,6.9-5.1,24.4-7.3,32.4c-2.1,8-12.3,20.9-13.9,26.2c-1.7,5.4,7.5,9.2,12.9,12c5.4,3,15.5,2.4,19.3,2.6
	c3.7,0.2,12.9,3.7,15.5,3.5c2.6-0.2-0.2-2.4-2.6-4.5c3,1.7,18.7-0.8,18.7-0.8s1.7-0.8,3.2-2.4s-0.2-3.2-0.2-3.2s-0.2-3.2-3.2-3.5
	c-3-0.2-11,3.2-14.2,1.3c2.4-1.3,0.2-3.5-3-2.6c-3.2,0.8-10.1,1.3-13.9,1.9c-3.7,0.6-6.9-0.8-6.4-5.1c0.6-4.3,10.5-15,17.2-27.3
	c6.7-12.3,13.1-33.7,13.9-42.2c0.8-8.4-1.9-7.6-16.1-36.8c19.8,24.7,63,35.4,63,35.4s-4.3,4-7.3,7.3c-3,3.2-3.2,3.5-2.4,10.1
	c0.8,6.7-8.8,60.9-9.2,65.4c-0.2,4.5,4.3,12.3,5.1,15.3s5.1,3,8,3.2c3,0.2,5.1,3.5,7.3,3c2.1-0.6,0.6-1.9,0.6-1.9s2.6,1.9,4.9,1.9
	c2.1,0,1.3-2.6,1.3-2.6s4,2.6,4-0.6c2.4,1.7,3.5-0.6,3-1.3s-4.5-4.9-6.7-6.3c-2.1-1.5-8-0.3-9.4-2.2c-1.3-1.9-2.4-8-1.3-10.7
	c1.1-2.6,3.2-6.2,4.9-13.9s16.6-44.8,20.6-51.5c4.3-1.7,20.1-12.9,20.1-12.9s1.1,23.6,1.9,29.4c0.8,5.8,11,35.1,11.8,38.8
	c0.8,3.7,1.9,6.7,3.5,9.9c1.7,3.2,5.1,7.3,6.9,8.8c1.9,1.7,3.2,1.7,6.2,1.7c3,0,8.8,1.3,11.2,2.1c2.4,0.8,6.9,0.2,6.4-1.7
	c-0.6-1.9-9.4-3-8-3.5c1.3-0.6,8.3-1.1,11.5,0.2c3.2,1.3,4.5,2.4,4.5,0c-2.1-4.5-10.5-4.9-14.4-5.1c-4-0.2-4,1.9-9.9-2.6
	c-5.8-4.5-6.3-57.3-7.5-63.2c-1.2-5.8-2.3-9.5,2.1-19.3C420.9,281.1,429.3,256.9,429.9,251z"/>
</svg>
