<?xml version="1.0" encoding="utf-8"?>
<!-- Generator: Adobe Illustrator 24.0.0, SVG Export Plug-In . SVG Version: 6.00 Build 0)  -->
<svg version="1.1" id="Layer_1" xmlns="http://www.w3.org/2000/svg" xmlns:xlink="http://www.w3.org/1999/xlink" x="0px" y="0px"
	 viewBox="0 0 500 500" style="enable-background:new 0 0 500 500;" xml:space="preserve">
<style type="text/css">
	.st0{fill:#FFFFFF;}
	.st1{opacity:0.8;}
	.st2{opacity:0.7;}
</style>
<g>
	<g>
		<g>
			<path class="st0" d="M219.4,218.1c9.1-8.3,21.5-13.8,34.5-15.2c13-1.4,26.5,1.1,37.6,7.2c3.5,1.9,6.8,4.1,9.4,6.9
				c2.8,2.9,4.9,6.3,6.9,9.6c4.1,7,8,14.3,9.5,22.1c1.5,7.8,0.5,16.3-4.4,22.8c-3.3,4.3-8.1,7.6-13.1,10.4
				c-8.5,4.7-19.8,11.3-28.7,10.7c-10.3-0.7-10-3.6-17.1-4c-1.7-0.1-8.7,5.6-10.4,5.4c-5.5-0.6-7.1-3.6-12.7-4.7
				c-6.6-1.3-12.7-0.4-15.8-1.4c-6.5-2.1-7.9-4.8-12.7-9.2c-5.8-5.2-8.3-13.1-6.6-20.3L219.4,218.1z"/>
		</g>
		<g>
			<path class="st0" d="M236.6,288c-1.5,1.7-3.1,3.5-5.3,4.3c-1,0.4-2,0.5-3,0.8c-3.4,1-6.3,3.6-7.6,6.9c2.3-0.6,4.5-1.9,6.1-3.6
				c-1.5,2.4-2.1,5.3-1.9,8.2c1.8-0.1,2.9-1.8,3.6-3.5c0.7-1.6,1.4-3.5,3-4.2c0.1,1.8,0.1,3.6,0.2,5.4c0,1.2,0.2,2.5,1,3.4
				c0.2,0.2,0.5,0.4,0.8,0.3c0.2,0,0.4-0.2,0.6-0.4c1.9-2.4,1.2-6.6,3.8-8.2c0.8,2.6,1.8,5.1,3,7.4c0.2,0.4,0.6,0.9,1.1,0.9
				c0.4-0.1,0.6-0.5,0.7-0.9c1-3.5-0.2-7.3,1-10.8c0.7-2.1,2.2-3.9,2.2-6.1L236.6,288z"/>
		</g>
		<g class="st1">
			<path class="st0" d="M207.8,274.4c-1.7,3.3-3.3,6.7-5,10c-0.2,0.3-0.3,0.7-0.6,0.9c-0.4,0.3-0.9,0.3-1.3,0.4
				c-3,0.5-5.5,3.7-4.6,6.6c1.2-1.5,2.9-2.6,4.8-3.2c-1,1.8-1.5,4-1.3,6.1c1.8-1.4,3.5-3.1,5-4.9c-0.1,2.4,0,4.8,0.4,7.1
				c2.3-1.6,4.1-3.7,5.2-6.2c0.8,1.9,1.7,3.8,2.7,5.6c1.9-6.1,2-12.9,6.1-17.9L207.8,274.4z"/>
		</g>
		<g class="st1">
			<path class="st0" d="M308.3,273.9c3.2-0.4,6,2.2,8,4.7c2.1,2.5,4,5.3,4.7,8.5c-3.5-0.4-5.5-4.1-8.8-5.5c-0.1,2.8-0.1,5.5-0.2,8.3
				c-1.8-1.8-3.6-3.7-5.4-5.5c-0.1,2.2-0.4,4.4-1,6.5c-0.4-2-1.2-3.8-2.4-5.4c-1.7,2.1-3.6,4.1-5.7,5.9c-0.3-4.8,0.4-9.6,2-14.1
				L308.3,273.9z"/>
		</g>
	</g>
	<g class="st2">
		<path class="st0" d="M301.4,254.2c6.2-3.2,12.6-3,19.6-2.6c7,0.5,14.9,1.2,21.9,0.5c2.5-0.3,7.2-0.4,8-2.8
			c0.7-2.4-2.9-5.5-4.6-7.3c-1.8-1.8-3.7-4.2-2.9-6.6c0.8-2.6,4.1-3.4,6.9-3.6c8.3-0.6,28.3,2.4,39.8-2c-4.2,5.3-20.4,5.1-29,5
			c-1.4,0-9.6-1.1-11.2,1.6c-1.1,1.8,2.4,5.5,4,6.9c3.3,2.9,6.5,7.7,4.7,10.8c-1,1.7-2.9,2.7-4.8,3.3c-5.1,1.7-10.7,1.6-16.1,1.5
			c-6.6-0.1-13.2-0.2-19.7-0.3c-5.9-0.1-11.8-0.2-17.5,1.2L301.4,254.2z"/>
	</g>
	<g>
		<g class="st2">
			<path class="st0" d="M176.7,238.3c-5.3-7.2-10-14.8-14.1-22.8c-1-2-2-4.1-1.9-6.3c0.3-4.1,4.5-7.1,8.6-6.9c4.1,0.2,7.7,3,9.9,6.4
				c2.2,3.4,3.3,7.4,4.4,11.4c0.6,2.4,1.3,4.7,1.9,7.1L176.7,238.3z"/>
		</g>
		<g>
			<g>
				<path class="st0" d="M197.8,207.2c-17.1,6.6-30.8,21.3-36.3,38.8c-2.2,7-3.1,14.5-6.2,21.1c-1.1,2.3-2.4,4.8-1.4,7.1
					c0.3,0.8,0.9,1.5,1.6,2.1c5.4,5.4,13.8,7.7,21.2,5.8c4.1-1.1,7.8-3.3,11.8-4.9c7-2.9,14.6-4.1,22-5.9
					c7.4-1.9,14.8-4.7,20.1-10.2c4.4-4.7,6.9-11,7.5-17.5s-0.5-12.9-2.6-19.1c-0.7-2.2-1.6-4.4-3-6.4c-1.7-2.4-4-4.3-6.6-5.9
					c-6.4-3.9-14-5.9-21.5-5.5L197.8,207.2z"/>
			</g>
			<g>
				<path class="st0" d="M189.4,212.5c-15.6,5.5-26.5,22.2-25.3,38.7c0.4,5.2,2,10.5,5.3,14.6c4.2,5.1,10.8,7.7,17.3,8.3
					s13.1-0.6,19.5-2.1c9.2-2.2,19.2-5.8,23.6-14.2L189.4,212.5z"/>
			</g>
		</g>
		<g>
			<path class="st0" d="M197.6,217.9c-1.7-5.3-1.1-11.2,1.1-16.3s5.6-8.7,10.1-12c1.2-0.9,3.2-1.8,4.7-2.2c1.4-0.4,3-0.4,4.5-0.2
				c6.3,0.8,12.3,4.2,13.7,10.3c1.2,5.3-1.4,10.8-4.6,15.3c-3.3,4.6-7.2,8.8-11.6,12.3c-5.5-3-11.7-4.7-17.9-5L197.6,217.9z"/>
		</g>
	</g>
</g>
</svg>
