<?xml version="1.0" encoding="utf-8"?>
<!-- Generator: Adobe Illustrator 23.0.4, SVG Export Plug-In . SVG Version: 6.00 Build 0)  -->
<svg version="1.1" id="Layer_1" xmlns="http://www.w3.org/2000/svg" xmlns:xlink="http://www.w3.org/1999/xlink" x="0px" y="0px"
	 viewBox="0 0 600 400" style="enable-background:new 0 0 600 400;" xml:space="preserve">
<style type="text/css">
	.st0{fill:#FFFFFF;}
</style>
<g>
	<path class="st0" d="M361.6,115.6c3.2-0.6,5.3,0.3,7.7,2.7c2.1,2,4.3,4.5,7.2,4.6c-0.2-9.1-1.2-19.7-8.8-24.6
		c-1.2-10.7-13.5-20.3-23.9-17.9c-26.3,6.2-23.7,42.3-30.2,61.8c-3.8,11.5-13,20.4-21.9,28.7c-6.6,6.2-13.2,12.4-19.8,18.6
		c-11.2,10.5-22.9,22.8-35.9,30.9c-2.3,1.5-8.2,1.4-11.2,3c-3.6,1.9-7,4.3-10.6,6.2c-9.3,4.9-19.5,8.3-28.9,12.9
		c-4.3,2.1-8.4,4.6-12.1,7.6c-3.3,2.7-6.1,6.4-8.9,9.5c11.1,2,22.3-1.8,33.2,0.4c0.2,0,0.4,0.1,0.6,0c-0.4,0.4-1,1.2-0.8,1.4
		c-4.8-0.1-9.1,2.7-13.2,5.3c-5.4,3.6-10.9,7.2-16.3,10.8c-2.9,1.9-17.7,14.5-17.2,17.8c1.8,11,14.8,3.8,19.6,0.4
		c15.2-10.4,32.9-16.5,50.4-22.4c2.6-0.9,5.3-1.8,8-1.9c2.5-0.1,4.9,0.3,7.4,0.7c9.8,1.6,20.9,4.5,30.8,4.3
		c-1.6,3.3-0.4,7.7,2.7,9.8c2,1.3,4.5,1.9,6.7,3c3.2,1.5,10.7,11.8,12.2,16.5c-0.4-1.4-5.5-1.5-6.7-1.6c-3.3-0.3-7.1-1.1-8.4,1
		c-1.4,2.3,4.5,4.1,8.5,4.8c3.7,0.7,8.1-0.4,11.4,1.2c2.1,1,3.1,2.8,4.7,4.3c1.5,1.3,3.6,2.4,5.4,3.1c2.1,0.9,4.4,1.4,6.7,1.5
		c2,0.1,5-0.1,5.8-1.4c0.8-1.2-1.1-2.6-1.9-4.3c4.5,0.6,8.7-0.9,13.1-2c4.3-1,9.3-1.3,12.7,1.6c0.9-3.2-1.6-6.4-4.7-7.6
		c-2-0.8-4.3-1.1-6.4-0.6c-1.5,0.3-3,0.7-4.4,0.4c-1.5-0.2-2.8-1-4.2-1.6c-2.6-1-5.2-2.1-7.8-3.2c-5-2.1-9.8-4.5-14.7-6.9
		c-3.5-2.1-8.3-4.9-8.3-9c0.6-6,4.9-12.6,11.4-13.7c2.2-0.9,5.1-1.2,7.2-2c12.2-4.3,23.7-10.7,33.7-18.9c20.6-16.9,32-36,32.6-63.1
		c0.3-12.6-1.4-25.2-3.8-37.6C369.5,147.1,362.5,115.4,361.6,115.6z M351.3,226.4c-15.3,22.2-38.9,33.3-65.2,30.5
		c-4.2,0-8.3,1.4-13.2,2.1c-9,2.1-16.7,0.7-25-0.7c12.5-0.7,24.3-1.4,36.8-4.2c11.8-2.8,24.3,2.8,35.4-4.9
		c18.7-11.8,37.5-29.8,36.1-53.4c-0.7-8.1-8.6-14.9-16.7-15.9c8.7-3.4,18.1,4.5,19.5,11.7C361.7,204.2,358.3,216,351.3,226.4z"/>
	<path class="st0" d="M339.4,298.7c3.1-4.9-7.2-8.1-10-9.5c-2.6-1.2-3.3-0.8-5.9,0.1c-2.1,0.8-4.3,1.5-6.5,1.7
		c-3.4,0.3-6.6-0.6-9.3-2.7c-2.3-1.8-3.1-4.8-5.5-6.5c-1.2-0.8-2.5-1.6-3.3-2.9c-1.3-2.1,0-4.7,1.9-5.9c0.3-0.2,0.6-0.3,0.9-0.5
		c-6.1,1.1-10,7.1-10.6,12.7c0,3.8,4.5,6.4,7.7,8.3c7.7,3.8,16,7.7,25,10.9c0.8,0.3,0.4-0.9-0.1-1.2c-0.8-0.5-1.3-1.2-1.9-2
		c-0.3-0.5-2.2-3.7-2.9-3.5C325.7,295.7,333,296,339.4,298.7z"/>
</g>
</svg>
