<?xml version="1.0" encoding="utf-8"?>
<!-- Generator: Adobe Illustrator 24.0.0, SVG Export Plug-In . SVG Version: 6.00 Build 0)  -->
<svg version="1.1" id="Layer_1" xmlns="http://www.w3.org/2000/svg" xmlns:xlink="http://www.w3.org/1999/xlink" x="0px" y="0px"
	 viewBox="0 0 500 500" style="enable-background:new 0 0 500 500;" xml:space="preserve">
<style type="text/css">
	.st0{fill:none;}
	.st1{fill:#FFFFFF;}
	.st2{opacity:0.7;}
</style>
<path class="st0" d="M173.9,196.4c-0.1,1.5-0.2,3.2-0.3,4.9c0-0.7,0.1-1.4,0.1-2.1C173.8,198.3,173.9,197.3,173.9,196.4z"/>
<g>
	<g>
		<g>
			<path class="st1" d="M218.6,288.6c2.9,4.8,7.4,8.3,11.8,11.6c3.2,2.4,6.3,4.9,9.6,7.1c1.8,1.2,3.6,2.4,5.7,3s4.5,0.5,6.2-0.7
				c1.8-1.2,2.7-3.3,3-5.4c0.3-2.1,0-4.2-0.4-6.3c-0.3-2.1-0.7-4.3-1.6-6.2c-0.9-1.9-2.5-3.7-4.6-4.2L218.6,288.6z"/>
		</g>
		<g>
			<path class="st1" d="M247.7,307.2c-3.1,5.7-6.1,11.5-9.2,17.2c-0.3,0.5-0.6,1.1-1.1,1.5c-0.7,0.5-1.7,0.5-2.6,0.4
				c-3.9-0.2-7.9,0-11.8,0.4c-2.2,0.2-5.7,1.9-6.4,4c3.2-1.7,6.2-2.2,9.7-1.7c-2.6,0.5-3.8,1.4-5.9,3.1c-2.1,1.7-3.4,4.4-2.8,7
				c3.5-3.1,3.4-6.2,11.1-6.7c-2.3,2.2-3.8,5.4-3.2,8.8c1.6-1.6,3.1-3.4,4.4-5.3c0.8-1.1,1.5-2.3,2.6-3.1c1.5-1.2,3.4-1.7,5.3-2
				c2.8-0.5,5.6-0.7,8.4-0.6c1,0,2.1,0.1,3.1,0.5c1,0.4,1.8,1.3,1.9,2.3c1.2-1.5,0.1-3.8-1.6-4.7c-1.7-0.9-3.6-0.9-5.5-1.3
				c-0.2-0.1-0.5-0.1-0.7-0.3c-0.4-0.4-0.4-1-0.2-1.6c0.6-2.4,2.1-4.4,3.3-6.5c2.2-3.7,3.9-7.7,5.1-11.8L247.7,307.2z"/>
		</g>
	</g>
	<g class="st2">
		<g>
			<path class="st1" d="M207.4,284.4c0.5,2.5,2.1,4.6,3.8,6.5c4.2,4.8,8.9,9.1,14.2,12.7c1.3,0.9,2.7,1.8,4.2,2.3
				c3.4,1,7.3-0.2,9.8-2.7c2.5-2.5,3.8-6.1,3.9-9.7c0.1-3.6-0.9-7.1-2.3-10.4L207.4,284.4z"/>
		</g>
		<g>
			<path class="st1" d="M228.6,301.8c-3.4,4.6-7.1,8.9-11.2,13c-0.4,0.4-0.9,0.9-1.5,1.1c-0.5,0.2-1.1,0.1-1.6,0
				c-3.4-0.4-6.8-0.8-10.2-1.2c-2.1-0.2-4.3-0.5-6.4-0.1c-2.1,0.3-4.2,1.3-5.4,3.1c2.5-1.2,7.5-1.1,10.2-0.4c-4.4,0.9-6,3.2-6.8,5.6
				c2.6-1.6,5.1-3.3,8.8-2.7c-1.8,1.4-3.8,3.6-3.9,5.9c2-1.4,3.9-3,6.7-3.8c5.4-1.6,13.3-1.5,18.9-0.6c1.7,0.6,1.9,1.6,1.6,2.6
				c1.5,0,2.3-1.9,1.8-3.3c-0.5-1.4-2-2.2-3.3-2.7c-1.5-0.5-3-0.9-4.5-0.9c1.4-2.2,3.7-3.6,5.6-5.4c2.8-2.7,4.5-6.7,8.3-10
				L228.6,301.8z"/>
		</g>
	</g>
	<g>
		<g>
			<path class="st1" d="M337.1,273.3c13.1,5.1,25.5,12,36.7,20.5c-1.9,0.4-3.8,0.3-5.6-0.4c3.6,1.5,6.8,3.9,9.3,7
				c-1.9,0.8-4.2,0.6-6.1-0.4c1.9,1.7,3.5,3.7,4.9,5.8c-4.7,0.6-9.2-1.8-13.3-4.2c0.8,1.4,1.5,2.7,2.3,4.1c0.2,0.3,0.4,0.7,0.3,1
				c-0.1,0.8-1,1-1.8,1.1c-4.9,0.2-9.3-2.7-13.3-5.5c0.7,1-0.3,2.5-1.5,2.8c-1.2,0.3-2.4-0.2-3.6-0.7c-15.6-6.6-30.7-14.3-45.3-22.9
				L337.1,273.3z"/>
		</g>
		<g>
			<path class="st1" d="M304.2,266.7c16.9,2.1,33.6,5.4,50,9.9c5.5,1.5,11,3.1,15.9,6.1c1.1,0.7,2.3,2.2,1.4,3.1
				c-0.4,0.4-1,0.4-1.5,0.5c-2.6,0.1-5.1,0.1-7.7-0.1c2.9,0.5,5.7,1.5,8.2,3c-1.6,0.9-3.5,0.9-5.3,0.9c-23.5,0.1-46.3-7-68.8-14
				L304.2,266.7z"/>
		</g>
	</g>
	<g>
		<g>
			<g>
				<g>
					<path class="st1" d="M169.5,167.2c-5.1,3.4-10.4,6.6-15.8,9.4c-0.4,0.2-1,0.6-0.9,1.1c0.1,0.6,0.8,0.8,1.4,0.8
						c6.6,0.6,13.3,0.8,19.9,0.6L169.5,167.2z"/>
				</g>
				<g>
					<path class="st1" d="M214.7,183.7c-3.2-7.3-6.1-11.5-9.7-15.9c-7.1-8.8-18.6-15.3-29.4-12c-4.8,1.5-9.5,6.2-10.1,11.3
						c-1.3,5.4,3.6,10.8,6.1,15.8c2.1,4.1,2.4,11,2.2,15.2c-0.6,9.4,17.4,9.7,24.3,7.3C205.6,202.6,217.9,191,214.7,183.7z"/>
				</g>
			</g>
			<g>
				<path class="st1" d="M229.1,256.3c12.7-3.9,20-28.3,12.4-34.7s-14.6-15.3-19.9-24.5c-2.8-4.8-5.1-9.8-7.6-14.8
					c-4.8-8.6-10.7-11-18.5-12.2c-3.6-0.5-7.8,1.2-11,2.9c-1.7,0.9-3.2,2.2-4.6,3.6c-5,5.3-5.6,10.4-6.1,19.7c0,0.9-0.1,1.9-0.1,2.8
					c0,0.7-0.1,1.4-0.1,2.1c0,0.6-0.1,1.2-0.1,1.8c0-0.6,0.1-1.2,0.1-1.8c-0.5,8.7-0.7,10.5-1.5,19.2c-0.2,2.2-1.7,9.4-1.3,20.5
					c0.2,5.4,6.7,14.4,19.9,17.1C204.7,261,217.9,259.7,229.1,256.3z"/>
			</g>
		</g>
		<g>
			<path class="st1" d="M362.7,263.5c-26.9-2.5-54-6.3-79.2-16.3c-15.3-6.1-29.8-14.6-41.9-25.6c-6-2.8-12.2-5.1-17.9-6.3
				c-13-2.7-19.4-3.8-32.3-0.4c-4.3,1.1-8.9,4.4-12.4,7.1c-3.9,3.1-6.5,7.4-8.1,12.1c-0.2,3.3-0.2,6.5,0.1,9.8
				c1.1,11,6.3,21.3,13.7,29.5c7.4,8.2,16.8,14.3,26.8,18.9c24.7,11.3,53.6,13.3,79.6,5.3c18.8-5.8,38.3-17.8,55.7-19.4
				c17.4-1.5,27.7-7.6,27.5-10.3C374.2,265.5,366.4,263.9,362.7,263.5z"/>
		</g>
	</g>
</g>
</svg>
