<?xml version="1.0" encoding="utf-8"?>
<!-- Generator: Adobe Illustrator 23.0.4, SVG Export Plug-In . SVG Version: 6.00 Build 0)  -->
<svg version="1.1" id="Layer_1" xmlns="http://www.w3.org/2000/svg" xmlns:xlink="http://www.w3.org/1999/xlink" x="0px" y="0px"
	 viewBox="0 0 600 400" style="enable-background:new 0 0 600 400;" xml:space="preserve">
<style type="text/css">
	.st0{fill:#FFFFFF;}
</style>
<path class="st0" d="M443.2,49.3c0,0-9.5,0.6-10.4,0c-0.9-0.6-8.6,3.4-11,5.2c-2.4,1.8-11.9,9.8-12.8,14.4c-0.9,4.6,0,18.3,1.8,22.9
	c1.8,4.6,4.3,13.7,4.3,13.7l-4,1.8c0,0-3.4-7-9.5-4.3c-6.1,2.7-18.9,2.7-28.4,9.5c0,0-22.9,2.4-25.7,2.4s-39,1.8-58.7,9.5
	c0,0-48.6,18.9-56.2,40.9c-1.5,2.7-1.5,1.5-1.5,2.7c0,1.2-25.1,23.2-25.1,23.2s-10.1,9.5-10.1,12.2s0,4.9,0,4.9s-18.9,17.1-19.6,18
	c-0.6,0.9-6.4,8.2-6.4,8.2l6.4-2.1c0,0-18.9,18.9-21.7,22c-2.7,3.1-15,17.4-15,19.6c0,2.1-12.2,9.8-12.2,9.8s-16.2,11.9-16.2,15.3
	s1.8,7.9,11,6.1c0.3,5.2,2.1,7.6,2.1,7.6s-4.6,8.2,1.8,8.6c6.4,0.3,19.9-4.3,20.8-5.2c0.9-0.9,36-26.6,36-26.6s18.3-3.7,20.8-4.6
	c5.5,3.7,29.6,3.1,29.6,3.1s19.2-4.3,20.5-4.6c1.2-0.3,13.4,2.1,14.4,2.1s18,0,21.7-2.7c0,4.6,0.6,5.8,1.5,5.8s7.3-5.2,8.2-5.2
	s18.9-8.2,18.9-8.2l0.3,4.3l-4.6,3.7l2.4,1.2l0.9,10.4c0,0-1.8,6.7-2.7,9.2c-0.9,2.4,0,11,2.1,11.9c2.1,0.9,12.2,2.1,12.2,2.1
	s2.4,0.9,2.4,1.8c0,0.9-0.6,14.7-0.6,14.7l-5.5,3.7l-1,1.7l-1.7,2.9c0,0,5.2-0.6,6.7,0c1.5,0.6,2.7-0.3,3.7,1.5
	c0.9,1.8,2.4,2.4,3.7,2.7c1.2,0.3,3.4,4.6,4.3,5.5c0.9,0.9,14.7,10.1,17.7,11c3.1,0.9,4.6-1.2,5.5,0c0.9,1.2,3.7,3.4,3.7,3.4
	s1.5-5.8-4.6-7.3c-6.1-1.5-14.1-8.9-14.1-8.9l-1.5-2.4c0,0,23.8,0,30.2,2.7c6.4,2.7,7,2.1,10.4,0.3c3.4-1.8,6.1-4.6,7-4.6
	c0.9,0,6.4,0.6,6.1,4.3c-1.5-6.1-6.1-7-11-6.4c-4.9,0.6-14.4-2.4-14.4-2.4L361,341c0,0,3.1-1.5,3.7-3.1c0.6-1.5,2.4-1,5.2,0.6
	c-4.6-2.1-2.7-5.8-8.9-3.7c-2.8,1-11.6,3.7-12.5,3.7c-0.9,0-5.5-1.2-6.1-2.1c0,0,0.6,3.7-2.1-4.3c-2.7-7.9-0.6-12.8-0.6-12.8
	s4.3,0.3,7,0c2.7-0.3,4.9-1.2,6.7-2.7c1.8-1.5,4.3-1.8,5.2,0.6c0.9,2.4,0.9,2.4,0.9,2.4s1.5-6.7-4.3-6.1c-5.8,0.6-8.6,0-8.6,0
	l-1.8-1.2c0,0,2.1-1.8,4.6-3.1c2.4-1.2,7.3-2.1,9.8-3.4c2.4-1.2,2.1-3.4,3.1-4.3c0.9-0.9,2.1-1.5,4.6-0.6c-3.1-3.7-5.2-2.1-7.6-0.9
	c-2.4,1.2-5.5,1.2-6.7,1.8s-3.7,0.9-3.7,0.9s0-4.3,3.1-5.8c3.1-1.5,2.7-3.1,4-3.7c1.2-0.6,0.3-5.8,1.2-6.1c0.9-0.3,4,0,4-0.9
	c0-0.9-1.5-8.6-0.6-8.9c0.9-0.3,2.4,0,2.4,0l-0.3-15.6l1.8,2.4c0,0-0.6-4.6,2.7-7c3.4-2.4,17.1-17.4,20.5-19.9
	c3.4-2.4,27.5-30.5,31.2-39c3.7-8.4,10.4-24.6,12.8-30.1c2.4-5.5,1.5-6.4,3.7-9.5c2.1-3.1,4-5.8,4.3-3.7c0.3,2.1,0.3,2.1,0.3,2.1
	s0.6,1.8,3.4-6.1c6.4,4,7,7,7,7s3.4-11.9,3.7-16.8c0.3-4.9,0.6-10.7,2.1-13.1c1.5-2.4,3.7-3.7,4.6-6.1c0.9-2.4,1.2-3.7,0-4.6
	c-1.2-0.9-2.1-2.7-0.6-2.7c1.5,0,3.4,2.4,3.1,0c-0.3-2.4-1.8-5.2-3.4-7.3c-1.5-2.1-1.8-3.1,0.3-2.7c0,0-2.1-4.6-8.9-9.5
	c-1.8-8.9-4.6-11.6,0.6-14.1c5.2-2.4,8.6-2.1,11.3-4.9c2.7-2.7,7.6,0.3,8.8,0.3c1.2,0,11.3-1.5,11.3-1.5s3.4,1.5,2.4,4.3
	c4-6.4,4-12.2,0.2-15.9c-0.8-5.8-4.4-12.7-6.6-14.4c-2.1-1.8-4.9-4.5-8.2-7.6c-3.4-3.1-2.1-4.9-5.5-5.5c-3.4-0.6-4.3,0.6-5.2,0
	s0.3,0.6-3.1-0.2c-3.4-0.7-2.4-2.6-5.8-2.6s-3.7-1.8-5.5,2.7s-3.4,4.6-3.4,4.6S438.3,45.6,443.2,49.3z"/>
</svg>
