<?xml version="1.0" encoding="utf-8"?>
<!-- Generator: Adobe Illustrator 24.0.0, SVG Export Plug-In . SVG Version: 6.00 Build 0)  -->
<svg version="1.1" id="Layer_1" xmlns="http://www.w3.org/2000/svg" xmlns:xlink="http://www.w3.org/1999/xlink" x="0px" y="0px"
	 viewBox="0 0 500 500" style="enable-background:new 0 0 500 500;" xml:space="preserve">
<style type="text/css">
	.st0{fill:#FFFFFF;}
	.st1{opacity:0.7;}
</style>
<g>
	<g>
		<path class="st0" d="M138.1,168.6c1.9,6.8,7.8,13.5,14.9,14.1c7.3,0.7,14.7,1.2,22,0.5c10.2-0.9,20.1-4.1,30.2-5.8
			c17-2.8,34.6-1.3,50.8,4.5c11.7,4.1,22.6,10.3,34.2,14.5c15.7,5.6,32.6,7.3,48.4,13c2.2,0.8,4.6,1.8,5.7,3.9s0,5.4-2.3,5.4
			c2.8,0.4,3.4,5.1,0.8,6.2c1.8,1.1,2.9,3.2,2.9,5.4c-1.7,0.5-3.4,1.1-5.1,1.6c21.4,9.9,37.4,28.4,54.9,44.2
			c10.5,9.4,21.7,18,33.5,25.7c-2.1,0.8-4.2,1.5-6.4,2.3c1.8,0,3.4,1.6,3.3,3.4c-2.3,0.3-5.4,2.6-3.6,4.1
			c-5.6,1.1-11.2-0.9-16.5-2.9c-13.7-5.1-27.4-10.2-41.1-15.3c-3.4-1.3-6.8-2.5-10.4-2.9c-3.5-0.4-6.9,0.1-10.4,0.6
			c-29.8,4.3-60.3,11.5-89.6,4.8c-6.7-1.5-13.4-3.8-20.3-4c-7.5-0.2-14.9,2-22.4,3.2c-16.2,2.6-33.2,0.1-48-7
			c-4.7-2.3-9.3-5-13.1-8.6c-7.4-7.1-11.5-16.8-15.5-26.3c-4.3-10.5-8.7-21.1-13-31.6c-2.9-7-5.8-14.2-6.8-21.7
			c-0.9-7.6,0.4-15.7,5.2-21.6c2.6-3.1,6.3-5.6,10.4-5.4L138.1,168.6z"/>
	</g>
	<g>
		<g>
			<path class="st0" d="M140.7,157.1c1.6-2.6,9.6-18.4,11.7-27.5c1.6-7-1.3-14.5-6.7-19.3c-5.3-4.8-12.7-6.9-19.8-6.7
				c-4.2,0.1-8.7,1.2-11.5,4.3c-1.7,1.9-2.7,4.3-4.6,6c-2.1,1.9-5,2.7-7.6,3.9c-5.1,2.5-9,7.4-10.2,13c5.7-2.3,11.9-3.3,18.1-2.9
				c0.9,0.1,1.8,0.2,2.5,0.7c1,0.7,3.3,4.5,3.6,5.7c0.3,1.5-1.5,8-1.1,9.3c3.2,9.3,10,15.2,20.4,17
				C135.4,160.7,139.1,159.7,140.7,157.1z"/>
		</g>
		<g>
			<path class="st0" d="M138.5,140.8c-1.8,3.7-1.7,10.7-0.2,14.8c4.5,13,2.5,16.2,0.8,22.7c-0.5,1.8-4.2,3-4.9,4.7
				c-1.5,3.7-5.2,4.9-8.5,5.1c-3,0.2-6.5,3.6-9,1.6c-1.2-0.9-3-2.3-4-3.5c-1.6-1.9-2.2-7.5-3.2-9.9c-1-2.4-1.4-5.5-0.3-7.9
				c0.4-0.9,1-1.7,1.4-2.6c0.6-1.4,0.7-3,0.9-4.6c0.8-5.8,3.6-10.9,6.3-15.7c1.6-3,3.4-6.1,5.9-7.7L138.5,140.8z"/>
		</g>
	</g>
	<g>
		<g>
			<path class="st0" d="M223.7,284.6c7.1,5.9,15.1,10.6,23,15.3c3.3,2,6.6,3.9,9.9,5.9c2.8,1.7,5.6,3.4,8.8,4.2
				c3.1,0.8,6.7,0.6,9.4-1.2c3.9-2.7,4.9-8.3,3.4-12.9c-1.5-4.5-4.9-8.1-8.3-11.4c-3.6-3.4-7.4-6.5-11.3-9.5c-1.7-1.3-3.5-2.5-5.5-3
				c-2.3-0.6-4.7-0.3-7,0.1c-4.9,0.8-9.6,2.1-14.3,3.6L223.7,284.6z"/>
		</g>
		<g>
			<path class="st0" d="M270.4,307.6c-8,21.7-17.4,42.9-28.2,63.5c-1,1.8-2,3.7-3.7,5c-1.5,1.1-3.3,1.5-5,2
				c-6.2,1.6-12.5,3.1-18.7,4.7c10.5,1.8,21.5,0.4,31.1-4c-5.1,4.5-10.3,9-15.4,13.5c10.5-5.6,21.9-12.3,25.2-23.8
				c2.2,6,5.7,11.5,10.2,16c-1.1-8.1-7.7-15.1-7.1-23.3c0.3-4.7,3-8.9,5.4-13c4.8-8.3,8.8-17.1,11.9-26.1c2.2-6.5,3.7-14.6-1-19.7
				L270.4,307.6z"/>
		</g>
	</g>
	<g class="st1">
		<g>
			<path class="st0" d="M220.1,272.5c3.1,5,6.1,10.1,9.2,15.1c0.9,1.5,1.8,3.1,2.3,4.8c0.4,1.7,0.3,3.4,0.1,5.1
				c-0.4,4-1.2,8-2.4,11.9c-0.6,1.9-1.2,4.3,0.2,5.8c0.5,0.5,1.2,0.9,1.8,1.2c2.8,1.2,5.9,1.9,8.8,1c4.6-1.3,7.3-6,9.5-10.3
				c3.5-6.8,7-13.7,8.1-21.2c0.8-5.3-0.5-11.8-5.5-13.8L220.1,272.5z"/>
		</g>
		<g>
			<path class="st0" d="M234.9,311c-6.9,8.2-14,16.1-21.5,23.8c-16.2,16.6-35.2,32.7-58.3,35.4c-4.6,0.5-9.4,0.6-13.4,2.8
				c9-1.5,18.2-2.5,27.3-3.2c-4.2,2.8-8.2,5.8-12.1,9.1c13.2-2.7,25.9-7.5,37.7-14.1c3.1,3.9,6.2,7.8,9.3,11.7
				c0.5-6.3-3.9-12.8-1.4-18.5c0.8-1.9,2.2-3.4,3.7-4.8c12.6-13,25.1-25.9,37.7-38.9L234.9,311z"/>
		</g>
	</g>
</g>
</svg>
