<?xml version="1.0" encoding="utf-8"?>
<!-- Generator: Adobe Illustrator 24.0.0, SVG Export Plug-In . SVG Version: 6.00 Build 0)  -->
<svg version="1.1" xmlns="http://www.w3.org/2000/svg" xmlns:xlink="http://www.w3.org/1999/xlink" x="0px" y="0px"
	 viewBox="0 0 500 500" style="enable-background:new 0 0 500 500;" xml:space="preserve">
<style type="text/css">
	.sttest{fill:#23a7e2;}
	.st0{fill:#FFFFFF;}
</style>
<g id="Layer_2">
	<g>
		<g>
			<path class="st0" d="M179.6,309.3c-9.1,9.4-22.4,13-34.3,18.4c-1,0.4-2,0.9-2.6,1.9c-1.5,2.5,1.4,5.2,4,6.4
				c10.7,4.8,23.2,4.9,34.6,1.8s21.6-9.4,30.8-16.8L179.6,309.3z"/>
		</g>
		<g>
			<path class="st0" d="M344.5,351.7c-10.6,2.7-21.4,4.7-32.2,6.2c-6.1,0.8-13.1,1.8-18.1-1.1c-2.9-1.6-5.2-6.3-1.4-10.5
				s14.5-6.2,23.3-6.9c-3.3-3.7-7.8-6.1-11-9.9s-4.6-9.9-1.1-13.4l39.2-5.3l26.3,35.7L344.5,351.7z"/>
		</g>
		<g>
			<g>
				<path class="st0" d="M175.3,210.1c-11.7-5.1-22.4-2.5-34,2.9c-17,8-25.9,7-36.2,9.3c-4.3,1-13.3,4.9-15.6,8.6
					c-4.2,7-2.7,15.1,0,21.9c7.8,19.5,25.5,32.1,45.2,39.6c17,6.5,24.8,5.3,43,5.4c8.2,0.1,16.7,0.1,24-3.5
					c7.9-3.8,13.4-11.2,18.5-18.3c2.6-3.5,5.2-7.2,6.1-11.4c2-8.9-3.5-17.6-9.1-24.8C205.1,224.5,193.5,218.1,175.3,210.1z"/>
			</g>
			<g>
				<path class="st0" d="M190.1,230.1c18.9-7.8,26.4-29.7,36.5-47.4c18-31.3,50.5-54,86.1-60.1c2-0.3,4.2-0.6,5.8,0.6
					c2.7,2,1.9,6.2,0.7,9.4c-3.8,10.5-7.7,21.1-13.1,31c-21.5,39.2-64.2,61.2-104.5,80.8L190.1,230.1z"/>
			</g>
			<g>
				<path class="st0" d="M163.3,213.2c4.7-21.3-1.8-43.2-6.4-64.5s-7.1-45,4.4-63.5c16.1,28.3,32.7,58.6,31.2,91.1
					c-0.8,17.9-7.2,35.4-18.2,49.6L163.3,213.2z"/>
			</g>
		</g>
		<g>
			<path class="st0" d="M222.1,316c-14.4,16.6-31.3,30.9-50,42.3c-2.4,1.4-4.8,2.9-6.5,5.1c-1.7,2.2-2.6,5.3-1.3,7.8
				c1,1.9,3,3.1,5,4c15.6,6.9,34.6,1.5,47.8-9.3s21.8-26.2,29.3-41.6L222.1,316z"/>
		</g>
		<g>
			<path class="st0" d="M409.6,304.9c1.9-10.4,1.3-17.5-1.4-25.9c-6.9-21.7-28.9-35.8-51.3-40s-45.4-0.1-67.7,4.2
				c-22.4,4.3-45.2,8.7-67.7,5.4l-56.3,43.5c4.5,14.4,18.5,26,32.4,31.8C260.6,350.4,344.5,351.7,409.6,304.9z"/>
		</g>
		<g>
			<path class="st0" d="M395,260.5c0-3.6,2.3-7,5.4-8.9c3.1-1.9,6.8-2.6,10.4-2.8c5.7-0.2,11.6,1.1,16.1,4.7
				c7.4,6,8.5,17.9,3.4,25.9c-5.2,8-15.6,11.9-25,10.4L395,260.5z"/>
		</g>
		<g>
			<path class="st0" d="M409.6,304.9c-1.7,9.7-5.7,19.1-11,27.4c-10.1,15.7-19.2,30.4-38.3,39.2c-13.1,6-21.8,7.9-33.3,8.3
				c-3.1,0.1-6.4-0.1-9.2-1.7c-2.7-1.6-4.6-5-3.5-8c0.8-2.3,3.1-3.7,5.3-4.9c7.9-4.4,16.1-8.3,24.4-11.8
				c-13.4,0.9-26.4-10.2-27.6-23.5c-1.2-13.3,9.6-26.6,22.9-28.1L409.6,304.9z"/>
		</g>
	</g>
</g>
</svg>
