<?xml version="1.0" encoding="utf-8"?>
<!-- Generator: Adobe Illustrator 23.0.4, SVG Export Plug-In . SVG Version: 6.00 Build 0)  -->
<svg version="1.1" id="Layer_1" xmlns="http://www.w3.org/2000/svg" xmlns:xlink="http://www.w3.org/1999/xlink" x="0px" y="0px"
	 viewBox="0 0 600 400" style="enable-background:new 0 0 600 400;" xml:space="preserve">
<style type="text/css">
	.st0{fill:#FFFFFF;}
</style>
<path class="st0" d="M501.1,93.5c-4.1-7.4-12.7-8.9-19.9-5.3c-7.2,3.6-8.6,5.3-8.6,5.3s-11.3-7.4-29.1-17.5
	c-17.8-10.1-31.7-15.4-31.7-15.4S400.5,30.8,377,27.2c-23.5-3.6-39.1,7.4-50.1,15.4c-10.9,7.9-15.2,10-25.1,7.9c0,0-16.1-5-38.7-2.6
	c-22.6,2.4-71.1,8.6-102.8,39.9c-31.7,31.2-51.9,74.9-52.3,113.8c-0.5,38.9-3.8,90.8-5.3,106.1c-1.4,15.4-10,34.9,0,41.4
	c10,6.5,51.4,11.9,63.6,2.9c12.2-9-1.1-20.9,1.1-32.4c2.2-11.5,16.6-40.3,14.8-46.8c-1.8-6.5-13.7-15.5-18-22
	c-4.3-6.5-6.1-12.6-6.1-12.6s12.2,22,28.5,28.5c16.2,6.5,46.8,14.4,61.2,17.3c14.4,2.9,11.2,0.7,12.6-16.9
	c1.4-17.6,17.6-69.2,17.6-69.2s-14.4,66.3-14,90c0,1.1,0,2.3,0,3.5c-6.4,0-19.1,0-19.1,0s-4.2,19.9-4.2,31.9c0,12,2.9,32.7,7,33.6
	c2.8,0.6,14.5,0.8,21.3,0.6c1.1,3.6,2.6,6.4,4.3,8.2c10.1,10.4,11.5,7.6,31,7.2c19.5-0.4,43.2,1.8,54.4-1.4
	c11.2-3.2-2.5-13.3-10.4-20.9c-7.9-7.6-11.2-23.4-13.7-48.6c-2.5-25.2,9-46.5,14.4-48.6c5.4-2.2,10.8,16.2,22,31
	c11.2,14.8,20.2,33,19.2,44.5c-1,11.5-9.6,22.3-4.1,27.6c5.5,5.3,45.4,2.9,56.2-4.3c10.8-7.2,9.6-46.6,0-68.7s-9.1-31.2-19.5-35.5
	c-10.3-4.3-25.2-20.7-25.2-20.7s28.1,19.7,39.6,23.1c11.5,3.4,22.6-0.7,24-11.5s1.2-24.3,3.8-27.4c2.6-3.1,25.5-32.2,28.3-51.9
	c2.9-19.7,1-41.5,1-41.5S505.2,100.9,501.1,93.5z"/>
</svg>
