<?xml version="1.0" encoding="utf-8"?>
<!-- Generator: Adobe Illustrator 23.0.4, SVG Export Plug-In . SVG Version: 6.00 Build 0)  -->
<svg version="1.1" id="Layer_1" xmlns="http://www.w3.org/2000/svg" xmlns:xlink="http://www.w3.org/1999/xlink" x="0px" y="0px"
	 viewBox="0 0 600 400" style="enable-background:new 0 0 600 400;" xml:space="preserve">
<style type="text/css">
	.st0{fill:#FFFFFF;}
</style>
<path class="st0" d="M378.3,90.4c-5.4-1.5-11.2,0.4-16.8-0.5c-8.1-1.4-13.8-8.4-20-13.8c-1.6-1.4-3.4-2.8-5.6-3.4
	c-4.4-1.1-6.4,2.1-6.2,6.3c0.3,6.1,0.2,12.1,1.1,18.2c0.3,1.8,3.2,6.7,3.4,8.6c0.4,3.9-1.1,7.9-1.3,11.8c-0.6,11,0.1,22-0.5,32.9
	c-0.2,4.1-1.8,8.3-3.7,11.9c-2.9,5.6-9.1,8.6-13.9,12.7c-5.2,4.4-8.9,10.1-12.4,15.9c-2.9,4.9-5.7,9.9-8.3,15
	c-7.3,14.3-13.3,29.2-19.2,44.1c-1.2,3.1-2.5,6.2-3.3,9.5c-2.2,8.4-1.6,17.5,1.7,25.5c-8.9,1.4-17.7-1.7-26.2-3.7
	c-8.5-2-17.4-2.1-25.7-4.7c-10-3.2-12.7-16.3-20-22.6c-3.1-2.7-8.3-4-11.4-1.3c-1.9,1.7-2.5,4.3-2.7,6.8
	c-1.6,14.6,5.2,35.6,16.9,44.3c21.6,16.1,48.8,3.4,72.4,12.7c10.3,4.1,19.1,7,30.2,8.1c7.7,0.8,15.4,1.5,23.1,2.3
	c2.6,0.3,5.2,0.5,7.7-0.1c3.6-0.8,7.3-3.3,10.7-1.8c4.8,2.1,10.4,3.7,15.6,4c3.5,0.2,7.3-0.2,10.2-2.2c0.8-0.5,1.5-1.2,2.4-1.5
	c2.5-1,5.2,0.6,7.9,0.6c4.8,0,8-5.3,8.2-10.2c0.2-4.8-1.6-9.5-1.8-14.3c-0.4-8.7,4.1-16.9,4.4-25.6c0.2-5.5-1.3-11.1-0.9-16.6
	c0.2-2.8,0.9-5.6,1.5-8.3c3.2-13.4,5.7-26.9,7.6-40.6c1.1-8.1,7.4-16.1,8.8-24.2c1.4-8,0.9-16.6-3.1-23.7c-1-1.7-2.1-3.4-2.9-5.2
	c-0.8-2.1-1-4.3-1-6.5c0.1-6.2,1.9-12.2,2.9-18.4c1.1-6.1,1.3-12.7-1.5-18.2c-0.9-1.8-2.2-3.5-2.9-5.4c-2.8-6.9,1.2-17.8,1.5-25
	c0.3-8.2-4.5-17.5-12.8-10.8C391,74.3,378.5,90.5,378.3,90.4z"/>
</svg>
