<?xml version="1.0" encoding="utf-8"?>
<!-- Generator: Adobe Illustrator 23.0.4, SVG Export Plug-In . SVG Version: 6.00 Build 0)  -->
<svg version="1.1" id="Layer_1" xmlns="http://www.w3.org/2000/svg" xmlns:xlink="http://www.w3.org/1999/xlink" x="0px" y="0px"
	 viewBox="0 0 600 400" style="enable-background:new 0 0 600 400;" xml:space="preserve">
<style type="text/css">
	.st0{fill:#FFFFFF;}
</style>
<g>
	<path class="st0" d="M314.3,292.7c-0.8-3.6-2.8-6.8-4.4-10.1c-4-8.3-5.4-17.8-3.9-26.9c0.6-4.1,1.8-8.1,1.6-12.2
		c-0.1-2.4-0.8-4.8-2.1-6.7c-8.2-1.9-16.6-3.8-24.9-3.4c0.9,7.2,3.2,14.2,6.8,20.6c3.2,5.7,7.4,10.9,9.7,17c2,5.6,2.4,11.6,2.7,17.5
		c0.4,7.6,0.4,16.4-5.2,21.6c-2.7,2.6-6.8,4.4-7.4,8.1c5.1,0.8,10.3,0.7,15.4-0.3c3.7-0.7,7.5-2.1,9.8-5.1c2.3-2.9,2.4-7.8-0.6-10
		C314.5,300.6,315.1,296.3,314.3,292.7z"/>
	<path class="st0" d="M537.5,220.7c-1-7.2-3.4-14.2-7.9-20c-0.3-0.4-0.7-0.9-0.9-1.4c-0.1-0.5,0-1.2,0.5-1.5
		c0.5-0.3-10.6-14.5-14.6-23.4c-6.9-15.2-7.1-32.9-15-47.6c-3.4-6.3-8.2-11.8-14-16.2c-5.6-12.2-14.1-23.3-26.5-28.1
		c-5.9-2.3-12.3-3-18.7-3.5c-8.6-0.6-17.4-0.6-26.1-0.4c-20.3,0.6-40.8,2.6-61.1,1.9c-36.4-1.3-72.8-1.3-109.2-1.3
		c-6.3,0-12.7,0-19,0.6c-21.4,1.9-43.3,4.9-64.5,8.1c-12.3,1.9-26.8,3-35.2-6.1c-2.2-2.4-3.9-5.5-6.9-7c-6.2-3-12.9,2.9-16.5,8.8
		c-3.6,5.9-4.3,8.1-11.1,9.1c-5,0.7-12.6,2.7-16.7-0.1c1.4,6.5,8.1,11.4,14.7,10.6c-8.4,17.4-16.8,34.9-25.2,52.3
		c-1.4,3-2.9,6.1-2.5,9.4c0.5,4.1,3.9,7.4,7.8,8.9c3.9,1.5,8.1,1.5,12.3,1.4c1-2.7,4.5-3.3,7.4-3.5c13.5-0.8,27-1.7,40.5-2.5
		c5.4-0.3,11-0.7,16.2,0.9c9.7,2.9,16.4,11.5,22.5,19.6c2,2.6,3.9,5.4,5,8.5c0.8-4.4,0.7-8.9-1-13.5c-8.1-23.2-1-50.4,16.1-66.5
		c-6,13.1-13.1,26.2-14.1,41.3c-1,16.8,6.7,34.5-1.5,51.3c-4.7,19.7-9.3,39.4-14,59.1c-2,8.6-4.4,17.8-11,23.7
		c-8.7,7.8-14.8,18.5-21.8,27.9c5,4.2,12.5,4.5,18.7,2.4c6.2-2.1,11.5-6.2,16.7-10.3c0.1-16.8,8.5-32.5,18.1-46.3
		c4.8-6.9,9.9-13.7,14.8-20.6c2-2.9,4.4-6,6-9.1c0.8-1.5,1.1-3.3,2-4.8c0.9-1.6,2-3,3.1-4.4c1.8-2.3,3.7-4.6,5.1-7.2
		c1.4-2.6,2-5.7,3.2-8.5c1.8-4.4,3.5-9,4.8-13.6c2.6-9.1,3.7-18.6,1.8-27.9c-0.6-3-1.5-5.8-2.6-8.6c14.7,19.3,3.3,42.8-6.5,64
		c7.2,3.8,12.1,12.2,20.4,12.8c3.6,0.2,7.2-1,10.6-2.1c6.1-2,12.3-3.6,18.6-5c7.3-1.6,14.9-1.2,22.3-1.4c4.8-0.1,9.8,0.2,14.4,1.6
		c3,0.9,5.9,1.9,9,2.3c3.2,0.4,6.6,0.2,9.9,0.4c7.1,0.4,14.3,1.2,21.3,2.9c5.9,1.4,11.8,3.5,17.9,3c6.8-0.6,12.9-4.6,18.5-8.6
		c2.5-1.8,5.2-3.8,8.3-4.3c5.9-1,11.3,3.4,14.7,8.3c3.4,4.8,5.9,10.5,10.5,14.2c-1.8-13.5-6.3-26.7-14.7-38.7
		c-10.1-13.1-28.2-6-41.3-11.1c14.1,4,31.2-6,41.3,5c5.7,6.1,9.4,13.8,12.1,21.7c2.8,8.1,4.2,16.6,7.1,24.6c0.7,1.8,2.1,3.4,3.3,4.9
		c3.9,4.8,4.3,11.3,4,17.3c-1.1,20.5-9.8,40.6-23.9,55.5c-2.2,2.3-4.4,6.6-1.5,8.1c0.8,0.4,1.8,0.4,2.8,0.4
		c9.1-0.5,18.1-1.1,27.2-1.6c-1.6-4,1.5-8.2,2.1-12.4c0.3-2.2-0.1-4.3-0.2-6.5c-0.5-9.1,3.3-17.9,7-26.3c4-9.1,8.1-18.3,12.1-27.4
		c1.4-3.1,2.8-6.6,2-9.9c-1-4.2-5.3-7.7-4.3-11.8c6.9-2.4,12.3-7.8,15-14.4c-0.4-5.4,0.2-10.8,2.8-16.1
		c12.1-24.2,18.1-51.4,21.1-77.5c4,14.1,0,27.2-4,41.3c-5.2,14.8-13.1,32.7-17.7,47.1c11.9,5.6,20.8,16.8,24.8,29.4
		c4,12.8,3.2,26.9-0.9,39.7c-0.9,2.8-2,5.7-1.5,8.7c0.4,2,1.5,3.9,2.5,5.6c2.5,4.1,5,8.2,7.6,12.3c2.5,4.1,6.1,8.8,10.9,8.5
		c4.9-0.3,7.9-6,7.5-10.9c-0.4-4.9-3.2-9.2-5.5-13.6c-10-19.2-10.3-43.1-0.9-62.7c1.1-2.2,2.3-4.5,2.4-7c0.1-3.8-2.6-7.1-5-10.1
		c-5-6.1-9.8-12.7-12.3-20.2c-2.6-7.5-2.8-16.1,1-23.1c7.3-13.5,5.6-31.2,2.9-46.3c-0.1-0.4-0.2-0.8-0.2-1.2
		c2.3,3.3,4.2,6.9,5.8,10.5c4.8,10.9,7.1,22.8,9.6,34.4c0.8,3.4,1.6,6.8,3.2,9.9c1.2,2.3,2.9,4.3,4.5,6.4
		c9.5,12.6,8.4,32.7,11.2,43.6c3,0.8,4-4.2,6.4-5.9c-0.2,2.3,0.1,5.2,1,7.2c0.7,1.5,2.1,3.2,3.9,3.5
		C539.9,235.4,538.5,227.9,537.5,220.7z"/>
</g>
</svg>
