<?xml version="1.0" encoding="utf-8"?>
<!-- Generator: Adobe Illustrator 23.0.4, SVG Export Plug-In . SVG Version: 6.00 Build 0)  -->
<svg version="1.1" id="Layer_1" xmlns="http://www.w3.org/2000/svg" xmlns:xlink="http://www.w3.org/1999/xlink" x="0px" y="0px"
	 viewBox="0 0 600 400" style="enable-background:new 0 0 600 400;" xml:space="preserve">
<style type="text/css">
	.st0{fill:#FFFFFF;}
</style>
<path class="st0" d="M514.4,140.6C514.4,140.6,514.4,140.5,514.4,140.6l-28.3-20.2c5-16.3-7.5-27-16.3-32.4
	c2.7-4.4,12.2-19.6,17.1-25.6c5.8-7.1-7.7,2.3-7.7,2.3c-4.7,1.1-11.5,5.9-16.3,9.8c-0.2-3.4-0.7-5.4-0.7-5.4s-2.9-8.5-4-3.3
	c-1,5.2-4.6,7.3-4.6,7.3c-4.4,2.8-8,6.2-11,9.7c-20.6,2.5-31.7,17.2-31.7,17.2c-14,6.1-35.9,23.8-39.5,26.6
	c-9.2,0.2-39.4,1.6-59.3,10.4c0,0-22.6-0.3-36.7-3.2c-12.2-2.5-52.9-6.7-79.2,15.1c-7,2.5-98.6,33.4-101.5-41.6
	c0.1,2.4-4.7,8.3-5.7,10.8c-3.7,9.1-4.9,19-3.3,28.4c3.8,21.5,25.2,46.5,51.7,45.7c15.2-0.5,29-7.6,41-16.8
	c-4.5,14-6.9,37.4,8.1,67.6c0.3,4.1,0.8,17.4-5.2,21.3c0,0-0.4,17.7-18.1,24.2c0,0,13.1,17.1,10.8,40.2c0,0,0,8.3,10.4,8.1l14.4-0.8
	c0,0,4.8-6.9-6.2-12.1c0,0-8.1-12.4-0.1-35.4c0,0,5-1.7,11.7-5.9c4.2,8.3,0.4,14.8,0.4,14.8c4.6,1.9,4,6.7,4,6.7
	c-1.7,8.9,4.9,12.9,4.9,12.9c21.2,8.1,25.7-0.3,25.7-0.3c-2.1-9.9-11.7-11.1-11.7-11.1c-15.1-14.4-0.1-27.8-0.1-27.8
	c24.5-22.2,30-46.3,30.5-61.9c7.5-1.8,16.8-1.6,27.2,4c15.3,8.2,40.4,22.4,66.5,25.1c0.1,4.4-0.2,10.5-2.2,13.1
	c0,0,5.3,6.4,6.3,18.9c1,12.5-3.8,19.9,1.4,28.9c0,0,12.2,6.9,9.6,20.7c0,0-0.8,11,3.1,11.7c5.3,1,9.1,1.2,10.7,1.5
	c10.6,1.9,14.2-1.7,14.2-1.7c0-6.5-3.1-9.9-3.1-9.9c-5.3-4.3-12.7-11.7-12.7-11.7c-6.1-26.6-0.2-60.2,1.8-69.8
	c1.1,3,2.2,6.9,2.6,11.8c1,12.5-3.8,19.9,1.4,28.9c0,0,12.2,6.9,9.6,20.7c0,0-0.8,11,3.1,11.7c5.3,1,9.1,1.2,10.7,1.5
	c10.6,1.9,14.2-1.7,14.2-1.7c0-6.5-3.1-9.9-3.1-9.9c-5.3-4.3-12.7-11.7-12.7-11.7c-7.2-31.4,2.4-72.5,2.4-72.5s1.3-1.8,3.2-5
	c4.9-4.5,15.1-16.5,15.4-37.1c0.3-1.5,0.5-3,0.7-4.6c8.3-12.7,17.1-21.4,23.1-26.5c6.7,1,11.8,0.8,11.8,0.8
	c30.8,18.7,44.4-0.4,44.4-0.4l0.6,0.1C517.7,148.1,514.5,140.8,514.4,140.6z"/>
</svg>
