<?xml version="1.0" encoding="utf-8"?>
<!-- Generator: Adobe Illustrator 23.0.4, SVG Export Plug-In . SVG Version: 6.00 Build 0)  -->
<svg version="1.1" id="Layer_1" xmlns="http://www.w3.org/2000/svg" xmlns:xlink="http://www.w3.org/1999/xlink" x="0px" y="0px"
	 viewBox="0 0 600 400" style="enable-background:new 0 0 600 400;" xml:space="preserve">
<style type="text/css">
	.st0{fill:#FFFFFF;}
</style>
<path class="st0" d="M360.3,214.6c6.6-13.6,25.1-28.5,25.1-28.5s17.4,55.6,14.9,73.1c-2.6,17.5-20.9,55.1-19.8,68.4
	c1,13.3,4.8,22.5-0.6,27.9c-5.5,5.4-16.3,9.2-33.4-9.2c0,0-0.6-9.8,1.5-20.9c2.7-14.6,1.7-21.5,2.5-25.8
	c1.7-9.2,11.1-22.1,12.7-32.5c1.7-10.4-6.7-35.9-6.7-35.9S355.6,224.2,360.3,214.6z"/>
<path class="st0" d="M543.8,198.2c0,0,7.5,3.2,18.4,1.8s19.2-11.8,19.2-11.8s-0.4,14.6-8.8,18.7c-8.3,4.2-18.4,5.4-28.8,3.8V198.2z"
	/>
<g>
	<path class="st0" d="M201,347.4c-9.1-6.7-15.9-11.1-18-25.7c-1.6-11.5-1.9-31.6-2-39.6c-12.3,0.4-33.3,0.9-46,0.2
		c2.9,4.5,8.2,15.3,8,33.3c-0.2,24.5-1.3,50.6,4.4,54c5.7,3.3,22.9,6.5,37.4,6.3c14.5-0.2,23.7-4.7,25.8-6.9
		C212.7,366.8,210.1,354.2,201,347.4z"/>
	<path class="st0" d="M541.6,215.6c0,0,1.3-24-9.5-53.1c-10.8-29.1-17.8-64.8-29.1-77.8c-11.2-13.1-4.3-31.8-18.9-40.5
		s-37.6-15.5-54.8-14.5c-17.2,1.1-23.7-3.7-35.9-3.4C369.2,26.7,356.7,14,330.6,15c-26.1,1-49.8,20.5-81.1,22.1
		c-31.3,1.6-44.3-14.2-103.4-9.1C87,33.2,39.2,74.6,25.3,114.8c-13.9,40.2-6.7,88.6-4,116.8c2.7,28.3,3.9,36.4,3.2,45.5
		c-0.8,9.1-2.5,23,9.8,41.4c0,0,5.9-13.7,3.5-28.5c-2.4-14.8-7.5-12-9-35.4s-6.6-42.4,0-55.7c0,0,8,48.8,20.3,69.8
		c12.4,21,17.3,38.6,14.5,59.2c-2.8,20.7-9.4,27.9-6.3,39.6s5.3,12.6,15.3,15.1c10,2.5,46-0.6,50.5-3.8c4.5-3.2-1.4-15.8-12.1-24.5
		c-10.7-8.7-10.5-17.6-11.3-32.6c-0.8-15,1.1-44,1.1-44s13,2,32.6,2.2c0,0,11.3-0.5,24.4-0.5s23.3-0.7,23.3-0.7s12.7-0.9,27.6-3.4
		c7.4-1.3,7.6-1.5,20.8-5.2c39.5-11.1,58.9-24.4,58.9-24.4s12.4,16.3,15.1,45.9c2.7,29.7,5.5,58.8-0.4,69.8
		c-5.8,10.9-5.8,20.3,5,21.5c10.9,1.2,47,4.5,50.4-1.6c3.3-6.1-9.6-19.3-14.5-24.6c-4.9-5.4,2.3-44.2,3.4-58.2
		c1.1-14,4.5-43.8,3.2-58.9c-1.3-15.1,7.5-34,18.8-44.3c5.8-5.3,11.4-10.3,16.9-14c-5.9-4.5-14.4-9.5-25-16.1
		c-16.3-10-25-12.1-33.8-18.8c-8.8-6.7-15.4-17.9-20.4-34.2c-5-16.3-7.5-25.3-3.2-37.3c5-14,11.9-24.7,31.5-38.4
		c19.1-13.4,38.4-8.3,38.4-8.3s-12.6,0.3-28,7.1c-15.4,6.8-40.7,38.9-39.9,51.8c0.8,12.9,10.3,48.8,28.7,58
		c14.4,7.2,42.2,23.7,56.1,33.4c0,0,0,0,0,0c0.8,0.6,1.6,1.1,2.3,1.6c0.1,0.1,0.3,0.2,0.4,0.3c0.2,0.2,0.5,0.4,0.7,0.5
		c0.2,0.1,0.4,0.3,0.5,0.4c0.2,0.2,0.4,0.3,0.6,0.5c0.2,0.1,0.4,0.3,0.5,0.4c0.2,0.1,0.3,0.3,0.5,0.4c0.2,0.1,0.3,0.3,0.5,0.4
		c0.1,0.1,0.3,0.2,0.4,0.3c0.2,0.2,0.3,0.3,0.5,0.4c0.1,0.1,0.2,0.2,0.2,0.2c0.2,0.2,0.4,0.4,0.6,0.6c5.4,6.3,8.4,3.1,9.2-5.7
		c0.1-0.6,0.1-1.2,0.2-1.8c0-0.1,0-0.3,0-0.4c0-0.5,0.1-1,0.1-1.4c0.6-8.5,1.1-19.8,8.2-34.7c8.1-17.2,13.1-35.5,8.5-50.6
		c-4.6-15-9.1-28.6-7.1-31c0,0,9.2,24.7,11.7,36.4c2.5,11.7-2.5,32.5-10,49.2c-5.6,12.4-6.8,25-7,30.7c6.5,0.1,12.8,1,20.1,4.6
		c11.2,5.5,18.4,12.7,37.4,14.4c18.9,1.7,26.7,6.1,28.9,16c2.2,9.9,14.8,65.2-0.4,98.5c-15.2,33.4-24.9,13.2-26.2,7.7
		c-1.3-5.5-12.9-8.2-17.9-1.6c-5,6.7-5.6,17.2,0,25c5.6,7.8,18.9,12.8,32.3,10.6c13.3-2.2,29.5-15,40-33.9
		c10.6-18.9,16.1-83.4,16.1-83.4s-25.7-6.9-36.5-25.1c0,0,17.3,13.4,33.5,19c16.3,5.6,34.6-2.2,39.6-8.3
		C579.1,218.9,554.9,221.1,541.6,215.6z"/>
</g>
</svg>
