<?xml version="1.0" encoding="utf-8"?>
<!-- Generator: Adobe Illustrator 23.0.4, SVG Export Plug-In . SVG Version: 6.00 Build 0)  -->
<svg version="1.1" id="Layer_1" xmlns="http://www.w3.org/2000/svg" xmlns:xlink="http://www.w3.org/1999/xlink" x="0px" y="0px"
	 viewBox="0 0 600 400" style="enable-background:new 0 0 600 400;" xml:space="preserve">
<style type="text/css">
	.st0{fill:#FFFFFF;}
</style>
<path class="st0" d="M441.9,59.2c-7.2-10.2-15.8-19.3-23-29.5c-0.5-0.7-1-1.5-1.8-1.8c-1.7-0.8-3.7,0.2-5.6,0.6
	c-1.6,0.3-3.1-0.6-4.4-2.2c-1.7-2-3-4.7-3.8-6.3c-0.8-1.9-1.5-3.9-2.5-5.7c-0.5-0.8-2.5-3.6-3.5-3.5c-2.6,0.2-1.1,8.9-1.1,10.5
	c-0.1,3.6-3.1,7.9-6.4,6.3c-0.7-0.4-1.5-1-2.3-1.3c-1.8-0.5-3.4,1.3-4.4,2.7c-14.4,20.4-29.4,40.1-45.1,59.4
	c-5.2,6.5-10.7,13-17.6,17.7c-4.4,3-9.2,5.2-14.2,7.5c-22.5,10.3-42.6,21.5-62.4,36.8c-12.1,9.3-21.8,21.2-36.9,25.3
	c-7.6,2.1-16.1,4.7-20.5,11.9c-1.3,2.1-2.1,4.5-3.5,6.6c-1.7,2.4-4,4.3-6.1,6.3c-5,4.9-8.5,11.3-10.1,18.3
	c-2.2,9.7-0.4,19.6-1.3,29.4c-0.6,7.5-7.1,15-6.3,21.9c0.4,3.3,1.7,6.2,2.4,9.3c1.3,5.6,0.4,11-1.7,16.3c-0.6,1.6-5.4,8-1.2,8.9
	c1.7,0.3,2.8-1.6,3.5-3.1c3.7-9.8,7.6-19.7,8.6-30.1c0.9-8.9-1.9-16.9-0.5-25.8c1.2-8.1,2.4-16.2,3.6-24.3c2.1,2.7,2.3,6.5,2.5,10
	c0.7,11.2,2.6,22.4,2,33.6c-0.6,11.2-2.9,23.9-11.1,31.6c6.7,23.7-0.8,48.8-6.7,72.8c-0.6,2.4-1.2,5-0.3,7.5c1.3,3.6,4.2,5.8,4,10.2
	c4.1,0.5,11.5,3.4,12.2,1.6c1.8-8.4-3.7-15.4-2.8-23.3c1.9-19.1,7.6-39,12.6-57.4c0,0.1,0.1,0.2,0.1,0.3c6.7-25.5,23.1-47.2,33.4-71
	c5.4-13.8,7.5-28.7,2.1-43.6c5.4,11.7,7.5,25.5,3.2,38.2c-10.7,27.4-29.6,51.1-37.5,79.6c5.1,14.8,7.7,30.5,7.4,46.1
	c-0.1,3.6,0.6,6.9-0.2,10.4c-1.1,4.6-1.8,10.3,1.9,13.1c1.2,0.9,2.6,1.6,3.8,2.5c0.2,0.2,2.3,3.2,2,3.2c3.4,0.4,5.7-0.3,8.6-0.5
	c2.1-0.1,6.6,0.6,6.5-0.7c-0.4-4.8-7.8-8.1-9.9-13.4c-1.5-3.8-2.2-7.8-2.8-11.7c-4.6-30.3-1.6-61.8,8.8-90.7
	c2.5-7.1,6.8-15.2,5.8-22.8c10.1,7.5,23.6,10,35.8,6.8c5.5-1.5,11.6-4,16.5-1.2c2,1.1,3.2-3.5,3.3-5.1c0.1-3,0-4.9-0.2-8
	c-0.5-6.1-1.5-12.2-1.9-18.3c-0.7-9.9,0.3-19.6,5.9-28c0-1.1,0-1.1,1-1.1c-5.4,17-4.2,34-2.1,52c0.4,5.7-1.3,10.6-3.7,15.3
	c-0.3,8.3-1.2,16.6-2.4,24.8c-0.7,4.5-1.6,9-2.5,13.5c-0.5,2.2-0.7,5.4-1.7,7.2c-0.4,0.8-0.9,1.5-1.3,2.3c-0.4,1-0.4,2.1-0.4,3.1
	c-0.1,15.5-0.8,31.1-3.6,46.4c-0.9,5.4-2.1,11-1.7,16.5c0.6,7.4,2.1,8.3,8.6,10.3c2,0.6,4.3,0.8,6-0.4c3.5-2.7-2.3-9-3-11.9
	c-1.2-4.9,0.4-10.2,1.6-15c5.5-23.3,9.4-47.4,13.8-70.9c1.2-6.3,2.3-12.6,3.5-18.9c0.1,0,0.1,0.1,0.2,0.2c3-17.2,18-31.1,12.2-49.2
	c4.2,6.4,3.2,13.8,1.1,19.1c-4.4,10.8-8.1,22.4-10.2,34c4.4,7,8.8,14.1,13.1,21.1c2,3.3,4.1,6.7,4.6,10.5c0.3,2.8-0.1,6,1.6,8.3
	c0.6,0.9,1.6,1.6,2.3,2.4c1.2,1.4,1.8,3,2.3,4.7c5.8,18,9.9,36.4,12.1,55.2c0.2,1.4,0.3,2.7,0.9,3.9c1.6,2.9,4.7,4.3,5.1,7.8
	c4,0,8.2-0.4,12.2-0.6c-6.1-10-10.6-20.6-12.3-32.2c-0.9-6.6-1-13.4-2.2-20c-0.9-5-2.4-10-2.4-15.1c0-2.6,0.4-5.2,0.2-7.8
	c-0.2-2.3-1-4.5-1.8-6.7c-5.6-16-4.4-35.1-15.4-47.8c-4.4-5-4.6-12.6-3-19.1s4.8-12.5,6.5-19c1.7-6.5,1.8-14-2.3-19.2
	c-1.5-1.9-3.4-3.4-4.5-5.6c-1.8-3.5-0.8-7.9,1.3-11.2c2.2-3.3,5.4-5.8,8.4-8.2c32.7-26.6,55.3-63.9,69.8-103.4
	c1.5-4.2,3.6-8.9,7.9-10c1.6-0.4,3.3-0.2,4.8,0c11.3,1.6,22.7,4,33.6,7.2c1.5,0.4,3.4,0.8,4.5-0.3C443,64.2,443,60.8,441.9,59.2z"/>
</svg>
