<?xml version="1.0" encoding="utf-8"?>
<!-- Generator: Adobe Illustrator 23.0.4, SVG Export Plug-In . SVG Version: 6.00 Build 0)  -->
<svg version="1.1" id="Layer_1" xmlns="http://www.w3.org/2000/svg" xmlns:xlink="http://www.w3.org/1999/xlink" x="0px" y="0px"
	 viewBox="0 0 600 400" style="enable-background:new 0 0 600 400;" xml:space="preserve">
<style type="text/css">
	.st0{fill:#FFFFFF;}
</style>
<g>
	<path class="st0" d="M401.6,68c0,0-16.7-22.2-41.9-22.2c0,0-11.8,0-11.8,6.9c0,3.8,8.9,4.2,8.9,4.2s16.5,0.1,23.1,17.2
		c0,0-8.5-4.2-22.7,0c0,0-9.7,3.1-17,2.4c0,0,11.1,21.4,37.2,19.8c0,0-9.3,31.2-35.3,37.5c-18,4.4-53.7,16.2-73.1,12.4
		c0,0-42.6-8.1-63.9-0.7c-21.3,7.4-37.8,15.8-48.6,1.4c-10.9-14.4-11.1-15.5-16.9-12.8c-5.8,2.8-10,34.5,24.6,40.1
		c0,0-4.9,15,6,32.4c10.9,17.4,8.1,41.4,1.1,47.9c-4.9,4.6-13.6,12.8-9.2,29c0,0,3.5,13,0.2,34c-3.2,21.1-0.9,22.5,3.7,22.9
		c4.6,0.5,2.1,7.1,1.1,10c0,0,20,5.9,28.1-1.2c0,0,1.9-6.4-9.7-20.5c0,0-4.3-4-4.3-19.6c0-10.4,0.3-31.4,18.9-44.5
		c0,0,1,11.1,8.2,17c7.1,5.9,16.8,27.3,19.6,35.4c2.8,8.2,4.2,17.2,14.1,17.2c0,0,4.3,3.1,3,7.3c0,0,26.2,3,24.7-4.5
		c-1.6-7.5-6.8-10.8-6.8-10.8s-29.4-21.9-30.2-41.5c-0.9-19.6,10.2-36.7,10.2-36.7s39.6,14.9,74-5.6c0,0,12.7,20.2,12.3,47.8
		s-9,44.5,0.3,44.5c0,0,2.4-0.7,2.4,2.3s-1.7,8.2,10.1,8.2c0,0,4.2,0.5,4.2,6.6c0,0-0.3,2.3,4.2,2.3s20.5,0,20.5,0
		s0.5-12.2-7.1-19.3c-7.6-7.1-10.4-23.5-10.8-34.4c-0.3-10.9-3-51.6,5.2-58.7c8.2-7.1,26.1-9.4,26.8-40.8
		c0.7-31.4,20.5-44.6,26.4-49.9c0,0-0.7,11.8,3,17.9c0,0-0.3-2.3,0.7-4.9c0,0,0.5,7.3,7.6,12.7c0,0-3.1-5.4-2.6-10.1
		c0,0,1.4,7.3,7.3,9.9c0,0-4-5.9-3.1-11.6c0,0,0.3,5.2,4,6.9c0,0-4.2-14.1,3.5-21.4c0,0,8-0.5,9.1-7.5c0,0,4.3-2.4,2.4-9.5
		c0,0,1.7-4.7-1.5-8c-3.2-3.2-10.4-10.5-7.4-16.1c4.2-8,2.7-14.2,2.7-14.2c22.6-4.1,27.6-24.8,27.6-24.8c-6.1,2.1-15.1,1.5-15.1,1.5
		c-13.1-0.6-19.4,4.8-19.4,4.8s-1.9-6.1-9.8-10.2c0,0-3.2-19.9-21.5-20.8c0,0-9.7,0.6-9.4,6.4c0,0,0,3.1,5.2,1.9
		C394.4,54,405.3,51.7,401.6,68z"/>
</g>
</svg>
