<?xml version="1.0" encoding="utf-8"?>
<!-- Generator: Adobe Illustrator 23.0.4, SVG Export Plug-In . SVG Version: 6.00 Build 0)  -->
<svg version="1.1" id="Layer_1" xmlns="http://www.w3.org/2000/svg" xmlns:xlink="http://www.w3.org/1999/xlink" x="0px" y="0px"
	 viewBox="0 0 75 75" style="enable-background:new 0 0 75 75;" xml:space="preserve">
<style type="text/css">
	.st0{fill:#FF897F;}
	.st1{fill:#FFFFFF;}
	.st2{fill:none;stroke:#FFFFFF;stroke-width:1.024;stroke-linecap:round;stroke-miterlimit:10;}
</style>
<path class="st0" d="M8.5,28.5c0-2.2,0.3-4.3,1-6.4c1.4-3.9,3.9-6.8,7.8-8.4c4.7-1.9,9.4-2.2,14.1-0.3c2.7,1.1,4.9,2.8,6.7,5
	c0.3,0.4,0.4,0.4,0.8,0c2.9-3.6,6.6-5.7,11.2-6.2c5.3-0.5,9.9,1.1,13.6,4.9c3.5,3.5,5.1,7.9,4.7,12.9c-0.2,2.5-1.1,4.7-2.3,6.9
	c-2.3,4.3-5.4,8-8.8,11.5C51.7,54.1,45.5,59.1,39,63.7c-0.5,0.3-0.8,0.3-1.3,0c-7-4.8-13.6-10.1-19.5-16.3
	c-3.1-3.3-5.9-6.8-7.9-10.9C9.3,34,8.4,31.4,8.5,28.5z"/>
<path class="st1" d="M31.9,41.3h-3.8c-0.2,0-0.3-0.1-0.3-0.3v-8c0-0.2,0.1-0.3,0.3-0.3h3.8V41.3z"/>
<path class="st1" d="M39.1,46.1l-6.2-4.8v-8.5l6.2-4.8c0.2-0.2,0.4,0,0.4,0.2v17.8C39.5,46.1,39.3,46.2,39.1,46.1z"/>
<path class="st2" d="M42.2,33.4c2,0,3.6,1.6,3.6,3.6c0,2-1.6,3.6-3.6,3.6"/>
<path class="st2" d="M42.4,30.7c3.5,0,6.3,2.9,6.3,6.3c0,3.5-2.9,6.3-6.3,6.3"/>
</svg>
