<?xml version="1.0" encoding="utf-8"?>
<!-- Generator: Adobe Illustrator 23.0.4, SVG Export Plug-In . SVG Version: 6.00 Build 0)  -->
<svg version="1.1" id="Layer_1" xmlns="http://www.w3.org/2000/svg" xmlns:xlink="http://www.w3.org/1999/xlink" x="0px" y="0px"
	 viewBox="0 0 600 400" style="enable-background:new 0 0 600 400;" xml:space="preserve">
<style type="text/css">
	.st0{fill:#FFFFFF;}
</style>
<path class="st0" d="M506.7,109.8C506.7,109.8,506.7,109.8,506.7,109.8c-0.7-1.4-1.5-2.8-2.6-4.3c0,0-25.8-46.2-41-54.6
	c-0.2-0.1-0.4-0.2-0.5-0.3c0.9-7.7,5.9-19.9,5.9-19.9c-1.3,0.3-2.5,0.7-3.7,1.2c0.5-1.3,0.8-2.1,0.8-2.1
	c-7.9,1.7-14.2,8.1-17.6,12.4c-1.7-1.1-10.6-0.4-11.5-0.3c-3.5,0.5-8.2,0.8-11.6,1.8c-7.5,2.4-13.6,5.8-20.7,9.3
	c-8.8,4.3-16.4,10-24.2,15.9c-6,4.5-12.2,8.8-18.5,13c-11.6,7.7-23.3,15.3-35.1,22.7l-0.4,1.8c-0.7,0-15.6,0.2-31.1,7.3
	c0,0-25.2,14.5-84.9-12.1c0,0-4.7-2.8-10.6-3.3c0,0-31.8-4.9-54.4,13.6c-6.7-5.2-22.6-2.8-33,3.6c-23.7,14.7-27.7,56.4-11.8,78.1
	c13.9,19,36.2,17.9,42.4,27.3c0.3,4.1,0.5,10,0.1,16.2c-6.1,14-26,20.6-26,20.6c1.1,2.5,11.3,3.2,21.7-0.6c-1.4,3-3.2,5.5-5.5,7.4
	c0,0,10.9,23.8,6.3,62c0,0-2.7,7.4-0.7,11.4c0,0,6.7,2.3,6.7,5.8c0,0-3.4,10.5,1.1,12.6c0,0,8.7,5.9,21.2-0.9l-3.9-6.4
	c3.6,0.3,8.2-0.3,13.5-3.2l-9.4-15.6c0,0-14.5-33.3-4.8-67c0,0,12.9-18.3,22.6-56.6l14.1-14.6c2.5,2.9,45,51.6,125.6,34.2
	c0,0,8.5,30.2,0,58.6c0,0,2.4,12.6-0.3,22.8c0,0-12,23.8-6.8,31.2c0,0,8.6,0.9,5,14.4c0,0-4.2,6.2,0.1,12.2c0,0,9,9.8,22.4,2.1
	l-11.1-19.9c0,0-3.8-43.2,6.2-57.6c0,0,1-1.7,2.5-4.5c-0.1,2-0.4,4.1-0.8,6.1c0,0-11,24.2-5.6,31.4c0,0,8.6,0.6,5.5,14.2
	c0,0-3.9,6.3,0.6,12.2c0,0,9.4,9.4,22.5,1.2L353.4,331c0,0-5.6-43,3.8-57.8c0,0,13.2-23.2,12.7-56.5c4.8-7,20.4-31.2,29.7-62.7
	c0,0,16.5-45.5,38-48.7c0,0,5.8,10.7,21.8,8.9c0,0,26.5,4.3,33.7,19.9c0,0,5.1,0,8.9-2.4l0,0c0.1,0,0.1-0.1,0.2-0.1
	c0,0,0.1,0,0.1-0.1c3.6-2.2,3.6-5.4,3.6-5.4l0.9,0.3c0,0,0.3-0.3,0.7-0.9C512.2,118.6,506.7,109.8,506.7,109.8z M124.6,187.1
	c-3.3-5.4-2.3-12.1,0.5-19.5c0.8,7.5,2.4,16.2,5.8,25.5C128.5,191.7,126.3,189.9,124.6,187.1z"/>
</svg>
