<?xml version="1.0" encoding="utf-8"?>
<!-- Generator: Adobe Illustrator 23.0.4, SVG Export Plug-In . SVG Version: 6.00 Build 0)  -->
<svg version="1.1" id="Layer_1" xmlns="http://www.w3.org/2000/svg" xmlns:xlink="http://www.w3.org/1999/xlink" x="0px" y="0px"
	 viewBox="0 0 600 400" style="enable-background:new 0 0 600 400;" xml:space="preserve">
<style type="text/css">
	.st0{fill:#FFFFFF;}
</style>
<g>
	<path class="st0" d="M477.2,90.9c-8.2-4.7-16.9-3.6-26.3-1.9c8.4-7.5,12.8-19.2,11.7-30.4c-1.2-11.2-7.9-21.7-17.7-27.3
		c6.3,7.1,7.3,17.8,4.5,26.8c-2.9,9-9.1,16.7-15.9,23.2c-0.9,0.9-1.9,1.8-3.1,2.1c-3.4,0.9-6.1-2.7-9.1-4.7
		c-6.2-4.2-14.5-0.9-21.2,2.4c-6.7,3.3-13.4,6.6-20.1,9.9c-4.7,2.3-10.3,4.7-14.9,2.3c-5.1-2.6-6.1-9.4-5.9-15.2
		c0.5-11.9,3.9-23.7,9.9-34c-9.5,9-16.9,20.3-21.5,32.7c-3.9,10.8-4.8,24.8,4.3,31.9c-20.9-0.3-41,7.2-54.6,23.1
		c-2.9,3.4-5.6,7.1-9.3,9.5c-3,1.9-6.5,2.8-9.9,4c-8.9,3-17.2,7.9-24.3,14.1c-1.8,1.6-3.6,3.3-5.8,4.4c-3.3,1.6-7.2,1.6-10.9,1.8
		c-7.2,0.5-12.7,0.3-18.5,4.5c-4.9,3.5-11.7,2.8-17.3,0.5s-10.5-6.1-16-8.5c-9.2-4.2-20.8-4.3-28.7,2c-6.9,5.5-8.9,14.4-14.2,21.2
		c-4,5.1-9.3,9.5-15.6,11c-9.3,2.2-18.5-2.1-27.7-0.8c-2.6,0.4-22.5,7.9-23.3,3.2c0.8,4.2,4.5,9.1,9.2,9.2c3,0.1,5.6-1.7,8.5-2.4
		c8.7-2.3,19.6,1.8,29.1,0.7c10.1-1.2,20.6-3.1,28.1-10.6c7.5-7.6,7.8-20.5,19.1-23.9c6.2-1.8,13.8,1,16,7c1.6,4.2,0.3,9-2.1,12.9
		c-2.3,3.8-5.7,6.9-8.7,10.3c-12.2,13.5-19.7,31.2-20.7,49.3c-0.8,13.9,1.9,28.3-2.9,41.3c-1.1,3-2.6,5.8-3.4,8.9
		c-0.7,2.6-0.9,5.2-1,7.9c-0.7,10.3-1.4,20.5-2.1,30.8c-0.3,4.3-0.1,9.6,3.7,11.8c1.6,0.9,3.5,1,5.3,1.1c3.5,0.2,7.1,0.3,10.6,0.5
		c-6.8-13.3-7.4-30.2-1.9-44.1c13.3,1.4,22.2-7.4,32.4-16.1c3.8-3.2,7.9-7.5,12.5-10c17.5-18.3,27.3-44.1,25.5-69.9
		c8.9,24.4-1.4,47.6-15.6,67.7c0.8,0.1,1.6,0.3,2.5,0.6c0.6,0.2,1.1,0.4,1.7,0.5c19.2,0.4,39.7-0.7,56.4,7.4
		c4.6,0.8,9.2,1.6,13.7,2.4c-5.6-16.7-6.5-35-2.9-51.8c0.9,17.5-0.2,37.7,6.6,54.5c4.8,9.2,12.5,16.8,21.8,21.4
		c3.1,1.6,6.4,4.5,9.9,4.4c-0.2,5.2,5.5,8.5,10.4,10.4c4.9,2,10.6,5.2,10.4,10.4c-0.1,1.5-0.6,2.9-1,4.4
		c-2.5,9.1,2.8,19.7,11.7,23.1c5.1-5.7,8.6-12.8,9.8-20.3c0.8-5,0.6-10.4-1.9-14.8c-2.8-4.8-7.8-7.7-12.4-10.9
		c-1.1-0.8-2.2-1.6-2.9-2.7c-0.8-1.3-1.1-2.9-1.4-4.4c-0.5-3.1-1.1-6.1-1.6-9.2c-0.1-0.7-0.3-1.5,0-2.2l0,0
		c-7.5-18.6,1.2-41.3-5.9-60.5c-1.2-3.5-5.8-7-10.5-9.3c28.6,9.2,12.1,45.4,19.4,67.6c0.1,0,0.2-0.1,0.3-0.1c9.7-2.9,18-8.5,24.8-16
		c4.1,5.2,10.2,8.6,16.8,9.3c5.4,0.6,11.4-0.4,15.8,2.8c4.6,3.4,5.2,10.1,4.4,15.8c-0.4,2.9-1.1,5.7-2.7,8.2c-1.9,2.9-4.8,5-6.8,7.9
		c-2,2.9-2.7,7.2-0.1,9.5c0.9,0.8,2.2,1.5,2.3,2.7c0,0.7-0.5,1.4-0.9,2c-2.3,3.7-0.6,8.7,2.5,11.6c3.2,2.9,7.5,4.2,11.6,5.5
		c4.2-2.8,0.9-9.9,3.7-14.1c1.1-1.6,2.9-2.6,4.2-4c2-2.2,2.6-5.2,2.9-8.2c1.7-13.6-0.1-27.5-1.9-41.1c-0.6-4.3-1.2-8.9-3.8-12.4
		c-2.7-3.7-8.7-4.2-8.8-8.8c2.8-2.1,2.7-6.5,1.5-9.8c-1.2-3.3-3.1-6.5-3.1-10.1c0-4,2.6-7.4,4.7-10.7c6.6-10.3,10.5-22.4,11-34.6
		c0.2-4.4,0-9,2-12.8c0-4.5,8.4-6.8,10.9-9.2c5.1-5,8.5-12.8,12.3-18.9c8.7-14,17.3-28,26-42c2.4-3.8,4.8-7.8,6-12.1
		C489.2,103.6,484.9,95.2,477.2,90.9z"/>
	<path class="st0" d="M295.8,339.1c-1.5-1.3-3.1-2.7-3.8-4.5c-0.6-1.5-0.5-3.1-0.9-4.7c-1.1-4.7-5.6-7.7-7.9-11.9
		c-1.5-2.7-2.1-5.9-2.6-8.9c-0.9-5.3-1.9-10.6-2.9-15.9c0.1,0,0.1,0,0.1,0c-16.7-8-37.2-7-56.4-7.4c4,1.2,7.9,2.5,11.9,3.7
		c11.8,3.7,28.5,9.2,30.8,23.5c0.2,1.2,0.3,2.4,0.9,3.4c1,1.6,2.9,2.2,4.4,3.2c5,3.6,4.1,12,8.9,15.8c1.6,1.3,3.8,2,4.8,3.8
		c1,1.8,0.6,4,1,6c0.8,4,4.9,6.6,9,6.9c4,0.4,8-1,11.8-2.3C302.4,345.9,299.3,342.3,295.8,339.1z"/>
</g>
</svg>
