<?xml version="1.0" encoding="utf-8"?>
<!-- Generator: Adobe Illustrator 23.0.4, SVG Export Plug-In . SVG Version: 6.00 Build 0)  -->
<svg version="1.1" id="Layer_1" xmlns="http://www.w3.org/2000/svg" xmlns:xlink="http://www.w3.org/1999/xlink" x="0px" y="0px"
	 viewBox="0 0 100 60" style="enable-background:new 0 0 100 60;" xml:space="preserve">
<style type="text/css">
	.st0{fill:#666666;}
	.st1{fill:#FF897F;}
</style>
<g>
	<circle class="st0" cx="14.2" cy="17.1" r="2.6"/>
	<circle class="st1" cx="27.2" cy="17.1" r="2.6"/>
	<circle class="st1" cx="14.2" cy="30.1" r="2.6"/>
	<circle class="st0" cx="27.2" cy="30.1" r="2.6"/>
	<circle class="st1" cx="27.2" cy="43.4" r="2.6"/>
	<circle class="st1" cx="40.2" cy="30.1" r="2.6"/>
	<circle class="st0" cx="40.2" cy="43.1" r="2.6"/>
</g>
<g>
	<g>
		<path class="st0" d="M54.2,12.9c-0.7-0.5-1.5-0.5-2.3-0.5h-1.6v9.2h1.1v-4h0.7c0.7,0,1.5-0.1,2.2-0.6c0.6-0.5,0.9-1.2,0.9-2
			C55.2,14.1,54.8,13.4,54.2,12.9z M51.5,13.5h0.3c1.2,0,2.3,0.1,2.3,1.5c0,1.1-0.7,1.6-2,1.6h-0.6V13.5z"/>
		<path class="st0" d="M60.7,16.4c-0.4-0.5-1.1-0.8-1.9-0.8c-1.8,0-2.8,1.5-2.8,3.1c0,1.5,1,3,2.8,3c0.6,0,1.4-0.1,1.9-0.7v0.6h0.9
			v-5.8h-0.9V16.4z M58.9,20.8c-1.2,0-1.8-1.1-1.8-2.1c0-1.2,0.9-2,1.8-2c1,0,1.8,0.9,1.8,2.1C60.6,19.9,59.9,20.8,58.9,20.8z"/>
		<polygon class="st0" points="65.3,14.3 64.2,14.3 64.2,15.8 63.2,15.8 63.2,16.9 64.2,16.9 64.2,21.6 65.3,21.6 65.3,16.9 
			66.3,16.9 66.3,15.8 65.3,15.8 		"/>
		<polygon class="st0" points="69.7,14.3 68.6,14.3 68.6,15.8 67.6,15.8 67.6,16.9 68.6,16.9 68.6,21.6 69.7,21.6 69.7,16.9 
			70.7,16.9 70.7,15.8 69.7,15.8 		"/>
		<path class="st0" d="M86.1,15.7c-0.7,0-1.2,0.2-1.6,0.6v-0.4h-1.1v5.8h1.1v-2.8c0-1,0.2-2.2,1.4-2.2c1.1,0,1.1,0.7,1.1,1.7v3.3
			h1.1v-3.4C88.1,17.1,87.9,15.7,86.1,15.7z"/>
		<path class="st0" d="M81.3,15.7c-0.4,0-0.9,0.2-1.2,0.6v-0.5H79v5.8h1.1v-2.7c0-0.5,0.1-2.2,1.1-2.2h0.9l0-1L81.3,15.7z"/>
		<path class="st0" d="M76.4,19.7c0,0.1,0,0.2-0.1,0.3c-0.4,0.6-0.9,0.9-1.5,0.9c-1,0-1.8-0.7-1.8-1.8h4.5l0-0.1
			c0.1-1-0.2-1.9-0.8-2.5c-0.5-0.5-1.2-0.8-2-0.8c-1.7,0-2.8,1.3-2.8,3.1c0,1.7,1.2,3,2.8,3c1,0,1.8-0.4,2.4-1.2
			c0.1-0.1,0.1-0.1,0.2-0.3l0,0c0-0.1,0.1-0.2,0.1-0.3c0-0.2,0.1-0.3,0.1-0.3l0-0.1L76.4,19.7L76.4,19.7z M73.1,18.1
			c0.1-0.8,0.9-1.4,1.7-1.4c0.8,0,1.4,0.6,1.6,1.4H73.1z"/>
	</g>
</g>
<g>
	<path class="st1" d="M61.7,28.8l0,0.6c-0.4-0.5-1.1-0.8-1.9-0.8c-1.8,0-2.8,1.5-2.8,3.1c0,1.5,1,3,2.8,3c0.6,0,1.4-0.1,1.9-0.7
		l0,0.6h0.9v-5.8H61.7z M59.9,33.8c-1.2,0-1.8-1.1-1.8-2.1c0-1.2,0.9-2,1.8-2c1,0,1.8,0.9,1.8,2.1C61.6,32.9,60.9,33.8,59.9,33.8z"
		/>
	<path class="st1" d="M54.2,29.7c0.6-0.4,0.9-1.1,0.9-1.8c0-2.2-2-2.5-3.2-2.5h-1.6v9.2h2.2c2.1,0,3.2-0.9,3.2-2.6
		C55.7,30.9,55.1,30,54.2,29.7z M51.5,30.4h0.8c1.1,0,2.3,0.2,2.3,1.6c0,1.1-0.7,1.6-2.2,1.6h-1V30.4z M51.8,29.4h-0.3v-3h0.3
		c1.2,0,2.2,0.1,2.2,1.5C54,29.3,52.9,29.4,51.8,29.4z"/>
	<path class="st1" d="M82.1,25.4H81v4.2c-0.5-0.6-1.2-0.9-1.9-0.9c-1.8,0-2.8,1.5-2.8,3.1c0,1.5,1,3,2.8,3c0.8,0,1.5-0.3,1.9-0.9
		v0.7h1.1V25.4z M81,31.7c0,1-0.6,2.1-1.8,2.1c-1.2,0-1.8-1.1-1.8-2.1c0-1.2,0.9-2,1.8-2C80.3,29.7,81,30.5,81,31.7z"/>
	<path class="st1" d="M75,32.6l-1,0c0,0,0,0,0,0c0,0.1-0.1,0.2-0.1,0.3c-0.4,0.6-0.9,0.9-1.5,0.9c-1,0-1.8-0.7-1.8-1.8l4.5,0
		c0.1-1-0.2-1.9-0.8-2.5c-0.5-0.5-1.2-0.8-2-0.8c-1.7,0-2.8,1.3-2.8,3.1c0,1.7,1.2,3,2.8,3c1,0,1.8-0.4,2.4-1.2
		c0.1-0.1,0.1-0.1,0.2-0.3l0,0c0-0.1,0.1-0.2,0.1-0.3C75,32.8,75,32.8,75,32.6C75,32.6,75,32.6,75,32.6C75,32.6,75,32.6,75,32.6z
		 M70.6,31.1c0.1-0.8,0.9-1.4,1.7-1.4c0.8,0,1.4,0.6,1.6,1.4H70.6z"/>
	<path class="st1" d="M65.5,31.8L65.5,31.8c0.2,0.1,0.4,0.2,0.5,0.2c0.6,0.2,1.1,0.5,1.1,1c0,0.5-0.4,0.8-0.9,0.8
		c-0.6,0-0.9-0.3-1.1-0.9l-1,0l-0.1,0c0,0,0,0.1,0,0.1c0,0,0,0.2,0.1,0.4c0,0,0,0,0,0c0,0.1,0.1,0.2,0.1,0.3
		c0.4,0.7,1.1,1.2,1.9,1.2c1.1,0,2-0.8,2-1.9c0-1-0.8-1.3-1.4-1.6c0,0-0.6-0.2-0.8-0.3c-0.2-0.1-0.3-0.1-0.3-0.1"/>
</g>
<g>
	<path class="st1" d="M67.7,29.8c-0.3-0.7-0.9-1-1.7-1c-0.9,0-1.7,0.7-1.7,1.6c0,0.8,0.6,1.2,1.1,1.4l0.1,0c0.1,0.1,0.3,0.1,0.4,0.2
		l-0.2-1.1c-0.3-0.2-0.4-0.3-0.4-0.6c0-0.4,0.4-0.6,0.7-0.6c0.4,0,0.7,0.2,0.8,0.5L67.7,29.8z"/>
</g>
<polygon class="st0" points="65.4,40.3 64.3,40.3 64.3,41.7 63.3,41.7 63.3,42.7 64.3,42.7 64.3,47.6 65.4,47.6 65.4,42.7 
	66.4,42.7 66.4,41.7 65.4,41.7 "/>
<path class="st0" d="M61.1,41.7c-0.4,0-0.9,0.2-1.2,0.6v-0.5h-1.1v5.8h1.1v-2.7c0-0.5,0.1-2.2,1.1-2.2h0.9l0-1L61.1,41.7z"/>
<g>
	<path class="st0" d="M54.2,38.4h-0.4l-3.4,9.2h1.2l0.9-2.6h3l0.9,2.6h1.2L54.2,38.4z M52.8,43.9l1.2-3.3l1.1,3.3H52.8z"/>
</g>
</svg>
