<?xml version="1.0" encoding="utf-8"?>
<!-- Generator: Adobe Illustrator 23.0.4, SVG Export Plug-In . SVG Version: 6.00 Build 0)  -->
<svg version="1.1" id="Layer_1" xmlns="http://www.w3.org/2000/svg" xmlns:xlink="http://www.w3.org/1999/xlink" x="0px" y="0px"
	 viewBox="0 0 600 400" style="enable-background:new 0 0 600 400;" xml:space="preserve">
<style type="text/css">
	.st0{fill:#FFFFFF;}
</style>
<path class="st0" d="M533.2,182.1C533.2,182.1,533.2,182.1,533.2,182.1c-0.1-0.2-0.1-0.5-0.2-0.8c0,0-4.2,1.2-10.5-2.8L490,156.7
	c-14-8.2-16.3-33.4-16.3-33.4c0.3-4.1-7-12.9-14.6-17.1c-0.2-0.1-0.3-0.1-0.5-0.2c-3.6-23.3-14.3-30.8-14.3-30.8
	c-8.5,9.1-7.4,20.7-5.1,28.8c-14.5,1.1-73.7,4.4-128.4-6c-0.3-0.1-0.6-0.1-1-0.2c-0.4-0.1-0.7-0.1-1.1-0.2l0,0
	c-25-4.6-52.6-7.7-79.9-10.4c-71.5-6.9-115,19-127.4,54.9c-2.2-3.5-5.4-6.3-9.3-8c-4.7-2-9.8-2.2-14.1-0.4c-4.7,2-8.7,6.2-10.5,11.4
	c-1.6,4.6-1.4,9.2,0.7,12.9c2.1,3.8,6.1,6.6,10.9,7.8c1.5,0.3,2.9,0.5,4.3,0.5c3,0,5.8-0.8,7.9-2.2c3.3-2.3,4.7-6.3,3.8-10.9
	c-0.8-4.2-3.6-8.9-7.5-9.9c-2.5-0.6-6.4-0.3-9.2,1.8c-1.7,1.2-3.7,3.6-3.8,7.9c0,1.2,0.9,2.2,2.1,2.2c1.2,0.1,2.2-0.9,2.2-2.1
	c0.1-2.1,0.8-3.6,2.1-4.6c1.8-1.4,4.4-1.4,5.6-1.1c1.5,0.4,3.7,3.2,4.3,6.6c0.3,1.7,0.5,4.9-2.1,6.7c-2,1.4-5.4,1.8-8.8,1
	c-3.7-0.8-6.6-2.9-8.1-5.7c-1.5-2.7-1.6-6-0.4-9.4c1.4-4,4.5-7.4,8.1-8.9c3.3-1.3,7.2-1.2,10.8,0.4c4.2,1.8,7.4,5.2,9,9.6
	c0.1,0.1,0.2,0.3,0.2,0.4c-1.3,5.3-2,10.8-2,16.5c0,2.9,0.3,5.8,0.8,8.6h0c0,0-0.6,33.7,44.2,63.9c0,0,7.8,11.3,2.6,29.4
	c0,0,10.9,19.2,16.9,45.9c0,0,8.1,8.4,7.6,12h4.5c0,0-1.8-4.9-1.2-6.2c0,0,4,3.3,4.5,6.2c0,0,8.7,1.4,11.1-0.3c0,0-0.7-3.4-2.7-7.3
	h2.8c0,0-1.8-4.9-1.2-6.2c0,0,4,3.3,4.5,6.2c0,0,8.7,1.4,11.1-0.3c0,0-2.9-13.5-12.5-17.5c0,0-7.6-19.2-7-28.6
	c0,0,8.5-14.1,13.2-29.6c16.7,3.1,34.9,4.8,54,4.8c29.7,0,56.5-4.2,79-11.7c0.1,11.7,2.6,37.5,21,60.3c0,0,6.1,7.1,4.7,17.5
	c0,0,2.7,6.5,1.2,10.4l4.4,0.3c0,0-1.8-4.8,0-6.8c0,0,2.2,2.1,2.4,6.8c0,0,10.5,2.2,14.7,0c0,0-0.7-4.2-2.7-8.2
	c-0.4-1.3-1.2-4.6,0.2-6.2c0,0,2.2,2.1,2.4,6.8c0,0,10.5,2.2,14.7,0c0,0-2-11.2-8.2-14.7c0,0-12.8-40.2,0.5-72.9
	c14.8-4.5,38.7-13.6,48.7-28.5c15.7,18.6,53.6,4.2,53.6,4.2c16.7-5.6,33.8-3.3,33.8-3.3c-1.5-2.7,1.2-4.6,1.2-4.6
	C536.9,189.4,533.2,182.1,533.2,182.1z M176.3,306.5c0,0-6.7-16.8-7-26.7c2.6,7,5.4,15.4,7.5,24.8c0,0,2.2,2.2,4.2,4.9
	C179.6,308.3,178,307.2,176.3,306.5z M365.9,286.7c1.2,1.5,5.7,8.1,4.4,17.1c0,0,0.8,2.1,1.3,4.6c-0.4-0.4-0.9-0.7-1.4-1
	C370.3,307.5,367.6,299.1,365.9,286.7z"/>
</svg>
