<?xml version="1.0" encoding="utf-8"?>
<!-- Generator: Adobe Illustrator 23.0.4, SVG Export Plug-In . SVG Version: 6.00 Build 0)  -->
<svg version="1.1" id="Layer_1" xmlns="http://www.w3.org/2000/svg" xmlns:xlink="http://www.w3.org/1999/xlink" x="0px" y="0px"
	 viewBox="0 0 600 400" style="enable-background:new 0 0 600 400;" xml:space="preserve">
<style type="text/css">
	.st0{fill:#FFFFFF;}
</style>
<g>
	<path class="st0" d="M309.3,57.1c2.1,0,4.2,0,6.4,0c3.6,1.3,5,4.3,5.7,7.8c1.1,5.7,0.7,11.4,1.5,17.1c1.1,7.5-0.1,15-1.6,22.4
		c-2.9,15.1-9.5,28.4-21.4,38.6c-2.4,2.1-4.1,4.6-5,7.7c-1.3,4.2-1.9,8.5-3.1,12.7c-0.7,2.4,0.2,4.9,2.1,6.7
		c1.8,1.6,3.6,0.4,5.4-0.4c7-3.1,14.1-6,21.3-8.6c12.6-4.4,25.4-7.3,38.8-6.6c8.5,0.4,16.6,2.4,24.7,4.6c3.5,0.9,7,2.1,10.4,3.1
		c10.4,3.1,19.1,8.7,26.1,16.9c9.6,11.3,17.7,23.4,19.2,38.8c0.6,6.2,1.6,12.3,2.4,18.5c0,6.2,0,12.4,0,18.7c-0.1,0.5-0.2,1-0.3,1.6
		c-1,7.9-3.1,15.4-8,21.9c-0.6,0.7-0.5,1.4-0.1,2.2c1.2,2.4,1.4,5,1.2,7.7c-0.3,3.9-0.8,7.8-0.6,11.7c0.1,2.6,0.2,5.2,0,7.7
		c-0.3,4.7-1.5,9.1-6.1,11.6c-3.9,2.1-8.2,3.4-12.5,4.4c-2.1,0.5-4.2,1-6.2,2c-3.9,2-7.7,4.1-11.6,6c-5,2.5-10.4,3-15.9,2.5
		c-3.2-0.3-6.5-1-9.7-0.4c-4.7,0.9-8.6-1-12.2-3.5c-4.1-2.8-4.6-6.7-1.9-10.9c1.5-2.3,3.5-4.1,5.5-6c1.6-1.5,3.2-3,4.4-4.8
		c0.3-0.5,0.8-1,0.4-1.6c-0.3-0.5-1-0.3-1.5-0.3c-4.2,0.7-8.4,1.1-12.6,1.3c-10.2,0.4-20.5,1-30.7,0.1c-1.8-0.2-2.9,0.3-3.8,1.7
		c-3.2,5.3-6.6,10.6-9.4,16.1c-1.7,3.2-3.4,6.5-3.5,10.2c-0.1,3.5-1.8,5.2-4.9,5.9c-0.6,0.1-1.1,0.4-1.7,0.5c-7.5,0-15.1,0-22.6,0
		c-0.9-0.3-1.8-0.3-2.7-0.3c-3.8,0.3-7-1-9.9-3.3c-1.2-0.9-1.9-2-1.7-3.5c0.6-5.5,2.6-10.4,7.3-13.7c2.1-1.5,4.3-3,5.5-5.4
		c2.2-4.5,3.4-9.3,4.8-14c0.1-0.5,0.2-1-0.5-1c-2.4,0-4.7,0.1-7.1,0.2c-0.3,0-0.6,0.4-0.7,0.6c-3.2,4.5-6.7,9-7.7,14.6
		c-0.8,4.6-3.3,6.9-7.8,7.5c-5,0.7-10,2-15,0.9c-3.1-0.7-6.1-0.7-9.2-0.6c-3.2,0.1-6.3-0.1-9.4-1c-1.9-0.5-2.9-1.7-3.2-3.6
		c-0.4-1.9,0.1-3.7,0.8-5.4c2.3-5.4,6.2-9.3,11.6-11.5c2.7-1.1,5.4-2.1,8.2-3c2.3-0.7,3.2-2.2,3.4-4.5c0.4-4,0-8,0.4-11.9
		c0.4-4-1.2-6.7-4.1-9c-1.3-1.1-2.7-2.2-3.5-3.7c-2.6-4.3-4.9-8.8-6.5-13.6c-0.6-1.8-1.1-3.7-0.8-5.6c0.1-0.9-0.2-1.2-1.1-1.1
		c-3.7,0.3-7-0.8-10.5-1.9c-1.8-0.6-3.5-1.3-5.4-1.2c-5.2,0.2-8.5-1.8-10.6-6.6c-1.8-4.2-2.9-8.6-2.1-13.3c0.5-3.1,1.1-6.2,1.9-9.3
		c2.7-11.2,6.1-22.2,7.3-33.7c0.7-6.4,3-12.2,7.8-16.8c1.4-1.4,2.6-3,3.9-4.5c1.1-1.3,1.4-2.4-0.1-3.8c-2.1-1.9-3.3-4.5-4-7.2
		c-1.3-5.2-4.1-9.4-8.4-12.5c-1.1-0.8-2.1-1.6-3.1-2.4c-8-6-14.6-13.2-19.3-22.1c-6.3-11.9-12.6-23.9-18.4-36.1
		c-1.5-3.3-3.8-5.7-6.7-7.6c-1.5-1-2.7-2.1-3.5-3.7c0-1.2,0-2.4,0-3.6c1.2-0.4,2.1,0,3.1,0.7c4.7,3.2,9.4,6.4,15,7.9
		c2.4,0.7,4.7,1.9,6.9,3c10.7,5.3,20.1,12.5,28.7,20.6c11.7,11,21.9,23.2,28.5,38c1.9,4.2,3.8,8.3,5.8,12.4c0.4,0.9,0.9,1.8,2,2.1
		c4.2,1.1,7.4-0.2,9.8-3.8c0.9-1.4,1.6-2.9,2.1-4.5c1.6-4.8,2.2-9.8,2.3-14.8c0.1-6.6,0.8-13.2,2.5-19.6c4.2-15.9,12.4-29,26.9-37.5
		c4.3-2.5,8.2-5.5,12.1-8.6C305.3,59.2,307.1,57.8,309.3,57.1z"/>
</g>
</svg>
