<?xml version="1.0" encoding="utf-8"?>
<!-- Generator: Adobe Illustrator 23.0.4, SVG Export Plug-In . SVG Version: 6.00 Build 0)  -->
<svg version="1.1" id="Layer_1" xmlns="http://www.w3.org/2000/svg" xmlns:xlink="http://www.w3.org/1999/xlink" x="0px" y="0px"
	 viewBox="0 0 600 400" style="enable-background:new 0 0 600 400;" xml:space="preserve">
<style type="text/css">
	.st0{fill:#FFFFFF;}
</style>
<path class="st0" d="M499.8,129.4C499.8,129.4,499.8,129.4,499.8,129.4c-0.7-1.4-1.5-2.9-2.5-4.5c0,0-11.8-22.8-24-40
	c-5.5-7.8-6.1-12.8-10.7-15.5c0,0-10.1-5.9-17.3-9.1c-6.3-2.7-14.1-4.6-21.6-2.1c-6.1-5.4-14.6-11.5-24.2-14.1c0,0-2.1,6.5-0.5,14.3
	c-3.9-1-7.5-1.2-10.8-0.8c-3.7-0.6-7.6-0.9-11.4-0.6c0,0,0,1.6,0.6,4.1c-11.2,6.3-16.8,18.2-16.8,18.2c-19.9-10.3-34.7-0.7-34.7-0.7
	C299.1,63,267.2,74,267.2,74c-22-19.9-59.2-5.9-59.2-5.9c-66.3-6.9-84,36.4-84,36.4C97,118,99.1,150.6,99.1,150.6
	c-6,28.7,7.4,47.9,7.4,47.9c-6,23.8,9.2,42.2,9.2,42.2c-1.8,18.8,14.5,27.3,14.5,27.3c0.8,0.5,1.7,1,2.5,1.5
	c-2.1,20.2,16.1,61.5,16.1,61.5c6.1-0.4,14.3,16.7,14.3,16.7c11,5.1,20.3-1.5,20.3-1.5c0.3-2.8-0.6-5.5-2-8.1
	c8.2,1.1,14.4-3.3,14.4-3.3c0.9-9.7-11.8-19.3-11.8-19.3c-15.9-15.9-17-34.4-15.7-45.7c12.7-3.8,22.7-9.6,22.7-9.6
	c40.8,18.4,94-12.8,94-12.8c12.2,15.7,24.4,20.6,34.9,20.5l5.2,16.2c10.3,17.9,2.6,49.6,2.6,49.6c7,1.2,13.6,20,13.6,20
	c5.8,5.4,20.2-1.2,20.2-1.2c0.8-2.5,0.4-5.3-0.5-8.1c5.8-0.5,11.9-3.3,11.9-3.3c3.2-10-12.2-25.2-12.2-25.2
	c-11.9-20.6-2.7-43.8-2.7-43.8l-4.3-16.3c20.7,1.8,22.7-16.7,22.7-16.7c19.4-2.8,8.6-20.2,8.6-20.2c21.6-0.7,18.8-22.7,18.8-22.7
	c28.7,10.3,30.5-18.4,30.5-18.4c19.5-4.3,17.2-23.8,17.2-23.8c7-7.3,5.3-15.2,3.6-19.5c4.4,1.9,17.4,8,31.1,20.2
	c0,0,10.9,0.1,12.4-8.4l0.8,0.3c0,0,0.4-0.4,0.8-1.2C505.1,138.2,499.8,129.4,499.8,129.4z"/>
</svg>
