<?xml version="1.0" encoding="utf-8"?>
<!-- Generator: Adobe Illustrator 23.0.4, SVG Export Plug-In . SVG Version: 6.00 Build 0)  -->
<svg version="1.1" id="Layer_1" xmlns="http://www.w3.org/2000/svg" xmlns:xlink="http://www.w3.org/1999/xlink" x="0px" y="0px"
	 viewBox="0 0 60 60" style="enable-background:new 0 0 60 60;" xml:space="preserve">
<style type="text/css">
	.st0{fill:#666666;}
	.st1{fill:none;stroke:#666666;stroke-width:2;stroke-linecap:round;stroke-miterlimit:10;}
</style>
<path class="st0" d="M17.8,38.3h-7.5c-0.3,0-0.5-0.2-0.5-0.5V22.2c0-0.3,0.2-0.5,0.5-0.5h7.5V38.3z"/>
<path class="st0" d="M31.9,47.7l-12.1-9.4V21.7l12.1-9.4c0.3-0.3,0.8,0,0.8,0.4v34.7C32.7,47.8,32.2,48,31.9,47.7z"/>
<path class="st1" d="M38,23c3.9,0,7,3.1,7,7s-3.1,7-7,7"/>
<path class="st1" d="M38.3,17.6c6.9,0,12.4,5.6,12.4,12.4s-5.6,12.4-12.4,12.4"/>
</svg>
