<?xml version="1.0" encoding="utf-8"?>
<!-- Generator: Adobe Illustrator 24.0.0, SVG Export Plug-In . SVG Version: 6.00 Build 0)  -->
<svg version="1.1" id="Layer_1" xmlns="http://www.w3.org/2000/svg" xmlns:xlink="http://www.w3.org/1999/xlink" x="0px" y="0px"
	 viewBox="0 0 500 500" style="enable-background:new 0 0 500 500;" xml:space="preserve">
<style type="text/css">
	.st0{opacity:0.6;}
	.st1{fill:#FFFFFF;}
</style>
<g>
	<g class="st0">
		<g>
			<path class="st1" d="M270.1,306.7c5.7,7.1,7.7,11,15,17.1c1.3,1.1,2.7,2.2,4.3,2.8c2.7,0.9,9.5-2.3,12.3-2.3
				c2.8,0,6.2,1.1,6.9,3.8c-2.9-2-6.6-2.7-10-1.9c4-0.2,8.1-0.3,11.7,1.2c3.6,1.6,6.6,5.4,5.9,9.3c-0.8-4.3-5.6-6.7-9.9-7.1
				s-12.6,3.2-16.9,3c-7.3-0.4-13.6,2.5-20.5,4.7c2.3-2.7,11-8.5,14.4-7.5c-5.4-5.7-10.8-11.3-16.2-17c-3.9-4.1-7.9-8.3-10.8-13.2
				c-1.1-1.9-2.1-4.3-1.3-6.4c0.8-2.1,4.2-3.1,5.3-1.1C260.4,292.2,264.5,299.5,270.1,306.7z"/>
		</g>
		<g>
			<path class="st1" d="M264.3,307.6c0.3-0.1,0.6-0.1,0.9-0.2c0.8-0.2,1.6-0.3,2.2-0.9c0.6-0.6,0.8-1.5,0.9-2.4
				c1.4-9.6,0-19.3-1.5-28.8l-24.3,12.5c2.5,6.1,6.2,11.8,10.9,16.4c3.2,3.1,5.5,3.4,9.5,3.7L264.3,307.6z"/>
		</g>
	</g>
	<g>
		<path class="st1" d="M307.6,177.4c-15.5,1.1-30.7,7.3-42.7,17.2c-6.3,5.3-11.7,11.5-17.9,17c-6.2,5.6-13.2,10.2-19.9,15.2
			c-14.4,10.5-27.9,22.2-40.4,34.9c-5.2,5.3-10.3,10.9-14,17.3c-0.9,1.6-1.7,3.8-0.4,5.2c0.5,0.5,1.1,0.8,1.8,1
			c7.8,2.6,16.3-0.2,24.6,0.1c9.2,0.4,17.7,4.6,26.6,7.1c18.9,5.4,39.3,2.8,57.8-3.9c15.7-5.7,30.4-14.5,41.9-26.6
			c11.5-12.1,19.6-27.7,21.6-44.3c0.9-7.8,0.5-15.8-2.7-23c-3.1-7.2-9.1-13.3-16.7-15.3L307.6,177.4z"/>
	</g>
	<g>
		<path class="st1" d="M178.6,278.4c-12.5,5.8-24.1,13.3-35.6,20.9c-12,7.8-24.1,15.8-33.8,26.3c-1.6,1.7-3.1,3.7-3,6
			s3.3,4.2,4.8,2.5c-2.3,2.4-4,5.3-4.9,8.5c-0.2,0.7-0.3,1.6,0.3,2.1c0.4,0.3,0.9,0.3,1.4,0.3c2.5-0.3,4.9-1.6,6.4-3.5
			c-0.6,0.5-0.2,1.5,0.6,1.7s1.5-0.1,2.1-0.5c2.2-1.4,4-3.5,5.1-5.9c-0.3,0.7,0.5,1.5,1.3,1.6c0.8,0,1.5-0.5,2.2-0.9
			c7.3-5.1,14.6-10.2,21.8-15.3c1.1-0.8,2.3-1.6,3.5-2.1c1.5-0.7,3.2-0.9,4.9-1.3c15.6-2.9,30.1-9.7,44.4-16.4
			c13.6-6.4,27.1-12.7,40.7-19.1c-13.7-5.2-27.5-9.9-41.4-14.2L178.6,278.4z"/>
	</g>
	<g>
		<g>
			<path class="st1" d="M282.4,313.6c6.8,6.1,15.4,11.1,23.6,15.9c1.5,0.9,3,1.8,4.7,2c2.8,0.5,5.6-0.7,8.4-1.2s6.3,0.1,7.4,2.7
				c-3.2-1.5-7-1.6-10.2-0.2c3.9-0.8,7.9-1.6,11.8-0.7c3.8,1,7.4,4.2,7.3,8.2c-1.5-4.1-6.6-5.7-10.9-5.4c-4.3,0.4-8.5,2.2-12.8,2.6
				c-7.3,0.8-15.1-2.2-21.6,1.2c1.9-3,5.6-4.8,9.1-4.4c-6.2-4.7-12.5-9.4-18.7-14.2c-4.5-3.4-9.1-6.9-12.8-11.3
				c-1.4-1.7-2.8-3.9-2.4-6.1c0.4-2.2,3.6-3.7,5-1.9C270.4,301,275.7,307.5,282.4,313.6z"/>
		</g>
		<g>
			<path class="st1" d="M274.7,309c0.3-0.1,0.6-0.1,0.9-0.2c0.8-0.2,1.6-0.3,2.2-0.9c0.6-0.6,0.8-1.5,0.9-2.4
				c1.4-9.6,0-19.3-1.5-28.8L253,289.1c2.5,6.1,6.2,11.8,10.9,16.4c3.2,3.1,5.5,3.4,9.5,3.7L274.7,309z"/>
		</g>
	</g>
	<g>
		<g>
			<path class="st1" d="M292.3,184.1c6.6-9.1,13.1-18.2,19.7-27.3c4.3-6,9-12.2,15.9-14.7c8.9-3.2,21.7-0.7,26.7,7.3
				c7.2,11.6-2.6,26.9-3.7,33.5s-0.7,13.3-1.6,19.9c-1.9,13.4-10.4,26.6-23.3,30.7c-6.8,2.2-14,1.8-21.1,1.3
				c-5.1-0.3-10.5-0.7-14.7-3.6L292.3,184.1z"/>
		</g>
		<g>
			<path class="st1" d="M334.2,169.7c11.1,8.4,20.9-0.1,26.8-3.2c3.7-2,8-2.3,12.1-2.5c6.5-0.4,12.9-0.8,19.4-1.2
				c-8.9-5.4-18.7-9.1-29-10.9c-1.7-0.3-3.4-0.5-4.9-1.2c-1.5-0.6-2.9-1.5-4.1-2.5c-4.8-3.9-18.9-7.7-22.4,1.6
				C328.7,159.1,327.6,164.8,334.2,169.7z"/>
		</g>
	</g>
</g>
</svg>
