<?xml version="1.0" encoding="utf-8"?>
<!-- Generator: Adobe Illustrator 24.0.0, SVG Export Plug-In . SVG Version: 6.00 Build 0)  -->
<svg version="1.1" id="Layer_1" xmlns="http://www.w3.org/2000/svg" xmlns:xlink="http://www.w3.org/1999/xlink" x="0px" y="0px"
	 viewBox="0 0 500 500" style="enable-background:new 0 0 500 500;" xml:space="preserve">
<style type="text/css">
	.st0{fill:#FFFFFF;}
	.st1{opacity:0.6;}
</style>
<g>
	<g>
		<path class="st0" d="M320.7,203c3.6,13,5.4,26.6,5.4,40.1c0,5.2-0.3,10.6-2.2,15.5c-5.1,12.9-19.8,19.1-28.3,30
			c-3.3,4.2-5.6,9-8.8,13.2c-6.8,8.9-17.1,14.7-28,17.1c-10.9,2.4-22.4,1.5-33.2-1.3c-4.2-1.1-8.3-2.4-12.2-4.4
			c-10-5.3-17.2-14.7-23-24.4c-2.1-0.5-4-0.4-6-2c-1.1-0.9,0.4-3.5,1.5-4.5c1.1-1,3.1-3,3.1-3c1.3-2-6.3-1.6-6-4.6
			c0.4-3.7,3.9-4.8,7.6-4.6c-2.3-0.8-5.9-2.3-7.2-4.4c-1.7-2.7-2.7-5.5-1.7-8.5c0.6-1.8,3.7-4.5,3.1-6.3c-0.3-1-6.7-1.1-7.5-1.9
			c-2.6-2.8,1.2-7.1,0.6-10.9c-4.8,1.2-10-3.5-9.2-8.3c0.3-2.2,1.6-4,2.2-6.1c2.4-8.1-4.6-18,0.5-24.7c1.1-1.5,2.9-3.4,1.7-4.9
			c-0.7-0.9-2.1-0.8-3.2-0.9c-4.1-0.5-6.5-5.6-5.4-9.7c1.2-4,4.9-6.8,8.8-8.3c-1.9-2.9-3.7-7-1.3-9.3c0.8-0.8,2-1.2,3-1.8
			c6.2-3.5,7.1-14.4,14.2-15.3c2.9-0.4,5.8,1.4,7.6,3.7c1.8,2.4,2.7,5.2,3.6,8.1c1.7-1.7,3.4-3.5,5.1-5.2c5.9,8.9,7.6,20.5,4.4,30.7
			c1.1-0.7,2.2-1.4,3.3-2.1c2.4,1.9,1.8,5.6,1.8,8.7c0.1,8,5.8,15.3,13.1,18.6c11.9,5.4,25.9,1,37.7-4.5c11.9-5.5,24-12.2,37.1-11.5
			L320.7,203z"/>
	</g>
	<g>
		<g>
			<path class="st0" d="M230.5,309.7c1.5,4.6,3.1,9.2,4.6,13.8c0.6,1.9,1.3,3.8,2.4,5.5c1.8,2.6,4.8,4.4,8,4.8
				c3.2,0.3,6.5-0.8,8.8-3.1c2.2-2.2,3.4-5.1,4.6-8c2.6-6.6,5.2-13.2,7.8-19.8c0.3-0.7,0.5-1.4,0.2-2.1c-0.3-0.6-1-0.9-1.7-1.1
				c-9-2.9-18.8-1.2-27.9,1.2c-2,0.5-4.3,1.3-5,3.2L230.5,309.7z"/>
		</g>
		<g>
			<path class="st0" d="M250.5,328.4c2.8,9.6,6.3,18.9,10.5,28c1.2,2.6,2.7,5.4,5.3,6.7c3.1,1.5,6.7,0.4,10.1,0.3
				c3.3-0.1,6.6,0.7,9.5,2.4c-5-1.1-10.4-0.6-15.2,1.3c7.1,1.7,13.8,5.5,18.8,10.8c-4.4-1.4-8.8-2.8-13.2-4.3
				c-4.6-1.5-9.9-3-14.2-0.7c-4,2.1-5.8,6.7-8.8,10c1.9-4.2,3.2-8.6,4.1-13.1c0.2-0.8,0.3-1.7,0.2-2.5c-0.2-1.2-0.9-2.2-1.5-3.3
				c-6.4-10.7-6.4-24-11.1-35.6L250.5,328.4z"/>
		</g>
	</g>
	<g class="st1">
		<g>
			<path class="st0" d="M241.2,310.3c2.8,9.6,6.3,18.9,10.5,28c1.2,2.6,2.7,5.4,5.3,6.7c3.1,1.5,5.4,0.8,8.7-0.2
				c3.3-1.1,8.8-1.4,11.6,0.2c-4.8,0.9-11.2,2-15.9,3.9c7.1,1.7,14.5,2.8,19.5,8.2c-4.4-1.4-6.1-1.1-10.5-2
				c-4.8-1-13.3-2.6-17.6-0.4c-4,2.1-9.3,3.9-13,4.7c1.9-4.2,7.4-3.3,8.2-7.8c0.2-0.8,0.3-1.7,0.2-2.5c-0.2-1.2-0.9-2.2-1.5-3.3
				c-6.4-10.7-6.4-24-11.1-35.6L241.2,310.3z"/>
		</g>
	</g>
	<g>
		<g>
			<path class="st0" d="M321.6,248c2.5-2.9,3.8-6.8,4.6-10.6c2.6-11.6,2.1-23.8-1.3-35.2c-2-6.6-5-12.9-6.6-19.5
				c-1.2-4.8-1.7-9.7-3.2-14.4c-0.3-1.1-0.8-2.2-1.5-3.1c-0.9-1.1-2.1-1.9-3.4-2.4c-7.1-3.1-15.9-1.6-21.6,3.6
				c-5.7,5.3-7.8,13.4-9,21.1c-0.5,3.2-0.8,6.3-1.7,9.4c-0.8,2.7-2,5.4-3.1,8c-1.8,4.8-3,9.8-4.2,14.8c-0.7,3.1-1.5,6.5-0.5,9.5
				L321.6,248z"/>
		</g>
		<g>
			<g>
				<path class="st0" d="M306.1,195.7c-2.4-12.2-5.8-41.8-6.5-52.5c-0.6-10.7,1.5-19.9,4.5-18.7c-0.4-2.2-0.7-4.3-1.1-6.5
					c3,1,5.7,2.9,7.5,5.5c0.2-1.9,0.3-3.7,0.5-5.6c4.1,2.2,7.6,5.6,9.9,9.8c0.3-1.1,0.9-2.2,1.7-3.1c2.7,2.8-0.2,8.2,2.3,11.2
					c0.3,0.4,0.7,0.7,1,1.2c0.5,1-0.1,2.2-0.5,3.3c-1.2,3.6,3.5,8,7.2,8.8c-0.3,2-6.2,1.5-6.9,3.4c-0.2,0.6-0.1,1.3,0.1,2
					c2.8,11.3,1,23.7-4.8,33.8L306.1,195.7z"/>
			</g>
			<g>
				<path class="st0" d="M281.7,178.5c-0.5-3.5-1-7-0.4-10.4c1.5-9.6,10.5-16.1,14.5-24.9c0.2-0.4,0.4-0.9,0.4-1.4
					c0-0.6-0.3-1.1-0.6-1.6c-1.5-2.6-3.3-5-5.4-7.1c0.8-0.5,1.7-0.9,2.7-0.9c-2-1.9-3.9-4-5.7-6.2c2.3,0.7,4.6,1.3,6.8,2
					c0.4,0.1,1,0.2,1.3,0c0.5-0.4,0.4-1.1,0.2-1.7c-1-3.2-1.9-6.3-2.9-9.5c4.3,4.7,11.4,5.7,16.3,9.7c3.6,2.9,5.7,7.2,7.6,11.4
					c3.4,7.4,6.4,15.1,7.7,23.2s0.9,16.6-2.2,24.1c-3.2,7.5-9.3,14-17,16.6L281.7,178.5z"/>
			</g>
		</g>
	</g>
</g>
</svg>
