<?xml version="1.0" encoding="utf-8"?>
<svg version="1.1" id="Layer_1" xmlns="http://www.w3.org/2000/svg" xmlns:xlink="http://www.w3.org/1999/xlink" x="0px" y="0px"
	 viewBox="0 0 500 500" style="enable-background:new 0 0 500 500;" xml:space="preserve">
<style type="text/css">
	.st0{fill:#FFFFFF;}
	.st1{opacity:0.7;}

	#leftEar, #rightEar, #face, #tail {
	  transform-box: fill-box;
	  -webkit-backface-visibility: hidden;
	}

</style>
<filter id="dropshadow" height="130%">
  <feGaussianBlur in="SourceAlpha" stdDeviation="5"/>
  <feComponentTransfer>
    <feFuncA type="linear" slope="0.3"/>
  </feComponentTransfer>
  <feMerge> 
    <feMergeNode/> <!-- this contains the offset blurred image -->
    <feMergeNode in="SourceGraphic"/> <!-- this contains the element that the filter is applied to -->
  </feMerge>
</filter>
<g style="filter:url(#dropshadow)">
<g>
	<path class="st0" d="M388.9,125.9c-26.1-11.4-55.3-13.8-83.7-12.8c-28.4,1-56.7,5.2-85.1,6.5c-43.4,2-86.9-2.8-130.4-0.9
		c-3.1,0.1-6.4,0.3-9.1,2c-2.8,1.7-4.4,4.7-5.9,7.6c-16.7,34-13.5,74.5-4.3,111.2c2.2,8.7,5,17.9,11.7,23.9
		c4.8,4.3,11,6.5,16.3,10.1c9.2,6.2,12.7,11.9,20.8,19.5c12.5,11.8,30.2,15.2,47.4,13.7c17.2-1.4,29.5-4.7,44.2-17.4
		c1.9-1.7,5.5-4.1,7.8-5.3c1.8-0.9,3.8-0.9,5.8-1c31.7-1.1,63.4-2.2,95.1-3.3c14.4-0.5,30-1.4,41.2-10.4
		c8.5-6.8,13.1-17.3,19.2-26.3c7.8-11.5,18.3-21.2,24.5-33.6c9.6-19.3,7.5-42.1,5.1-63.5L388.9,125.9z"/>
</g>
<g>
	<path class="st0" d="M68.6,220c1.1,24.6,2.1,49.7-5.2,73.2c-1.7,5.5-3.9,10.8-4.6,16.5c-0.5,3.8-0.4,7.7-0.2,11.5
		c0.7,19.3,1.5,38.5,2.2,57.8c0.1,2.3,0.2,4.7,1.5,6.5c1.9,2.8,5.6,3.6,8.9,4.1c4.9,0.7,9.9,1,14.8,1c1.7,0,3.5,0,5-0.8
		c4-2,4.2-7.6,3.5-12c-3.2-19.1-14-37.4-11.2-56.5c0.6-4,1.8-7.9,4-11.2c2.1-3.1,5-5.6,7.8-8.2c19.5-18.4,31.7-44.3,33.5-71.1
		L68.6,220z"/>
</g>
<g class="st1">
	<path class="st0" d="M129.5,273.3c-3.6,12.5-8.8,24.6-15.5,35.7c-1.6,2.7-3.4,5.4-4.2,8.5c-0.6,2.3-0.7,4.7-0.8,7.1
		c-0.8,17.7-1.5,35.4,0.4,53c0.1,1.2,0.3,2.6,1.3,3.4c0.7,0.6,1.8,0.8,2.7,1c6,0.8,12.1,1.1,18.2,0.8c1.1-0.1,2.4-0.1,3.3-0.8
		c1.7-1.1,1.9-3.5,1.9-5.5c-0.2-14.9-6.7-29.4-5.9-44.3c0.7-14.2,7.7-27.1,14.6-39.5c2.1-3.7,4.1-7.4,6.2-11.2L129.5,273.3z"/>
</g>
<g>
	<path class="st0" d="M261.6,252.6c1.7,7.6,6.5,14.2,10.2,21.1c10.8,20.3,12.6,44,13.6,67c0.7,15.1,1.2,30.3,1.6,45.4
		c0,1.2,0.1,2.5,0.8,3.4c1,1.3,2.9,1.6,4.5,1.7c5.8,0.4,11.6,0.3,17.3-0.2c1.4-0.1,2.8-0.3,3.9-1.2c1.9-1.6,1.5-4.6,0.9-7
		c-3.7-14.9-9.4-30.7-4-45c1.2-3.3,3-6.4,3.9-9.9c1.3-5,0.4-10.3,0-15.5c-1.5-20,4.4-39.8,11.5-58.5L261.6,252.6z"/>
</g>
<g class="st1">
	<path class="st0" d="M356.7,256.6c-0.3,20.1-0.7,40.2-1,60.3c-0.3,19.9-0.6,40.3,6,59.1c0.3,0.9,0.6,2,0,2.8
		c-0.4,0.5-1.1,0.6-1.7,0.7c-5.6,0.9-11.3,1.4-17,1.4c-1.5,0-3.2-0.1-4.1-1.3c-0.6-0.8-0.6-1.8-0.7-2.8c-0.5-17.4-0.7-34.8-3.7-52
		c-3.6-20.5-11.2-40.3-12.4-61L356.7,256.6z"/>
</g>
<g class="st1" id="tail">
	<path class="st0" d="M74.5,136.6C53.9,173.2,50.1,216.4,39.7,257c-1,3.9-5,14.1-6.7,17.8c-3.7,8.2-7.6,14.5-9.6,23.2
		c-1.3,5.5-0.7,11.2-0.1,16.8c0.9,8,2.1,10.4,2.9,18.4c11.2-12,17-19,18.8-35.4c1.2-11,0.1-22.1,1.1-33.1c0.9-10.2,5-28.8,7.7-38.7
		c1.7-6.3,3.3-12.5,5-18.8c4.3-16.3,9.5-33.8,23.1-43.8L74.5,136.6z"/>
</g>
<g id="face">
	<g style="filter:url(#dropshadow)" id="rightEar">
		<path class="st0" d="M405.8,128.4c-4.3-7.1-14.5-15.5-22.5-17.6c-4.7-1.3-9.6-1.5-14.5-1.6c-4.8-0.2-9.5-0.4-14.3-0.5
			c0.7,10.8,7.4,20.7,16.2,27c8.9,6.3,19.7,9.3,30.5,10.4L405.8,128.4z"/>
	</g>
	<g class="st1" id="leftEar">
		<path class="st0" d="M437.3,130.5c2.9-5,8.8-7.4,14.4-8.6c10.3-2.1,21.1-1.2,31.6-0.2c-1.9,4.9-4.5,9.6-7.6,13.9
			c-1.4,1.9-2.9,3.7-4.6,5.2c-7.8,6.9-19.1,7.5-29.4,7.4L437.3,130.5z"/>
	</g>
	<g>
		<path class="st0" d="M449.2,128.2c-3.4-6.6-6.2-8.5-14.3-12.2c-8.9-4-23.8-5-32.4-0.2c-8.6,4.8-13.2,11.4-15.2,15.7
			c-6.6,14.3-2.4,38.7,3.9,49.2c8.1,13.5,12.1,17.5,22.3,29.4c2.6,3,5.3,6,8.7,7.9c7.3,4.2,16.6,3.2,24.4-0.2
			c2.9-1.3,5.8-2.9,7.5-5.5c3.5-5.2,1.6-12.1,0.3-18.2c-3.5-16.1-3.1-36.5-2.5-44.6C452.5,141.3,452.6,134.8,449.2,128.2z"/>
	</g>
	<g>
		<path class="st0" d="M411.9,127.9c-3.1-0.1-6.6-0.1-9,1.9c-0.8,0.7-1.5,1.5-2.1,2.3c-0.8,1.1-1.5,2.2-2,3.4
			c-1.4,3.1-1.4,6.9,0.3,9.9s5.5,4.7,8.8,3.9c1.7-0.4,3.2-1.4,4.5-2.6c1.7-1.5,3.2-3.2,4.1-5.3c1.2-2.8,1.3-5.9,1.1-9L411.9,127.9z"
			/>
	</g>
</g>
</g>
</svg>
