<?xml version="1.0" encoding="utf-8"?>
<!-- Generator: Adobe Illustrator 24.0.0, SVG Export Plug-In . SVG Version: 6.00 Build 0)  -->
<svg version="1.1" id="Layer_1" xmlns="http://www.w3.org/2000/svg" xmlns:xlink="http://www.w3.org/1999/xlink" x="0px" y="0px"
	 viewBox="0 0 500 500" style="enable-background:new 0 0 500 500;" xml:space="preserve">
<style type="text/css">
	.st0{fill:#FFFFFF;}
	.st1{opacity:0.7;}
		#leftEar, #rightEar, #face, #facenNeck, #tail {
	  transform-box: fill-box;
	  -webkit-backface-visibility: hidden;
	}
</style>
<filter id="dropshadow" height="130%">
  <feGaussianBlur in="SourceAlpha" stdDeviation="5"/>
  <feComponentTransfer>
    <feFuncA type="linear" slope="0.3"/>
  </feComponentTransfer>
  <feMerge> 
    <feMergeNode/> <!-- this contains the offset blurred image -->
    <feMergeNode in="SourceGraphic"/> <!-- this contains the element that the filter is applied to -->
  </feMerge>
</filter>
<g style="filter:url(#dropshadow)">
<g>
	<path class="st0" d="M382.7,252.7c-2.1,13.7-8.7,39.4-3.3,52.9c2.1,5.3,8,17,8.9,23.9c1,7.6-1,10.1-1.6,17.8
		c-1.3,16.9,1.9,20.5,2.7,36.3c0.1,2.8,0.2,5.7-1,8.1c-0.8,1.6-2.1,2.8-3.4,3.9c-6.8,5.7-15.7,8.9-24.6,8.7c-1.5,0-3.3-0.3-4.1-1.7
		c-0.8-1.5,0.2-3.3,1.1-4.8c7.1-11.5,8.8-35.6,10.1-49c1-10.1-1.4-14.1-7.5-22.3c-2.2-3-5.2-5.4-7.6-8.2c-6.9-8.1-8.7-19.1-9.9-29.7
		c-0.9-8.1-1.6-16.3-2-24.5L382.7,252.7z"/>
</g>
<g>
	<path class="st0" d="M380.5,216.4c-7.4-14.5-24.4-21.8-40.5-24c-19.1-2.6-38.3,1.3-57.6,2c-30.1,1.1-59.9-5.5-89.3-12l-19.6,14.9
		c-6,14.4-9.2,21.3-8,36.8c0.7,8.5,1.5,23.4,2.7,27.6c2.1,7.3,8,12.7,13.3,17.4c5.5,4.8,11.7,9,18.6,11.1
		c10.2,3.1,21.1,1.5,31.7,2.5c14.9,1.5,29,8.2,43.9,9.7c9.6,1,19.3-0.2,28.8-1.8c14.7-2.4,29.4-5.6,42.8-12s25.6-16.3,32.5-29.5
		c4.4-8.4,6.7-18.2,5.4-27.5C383.9,221.5,383.1,221.4,380.5,216.4z"/>
</g>
<g class="st1">
	<path class="st0" d="M295.8,264.3c-0.2,9.3,0.5,18.5,3.4,27.3c2.6,8.2,5.5,16.3,8.5,24.3c1.7,4.6,5.6,9.2,5.7,14.1
		c0.2,4.4-1,8.7-2.2,13c-3.6,13-7.7,26.8-17.7,35.8c-2.5,2.3-5.7,4.9-5.2,8.2c0.6,4.1,6,5.2,10.1,5.3c6.7,0.2,14.3,0,18.8-5
		c2.7-3,2.7-7.3,3.6-11.2c2.8-11.5,6.9-22.7,12.1-33.4c2.1-4.4,5.5-8.8,6.5-13.6c1-4.9-3.5-12.9-3.9-17.8
		c-1.3-15.9,2.2-28.9,2.7-44.8L295.8,264.3z"/>
</g>
<g>
	<path class="st0" d="M203.8,273.6c3.2,19.1,5.9,38.3,5.4,57.7c-0.5,19.3-0.4,40.9-9.7,57.8c-1.9,3.4-4,5.2-2.7,8.8
		c1.6,4.6,7.5,5.7,12.4,5.6c5.3-0.1,11-1,15-4.5c6-5.4,5.7-14.8,4.9-22.8c-3-31.7-6.5-64.5,3.7-94.6L203.8,273.6z"/>
</g>
<g class="st1">
	<path class="st0" d="M180.2,274c1.4,13.7,2.1,27.5,2.2,41.3c0.1,21-1.7,43-13.4,60.4c-1.5,2.2-3.2,4.9-2.2,7.4
		c1.2,2.8,5,3.2,8.1,2.9c5-0.5,9.9-1.6,14.6-3.2c2.4-0.8,4.8-1.8,6.3-3.7c2-2.4,2.3-5.8,2.4-8.9c0.7-17.2-0.9-34.4,1.5-51.4
		c2-14.1,6.8-27.9,6.7-42.2L180.2,274z"/>
</g>
<g id="tail">
	<path class="st0" d="M364.2,207.3c11.4,1.7,23.6-4.7,28.5-15.1c2-4.2,3.7-9.6,8.3-10.3c2.5-0.4,5,1.1,6.6,3.1s2.2,4.6,2.7,7.1
		c1.5,8.7-0.1,18.6-6.4,24.8c-4.3,4.2-10.2,6.3-16.1,7.8c-6.3,1.6-12.8,2.5-19.3,2.9L364.2,207.3z"/>
</g>
<g id="facenNeck">
	<g>
		<path class="st0" d="M230,195.7c-6.1-2.1-12.2-4.2-18.2-6.5c-6.1-2.3-12.2-4.8-17.4-8.8c-12-9.5-16.1-25.5-21.9-39.7
			c-0.3-0.7-0.6-1.4-1.1-1.9c-0.7-0.6-1.7-0.8-2.6-0.8c-3.9-0.1-7.5,2.3-10.5,4.8c-10,8.3-18.2,18.8-23.7,30.6
			c-1.5,3.1-2.8,6.4-3,9.8c-0.5,7.7,4.6,14.7,10.4,19.8c5.8,5.1,12.5,9.3,17.3,15.4c5.7,7.3,8,16.5,10.7,25.3
			c1.1,3.6,2.6,7.7,6.1,9.2c2.2,1,4.7,0.8,7.1,0.5c10.1-1.3,20-4.2,29.2-8.6L230,195.7z"/>
	</g>
	<g id="face">
		<g>
			<path class="st0" d="M166.1,123.6c-7.9-4.5-18.8-2.3-27.8-3.1c-4.9-0.4-10.1-0.4-14.1,2.4c-3.5,2.4-5.4,6.5-6.9,10.5
				c-1.9,5.2-3.5,10.7-2.5,16.2c0.7,3.8,2.7,7.4,2.6,11.3c-0.1,4.4-3.3,8.5-7.5,9.8c-2.6,0.8-5.5,0.6-7.9,2c-3.4,2-4.3,6.4-3.8,10.3
				c0.7,5.3,3.8,10.3,8.2,13.4c4.3,3,9.8,4.2,15,4.5c5.7,0.4,11.5,0,17-1.7c5.9-1.7,11.3-4.8,16.5-8.1c3.1-2,6.2-4.1,8.7-6.9
				c6.5-7.4,7.3-18,7.8-27.8c0.2-4.6,0.5-9.3,0.7-13.9c0.2-3.5,0.4-7-0.4-10.4C171,128.6,169.1,125.4,166.1,123.6z"/>
		</g>
		<g>
			<path class="st0" d="M108,192.7c1.6,8.2-0.3,17.1-5.1,23.9c1.8-0.2,3.5-0.9,4.9-2c-0.5,5.2-3,10.2-6.9,13.7
				c1.5-0.1,3-0.7,4.2-1.5c0.2,4.3-0.8,8.7-2.8,12.5c6.4-2.5,10.2-9.1,13.5-15.1c0.3,2.9,0.4,5.9,0.3,8.8c3.5-5,6.3-10.5,8.3-16.3
				c0.5,1.9,1,3.7,1.5,5.6c6.8-8.5,10.9-19.2,11.4-30.1L108,192.7z"/>
		</g>
		<g class="st1" id="rightEar">
			<path class="st0" d="M125,129.7c-4.6-5.3-12.2-6.6-19.1-6.7c-7-0.1-14.1,0.8-20.8-1.3c3.1,6.7,8.9,11.8,15.6,15.1
				s14,4.6,21.3,5.1L125,129.7z"/>
		</g>
		<g id="leftEar">
			<path class="st0" d="M162.8,130c6.2-5.2,15-6.3,23.1-5.6c8.1,0.7,16,2.9,24.2,3.4c-11.9,13.2-30.5,20-48.1,17.6L162.8,130z"/>
		</g>
		<g class="st1">
			<path class="st0" d="M128.6,128.1c1.4-7.2,1-14.8-1-21.9c-1.3-4.4-3.2-8.8-3-13.5c0-0.7,0.2-1.4,0.7-1.8c0.3-0.2,0.7-0.3,1-0.3
				c2.5-0.2,4.7,1.7,6.4,3.6c8.5,9.5,12.5,22.9,10.7,35.5L128.6,128.1z"/>
		</g>
		<g>
			<path class="st0" d="M150.4,131.1c-1-14.1,8.1-27.2,19.3-35.9c3.8-2.9,7.9-5.5,12.4-6.9c4.6-1.4,9.7-1.4,13.9,0.7
				c0.8,0.4,1.6,0.9,2,1.7c0.9,1.9-1,3.9-2.8,5c-6.9,4.7-14.2,8.9-20.1,14.8c-5.8,6-10.1,14.2-8.8,22.5L150.4,131.1z"/>
		</g>
	</g>
</g>
</g>
</svg>
