<?xml version="1.0" encoding="utf-8"?>
<!-- Generator: Adobe Illustrator 24.0.0, SVG Export Plug-In . SVG Version: 6.00 Build 0)  -->
<svg version="1.1" id="Layer_1" xmlns="http://www.w3.org/2000/svg" xmlns:xlink="http://www.w3.org/1999/xlink" x="0px" y="0px"
	 viewBox="0 0 500 500" style="enable-background:new 0 0 500 500;" xml:space="preserve">
<style type="text/css">
	.st0{fill:#FFFFFF;}
</style>
<g>
	<g>
		<path class="st0" d="M247.4,48.7c-4.2-2.3-9.4-2.7-13.9-0.9c-4.5,1.8-8,5.7-9.4,10.2c-1.4,4.5-3.1,10.6-3.9,15.2
			c-0.4,2.6-1.1,6.1-0.2,8.5c0.9,2.5,1.4,3.6,3.4,5.3c1.1,0.9,2.4,1.3,3.7,2c3.8,1.9,5.1,6.8,8.8,8.8c7.8,4,19.2,2.2,24.3-4.9
			c1-1.4,2.3-6.2,3.7-7.2c0.7-0.5,1.6-0.9,2.3-1.5c1.8-1.7,1.6-4.6,1.2-7.1c-0.5-2.8,1.1-2.6,1-7c-0.1-5-4.2-11.7-7.6-15.4
			c-3.5-3.8-8.8-5.1-13.8-6.2L247.4,48.7z"/>
	</g>
	<g>
		<path class="st0" d="M236,88c-0.2,5,0.1,10,0.9,15c0.2,1.2,0.4,2.5,1,3.6c0.5,1,1.2,1.8,1.9,2.6c2.2,2.3,4.6,4.5,7.7,5.5
			c3,0.9,6.7,0.3,8.7-2.2c1.8-2.3,1.7-5.5,1.6-8.4c-0.1-2.6-0.2-5.2-0.4-7.7c-0.1-2.9-0.3-5.9-1.1-8.7c-0.8-2.8-2.3-5.6-4.7-7.3
			L236,88z"/>
	</g>
	<g>
		<path class="st0" d="M243.2,99.4c-7.9,0.4-15.7,2.7-22.5,6.8c-5.3,3.2-10,7.4-14.6,11.5c-2.2,2-4.6,4.2-5.5,7.1
			c-1.6,5.1,1.6,10.2,3.5,15.2c1.9,4.9,2.5,10.2,3.1,15.4c1.9,16.3,3.5,32.7,4.9,49c0.7,8-0.7,16-0.9,24c-0.6,21.1-4.7,42-2.1,63
			c7.2,0.8,14.5,1.5,21.7,2.3c7.6,0.8,16.7,1.1,21.4-5c2.3,4.9,9,5.6,14.4,5.6c4.9,0,9.7,0,14.6-0.1c2.6,0,5.4-0.1,7.4-1.8
			c2.4-2.1,2.6-5.7,2.6-8.9c-0.1-50.2,0.6-100.4,2.3-150.5c0.2-4.6,0.2-9.4-2.2-13.3c-1.6-2.5-4.1-4.3-6.6-6c-2.5-1.8-5-3.5-7.6-5.3
			c-7.1-4.9-15.5-10.1-23.8-7.7L243.2,99.4z"/>
	</g>
	<g>
		<path class="st0" d="M215.2,279.3c-0.1,18.7,0.3,37.5,1,56.2c0.1,2.7,0.2,5.5,1.5,7.9c2.5,5,8.8,6.6,14.4,6.6
			c4.1-0.1,8.4,2.9,11.3,0c3.3-3.3,3.8-12.2,4.1-16.9c1-18,0.7-36.1,0.5-54.1L215.2,279.3z"/>
	</g>
	<g>
		<path class="st0" d="M219.6,377.9c1.8,14.3,3.1,33.7,5.3,47.9c0.5,3.4,2.5,4.3,2.7,7.8c0.2,4.1,2,5.6,5.2,8.1
			c2,1.6,4.7,1.9,7.2,2.2c2.3,0.2,5.1,0.3,6.7-1.4c1.3-1.4,1.3-3.5,1.3-5.4c-0.5-22.4-1-46.8-1.4-66.9c-0.1-4.5-0.2-9.1-1.9-13.3
			c-1.7-4.2-5.4-7.8-9.9-8.2c0,0-9-1-12.9,4C217.6,357.8,218.5,369,219.6,377.9z"/>
	</g>
	<g>
		<path class="st0" d="M218.6,353.4c1.1,2.2,3,4.1,5,5.5c3.5,2.3,7.7,3.8,11.8,3.1c4.1-0.6,9.9-3.2,10.8-7.3
			c0.6-2.8-0.2-5.8-1.5-8.3c-1.5-3.1-6.3-6.6-9.7-6.2c0,0-7.7,0.3-7.7,0.3c-8.3,1.1-10.3,7-8.4,13.9"/>
	</g>
	<g>
		<path class="st0" d="M231.3,432.2c-2.7,2.5-5.4,5-8.2,7.5c-1.9,1.7-3.8,3.5-4.8,5.8c-1,2.3-0.7,5.4,1.3,7c1.6,1.2,3.8,1.2,5.7,1.2
			c6.3-0.2,12.5-0.3,18.8-0.5c1.2,0,2.4-0.1,3.3-0.7c1-0.6,1.5-1.8,1.9-2.9c1.8-6-0.6-12.5-3.2-18.2L231.3,432.2z"/>
	</g>
	<g>
		<path class="st0" d="M275.3,268.9c-5.9-0.2-11.8-0.1-17.7,0.4c-0.6,0.1-1.3,0.1-1.8,0.6c-0.5,0.5-0.5,1.3-0.5,2.1
			c0.4,22.9,0.7,45.8,1.1,68.7c0.1,4.2,0.4,8.8,3.5,11.6c2.4,2.2,5.9,2.5,9.2,2.5c4.9,0,10.5-1.1,13.3-5.3c1.9-2.9,2-6.6,2-10.1
			c0.1-19.2,0.1-38.4,0.2-57.6c0-4.3,0-8.7-0.8-12.9L275.3,268.9z"/>
	</g>
	<g>
		<path class="st0" d="M263.1,339.1c-2,1.3-3.1,3.7-4,6c-1.5,4.1-2.4,9.1,0.3,12.5c2.6,3.4,7.4,4,11.7,4.4c2.7,0.2,5.6,0.3,7.9-1.2
			c2-1.4,3-3.8,3.8-6.2c0.9-2.7,1.9-5.6,1.2-8.4c-0.4-1.8-1.6-3.5-2.9-4.8c-4.2-4.5-11.4-6.6-16.7-3.5L263.1,339.1z"/>
	</g>
	<g>
		<path class="st0" d="M259,351.4c-2.4,1.3-3.2,5.8-3.8,10.4c-2.5,20.4-0.3,49-0.1,69.6c0,3,1.7,5.2,2.6,8.1c1,2.9,2.9,5.6,5.8,6.7
			c4.8,1.9,10.5-1.6,12.8-6.2c2.3-4.7,2.2-10.1,2-15.3c-0.2-6.3-0.3-12.7,0.6-19c0.5-3.7,1.4-7.4,2.1-11.1c1.9-10.4,1.9-21,2-31.6
			c0-3.8-0.4-8.3-3.8-10L259,351.4z"/>
	</g>
	<g>
		<path class="st0" d="M273,422c-0.2,5.1,2.7,9.9,6.1,13.7c3.4,3.8,7.4,7.2,10.3,11.4c0.9,1.3,1.7,2.9,1.3,4.4
			c-0.7,2.7-4.3,3.1-7.1,3c-8.7-0.5-16.1-1.5-24.8-2.3c-0.4,0-1.9-0.2-2.4-1c-0.5-0.8-0.9-1.5-1-2.8c-0.6-8,0-10.1,1.3-18L273,422z"
			/>
	</g>
	<g>
		<path class="st0" d="M202.1,125.4c-2.4,3.2-4.1,6.8-5.6,10.5c-8.8,21.8-11.5,45.9-9.4,69.3c0.1,1.2,0.3,2.5,1,3.5
			c1.3,1.9,4,2.1,6.3,2.1c4.3,0,9-0.1,12.3-2.8c3.5-2.9,1.8-9.2,2.4-13.8c2.5-19.6,6.3-38,6.3-57.7L202.1,125.4z"/>
	</g>
	<g>
		<path class="st0" d="M188,192.5c-3.3,24.4-4.6,49.1-4.1,73.7c0.1,4.3,0.3,8.6,2,12.6c1.7,3.9,5.2,7.3,9.5,7.7
			c2,0.2,4.2-0.5,5.4-2.1c0.7-0.9,1-1.9,1.3-3c1.3-4.2,2.6-8.7,1.3-12.9c-0.4-1.2-1-2.6-0.5-3.8c0.6-1.7,1.7-2.3,2.8-3.7
			c0.6-0.8,0.9-1.8,1-2.8c1.6-16.1,1.4-35.1,1.9-52c0.2-5.2,0.1-10.5-0.6-15.6L188,192.5z"/>
	</g>
	<g>
		<path class="st0" d="M286.2,115.7c8.8,5.4,15.7,13.9,19.2,23.6c2.3,6.3,3.1,13,3.9,19.6c1.4,10.9,2.7,21.7,4.1,32.6
			c0.9,7.2,1.8,14.3,2.1,21.5c0.1,1.4,0.1,2.9-0.6,4.2c-0.9,1.7-2.6,2.6-4.3,3.4c-3,1.4-6.5,2.9-9.5,1.3c-3.5-1.8-4.9-3.4-5-7.3
			c-0.2-14.4-4-31.7-8.2-45.4c-3.1-10.1-4.6-20.3-5.3-30.8L286.2,115.7z"/>
	</g>
	<g>
		<path class="st0" d="M314.9,201.5c2.5,12.7,0.4,37.9,1.5,56.8c0.4,7.2,0.7,14.7-2.4,21.2c-1.4,2.9-3.5,5.5-6.4,6.9
			c-2.2,1.1-4.7,1.4-7,0.6c-2.3-0.8-4.2-2.8-4.5-5.2c-0.3-1.8,0.4-3.6,1-5.4c1.3-3.7,2.6-7.5,5.2-10.4c-2.7,0.4-4.1-3-4.5-5.7
			c-2.2-15.8-3.1-31.9-1.5-47.8c0.4-4.5,1.2-9.2,3.9-12.9C300.2,199.7,312.4,188.6,314.9,201.5z"/>
	</g>
</g>
</svg>
