<?xml version="1.0" encoding="utf-8"?>
<!-- Generator: Adobe Illustrator 23.0.4, SVG Export Plug-In . SVG Version: 6.00 Build 0)  -->
<svg version="1.1" id="Layer_1" xmlns="http://www.w3.org/2000/svg" xmlns:xlink="http://www.w3.org/1999/xlink" x="0px" y="0px"
	 viewBox="0 0 600 400" style="enable-background:new 0 0 600 400;" xml:space="preserve">
<style type="text/css">
	.st0{fill:#FFFFFF;}
</style>
<g>
	<path class="st0" d="M430.4,181.9C430.4,181.9,430.4,181.9,430.4,181.9c-1.7-4-24-17.8-24-17.8c-1.9-4.6-5-7.4-8.4-9.1
		c-0.6-5-2.4-12.1-7.4-13.1c-7.9-1.6-3.6,5.4-3.6,5.4c1.3,1.9,1.8,3.7,1.9,5.2c-7.8-13.4-17.3-5.3-17.3-5.3
		c-2.7,2.2-3.1,4.9-2.5,7.6c-13,1.5-21.6,1.2-26.9,0.6c-18.3-8.2-40.7-13.1-62.6-13.1c-34.8,0-58.1,12.5-68.9,30.7
		c-2.6,3.5-4.8,7.8-6.1,13.3c-0.6,2.5-1,5-1.1,7.4c-1.7,1.4-3.1,6.5-6.1,9c-3,2.5-6.7,5.7-10.4,10c-1.8,2.1-3.7,4.5-5.5,7.2
		c-1.8,2.7-3.4,5.8-4.7,9.3c-1.3,3.5-2.1,7.5-2.1,11.7c0,2.1,0.3,4.3,0.8,6.4c0.5,2.1,1.3,4.2,2.2,6.2c1.9,4,4.6,7.6,7.6,10.7
		c3.1,3.1,6.5,5.8,10.1,8.2c7.3,4.8,15.2,8.5,23.4,11.6c8.2,3.1,16.7,5.6,25.2,7.8l6.4,1.6c2.1,0.5,4.2,1,6.3,1.5
		c4.1,1,8.2,2.1,12.3,3.2c4,1.1,8,2.4,11.9,3.7c3.9,1.3,7.6,2.7,11.2,4.3c3.5,1.6,6.9,3.4,9.6,5.5c1.4,1,2.5,2.1,3.3,3.3
		c0.8,1.1,1.1,2.1,1,3.2c-0.1,1-0.6,2.2-1.4,3.4c-0.9,1.2-2,2.3-3.3,3.3c-2.5,2-5.3,3.7-8.1,5.2c-2.8,1.5-5.6,2.7-8.3,3.9
		c-2.7,1.1-5.3,2.2-7.7,3.1c-4.9,1.8-9.3,3.2-12.9,4.4c-3.6,1.1-6.5,2-8.4,2.5c-2,0.5-3,0.8-3,0.8s1.1-0.1,3.1-0.4
		c2-0.3,5-0.7,8.7-1.4c3.7-0.7,8.3-1.6,13.4-2.9c5.2-1.3,11-3,17.1-5.5c3.1-1.3,6.3-2.8,9.4-5c1.6-1.1,3.1-2.3,4.6-4
		c1.4-1.6,2.7-3.8,3.2-6.4c0.1-0.7,0.1-1.3,0.1-2c0-0.7-0.2-1.3-0.3-2c-0.2-0.6-0.4-1.3-0.6-1.9c-0.3-0.6-0.5-1.2-0.8-1.7
		c-1.2-2.1-2.8-3.8-4.5-5.2c-3.3-2.9-7-5-10.8-7c-7.5-3.9-15.6-6.9-23.8-9.6c-4.1-1.4-8.3-2.6-12.5-3.8c-2.1-0.6-4.2-1.2-6.3-1.7
		l-6.2-1.7c-8.2-2.3-16.3-4.9-24-7.9c-7.7-3-15-6.5-21.3-10.7c-3.1-2.1-6-4.4-8.4-6.8c-2.4-2.4-4.4-5.1-5.7-7.8
		c-0.6-1.4-1.1-2.7-1.5-4.1c-0.3-1.4-0.6-2.8-0.6-4.2c-0.1-2.8,0.4-5.5,1.3-8.2c0.9-2.6,2.1-5.1,3.5-7.4c1.4-2.3,2.9-4.4,4.4-6.3
		c3.1-3.8,6.2-7,8.9-9.4c0.9-0.8,1.6-0.1,2.4,1.2c0.9,2.7,2.1,5.2,3.6,7.4c3.4,5.5,8.5,10.7,16.2,12.2c18.6,3.6,14,26.5,14,26.5
		s8.3,7.5,19.1,10.7c0,0,5-0.3,4.7,8.5c0,0.9,1.2,1.4,1.7,0.5c0.9-1.6,1.6-4.1,0.8-8.1c0,0,8.5,3.4,12,8.5c0.7,0.9,2.1,0.5,2.2-0.6
		c0.1-2.4-1.2-5.7-7.1-8.6c0,0,8.1,0.7,12.5,3.2c1,0.5,2-0.5,1.6-1.5c-0.9-2-3.6-4.5-11-5.6c0,0,2.3-0.7,4.6-0.4
		c0.9,0.1,1.4-1,0.7-1.6c-1.9-1.7-5.7-3.3-13.1-2.2c0,0-13.4-4.1-14.9-9.9c0,0,13.6-4.3,23.5-13.2c1.3,0,2.6,0,3.9,0
		c19.3,0,38.8-1.1,55.5-4.2c1.7,2.5,3.7,5,6.1,7.2c15.3,14.3,25.7,16.8,32.1,15.8c0.5,0,0.9,0.1,1.3,0.1c0,0,0.4,1.4,7.1,2
		c0,0,1.1,2.7,3.8,3.8c0,0,1.5-1-0.3-4.6c0,0,4.5,0.2,6.9,3.7c0,0,3.4-0.7-3.1-5.6c0,0,3.9,1.6,5,4.3c0,0,3.9-1.5-3.8-6.1
		c0,0,2.1-0.3,3.9,0.9c0,0,2.5-4.9-6.7-3c0,0-3.4-0.2-6.4-0.9c-19.4-11.9-11.8-23.2-11.8-23.2l14.5-20.9c6.1-4.5,15.9-4.2,23.5-4.7
		c10.8-0.7,15.4-5.3,17.3-8.4c2-1.2,5.2-3.3,5.6-4.6l0.2,0.1C431.5,188.1,434.2,184.5,430.4,181.9z"/>
</g>
</svg>
