<?xml version="1.0" encoding="utf-8"?>
<!-- Generator: Adobe Illustrator 24.0.0, SVG Export Plug-In . SVG Version: 6.00 Build 0)  -->
<svg version="1.1" id="Layer_1" xmlns="http://www.w3.org/2000/svg" xmlns:xlink="http://www.w3.org/1999/xlink" x="0px" y="0px"
	 viewBox="0 0 497 500" style="enable-background:new 0 0 497 500;" xml:space="preserve">
<style type="text/css">
	.st0{fill:#FFFFFF;}
	.st1{opacity:0.7;}

	#leftEar, #rightEar, #face, #facenNeck, #tail {
	  transform-box: fill-box;
	  -webkit-backface-visibility: hidden;
	}

</style>
<filter id="dropshadow" height="130%">
  <feGaussianBlur in="SourceAlpha" stdDeviation="5"/>
  <feComponentTransfer>
    <feFuncA type="linear" slope="0.3"/>
  </feComponentTransfer>
  <feMerge> 
    <feMergeNode/> <!-- this contains the offset blurred image -->
    <feMergeNode in="SourceGraphic"/> <!-- this contains the element that the filter is applied to -->
  </feMerge>
</filter>
<g style="filter:url(#dropshadow)">
<g>
	<path class="st0" d="M118.4,149.5c22.3-0.7,42-14.4,64.3-14.9c30.3-0.6,61.4,17.9,91.6,21.1c25.8,2.7,51.7-1.3,77.5-4.1
		c9.8-1.1,19.7-2,29.4-0.4c19.3,3.1,36.1,16.3,46.5,32.9c10.4,16.6,14.9,36.2,16.1,55.8c1.1,17.6-1.8,37.9-16.4,47.9
		c-6.8,4.7-15.1,6.3-23.2,7.8c-64.7,11.7-130.2,17.3-195.7,22.9c-9.6,0.8-19.6,1.6-28.5-2.2c-8.5-3.7-14.8-11.1-20.3-18.7
		c-14-19.5-24.8-41.3-31.6-64.3c-2.9-9.6-3.7-18.7-6.8-30.7c-3.1-12-2.1-20.2-0.4-31.4L118.4,149.5z"/>
</g>
<g>
	<path class="st0" d="M435,228.8c8.3,18.8,9.6,40.6,3.6,60.2c-1.9,6.2-4.5,12.3-5.1,18.8c-0.8,9.5,2.9,18.8,7,27.4
		c2.6,5.3,5.4,10.7,6,16.5c0.6,5.6-1,11.2-2.2,16.7c-2.7,11.6-4.2,23.6-4.6,35.5c-0.2,6-0.6,13-5.5,16.4c-2.5,1.7-5.6,2.1-8.7,2.4
		c-10.4,1.1-20.9,2.2-31.2,0.8c-0.9-0.1-1.8-0.3-2.5-0.8c-1.4-1-1.7-3-1.1-4.6c0.5-1.6,1.7-2.9,2.9-4.2c10.8-12,19.3-25.9,25.1-40.8
		c2.1-5.3,3.8-11,3.3-16.7c-0.5-5.2-2.8-10-5.5-14.5c-6.8-11-16.3-20.4-21.7-32.2c0.9-3.1-1.4-6-3.5-8.4
		c-13.9-15.9-26.2-33.3-36.6-51.7L435,228.8z"/>
</g>
<g class="st1">
	<path class="st0" d="M397.8,272.9c-1.6,22.5-0.5,45.2,3.2,67.4c0.4,2.1,0.7,4.3,0.3,6.4c-0.4,1.9-1.5,3.7-2.5,5.4
		c-8.3,14.3-12,30.7-17.2,46.4c-1.3,3.8-2.8,7.8-5.9,10.4c-4,3.3-9.7,3.4-15,3.4c-5.8,0-11.5-0.1-17.3-0.1c-2.4,0-5-0.1-6.8-1.7
		c-2.5-2.2-2.2-6.3-0.3-9c1.8-2.7,4.7-4.5,7.4-6.5c10.5-7.8,17.6-19.5,23.2-31.4c2.8-5.9,5.3-12.3,4.5-18.8c-0.6-4.6-2.8-8.9-5-13
		c-8.5-16.4-16.4-34.5-14-52.9L397.8,272.9z"/>
</g>
<g class="st1">
	<path class="st0" d="M150.9,277.6c15,23.9,16.4,53.7,15.3,81.9c-0.3,7.8-0.8,15.7-3.2,23.1c-2.9,8.8-8.3,16.5-12.9,24.6
		c-0.6,1-1.2,2.2-0.9,3.4c0.5,2.1,3.3,2.6,5.5,2.5c11.5-0.7,22.3-5.8,32.7-10.8c0.7-0.3,1.5-0.7,1.9-1.3c0.5-0.7,0.7-1.6,0.8-2.5
		c1.5-15.2-5.2-31.1,0.3-45.4c1.7-4.5,4.5-8.4,6.9-12.5c14.1-24.1,13.5-53.7,12.5-81.6L150.9,277.6z"/>
</g>
<g>
	<path class="st0" d="M195.6,274.7c-0.2,14.3,0.8,28.7,3,42.9c1.3,8.2,2.9,16.4,3.9,24.7c3.2,25.8,0.2,52-1.2,77.9
		c-0.2,3.5-0.1,7.7,2.8,9.8c2.7,1.9,6.3,1,9.4,0c5.7-1.8,12-4.2,14.5-9.6c2.2-4.8,0.9-10.3-0.2-15.5c-2.3-11.1-2.8-22.6-1.7-33.8
		c0.6-5.6,1.6-11.2,3.5-16.5c1.9-5.2,4.5-10,6.8-15c3-6.8,5.2-13.9,7.4-21.1c4.3-13.9,8.6-27.9,12.9-41.8L195.6,274.7z"/>
</g>
<g class="st1" id="tail">
	<path class="st0" d="M410.6,171.8c13.5-2.3,28.3-3.2,39.8,4.2c11.8,7.5,17.2,22.1,18.7,36c3.6,35.3-13.6,70.1-10.6,105.5
		c0.7,8,2.3,16.2,0,23.8c-3,9.7-11.9,16.2-17.2,24.9c-3.6-12.5-2.3-25.9,0.8-38.6c3-12.6,7.7-24.8,11-37.4c5-19.4,6.4-39.5,6.6-59.4
		c0.2-13.4-0.7-28.3-10.2-37.8c-8.9-8.8-23.1-10.2-35.1-6.8L410.6,171.8z"/>
</g>
<g id="facenNeck">
	<g>
		<path class="st0" d="M140.3,254.8c-15.2-9.8-34.3-11-52.3-9.5c-1.3,0.1-2.6,0.2-3.9-0.2c-1.4-0.5-2.5-1.8-3.1-3.2
			c-2.5-5.3-0.2-11.6,2.3-16.9c3.2-6.5,7.3-13.2,13.9-16.3c4.9-2.3,10.5-2.3,15.9-2.1c7,0.3,14.4,1.1,20,5.3
			c5.5,4.2,8.4,11,9.9,17.8c1.7,7.6,1.9,15.6,0.6,23.3L140.3,254.8z"/>
	</g>
	<g id="face">
		<g>
			<path class="st0" d="M72.6,141.8c-6.3,0.8-12.6,0.8-16.9-4.9c-1.4-1.9-2.2-4.3-2.5-6.7c-1.1-8.4,2.7-16.6,4.9-24.7
				s2.3-18.3-4.3-23.6c-1.7,17.6-20.1,29.2-24.8,46.3c-2.5,9.1-0.7,19.4,4.8,27.1s14.7,12.7,24.1,13.1L72.6,141.8z"/>
		</g>
		<g>
			<path class="st0" d="M83.9,138.5c13.3-0.6,35.1,0.6,49.4,10c17.1,11.3,12.1,35.3,5.9,57.5c-4.8,17.1-30.4,22.8-40.6,35
				c-6,7.3-12.8,14-21.3,18.1c-5.4,2.6-11.9,1.6-17.6-0.5c-4.1-1.6-8.5-4.2-9.3-8.6c-0.6-3.2,0.8-6.4,2-9.5
				c5.1-13.2,5.2-27.6,5.3-41.8c0-7.2,0.1-14.5-2.2-21.2c-0.9-2.7-2.2-5.4-2.6-8.3c-0.7-4.8,1.1-9.6,2.8-14.1c1.3-3.3,2.3-5.9,5-9.5
				C63.5,142.2,70.6,139.2,83.9,138.5z"/>
		</g>
		<g>
			<path class="st0" d="M129.6,144c7.5-0.2,14.1-5.5,17.6-12.1c3.5-6.6,4.3-14.3,4.2-21.8c-0.1-5.7-0.6-11.4,0.3-17
				c0.9-5.6,3.6-11.2,8.5-14.1c-1,8.5,5.1,19.2,9.4,26.5c7.9,13.3,8.5,26.9,1.5,40.7c-7,13.8-20.2,23.9-35,28.5
				c-1.9,0.6-4,1.1-5.9,0.6c-3.5-0.8-5.5-4.5-6.6-7.9c-2.3-7.1-2.3-14.9-0.1-22L129.6,144z"/>
		</g>
		<g class="st1" id="rightEar">
			<path class="st0" d="M55.1,160.9c-10.5,1.4-19.5,8.9-29.9,10.6c8.7,8.6,23.1,10.5,33.8,4.6c2.4-1.3,4.8-3.3,5.2-6L55.1,160.9z"/>
		</g>
		<g id="leftEar" style="filter:url(#dropshadow)">
				<path class="st0" d="M176.8,169.9c-6.6,0.3-12.9-1-19.3-2.5c-7.1-1.7-14.2-3.4-21.5-4.2c-1.1-0.1-2.1,0.8-2.4,1.9
				c-2.9,5.4-5.7,10.9-8.6,16.3c-0.7,1.3-0.2,2.6,0.9,3.4c6.3,4.5,15,4.6,22.4,4c4.1-0.4,8.1-0.9,11.9-2.5c3.5-1.4,6.7-3.4,9.8-5.5
				c2.8-2,5.5-4.2,8.1-6.2C180,173.3,179.5,169.8,176.8,169.9z"/>
		</g>
		<g>
		<polygon class="st0" points="130.5,158.3 138.2,168.4 134.1,183 118.3,180.4 		"/>
		</g>
	</g>
</g>
</g>
</svg>
