<?xml version="1.0" encoding="utf-8"?>
<!-- Generator: Adobe Illustrator 24.0.0, SVG Export Plug-In . SVG Version: 6.00 Build 0)  -->
<svg version="1.1" id="Layer_1" xmlns="http://www.w3.org/2000/svg" xmlns:xlink="http://www.w3.org/1999/xlink" x="0px" y="0px"
	 viewBox="0 0 500 500" style="enable-background:new 0 0 500 500;" xml:space="preserve">
<style type="text/css">
	.st0{fill:#FFFFFF;}
	.st1{opacity:0.7;}

		#leftEar, #rightEar, #face, #tail {
	  transform-box: fill-box;
	  -webkit-backface-visibility: hidden;
	}

</style>
<filter id="dropshadow" height="130%">
  <feGaussianBlur in="SourceAlpha" stdDeviation="5"/>
  <feComponentTransfer>
    <feFuncA type="linear" slope="0.3"/>
  </feComponentTransfer>
  <feMerge> 
    <feMergeNode/> <!-- this contains the offset blurred image -->
    <feMergeNode in="SourceGraphic"/> <!-- this contains the element that the filter is applied to -->
  </feMerge>
</filter>
<g style="filter:url(#dropshadow)">
<g>
	<path class="st0" d="M108.8,171c42.3,8.2,85.5-2,128.1-8c34-4.7,68.3-6.7,102.6-7.2c22.9-0.4,46.4,0,68,8.4s41.1,26.4,46.1,50.3
		c5.8,27.8-9.8,57-32.1,72.7c-22.3,15.7-49.9,20.3-76.7,21.3c-27.5,1-55.1-1.3-82.5-4.1c-44.7-4.6-90.4-10.8-130.6-32.1
		c-14.7-7.8-29.2-18.3-36.4-34c-6.5-14.2-6.3-30.7-4.1-46.3L108.8,171z"/>
</g>
<g>
	<path class="st0" d="M175.2,260.7c5.9,37.2,4.5,75.5-4.2,112.1c-0.7,3.1-1.5,6.4-0.1,9.2c1.7,3.3,6,4.7,9.7,3.8
		c3.6-0.8,6.7-3.3,9.2-6c9-9.4,14.3-21.8,18.4-34.1c4.2-12.6,7.4-25.4,9.7-38.5c1.7-10.1,2.9-20.5,1.1-30.6
		c-1.8-10.1-6.7-20-15.2-25.9L175.2,260.7z"/>
</g>
<g class="st1">
	<path class="st0" d="M155.5,263.1c2.1,20.7,2.9,41.7-0.6,62.2c-2.4,13.9-6.7,27.4-9.5,41.3c-0.2,1.2-0.5,2.6-0.1,3.8
		c1.1,3.7,6.4,3.8,9.9,2.3c11.1-4.8,16.8-16.9,20.9-28.2c9.2-25.1,15.6-51.4,18.9-77.9L155.5,263.1z"/>
</g>
<g>
	<path class="st0" d="M359.6,283.4c-0.1,18.6,13.7,34.6,16.3,53.1c2.1,14.8-3.1,29.6-7.3,43.9c-0.6,2.2-1.2,4.5-0.2,6.6
		c1.5,3.2,9.1,1,13.2-1.3c4.1-2.3,8.2-9.1,9.7-12.3c10.9-23.5,16.7-41.2,17.1-67.1c0.3-17-3.7-33.9-2.4-50.8L359.6,283.4z"/>
</g>
<g class="st1">
	<path class="st0" d="M324.8,282.9c-4.5,19.4,14.5,38,11.8,57.7c-1.4,10.2-8.2,18.6-12.8,27.8c-2,4-4.3,10.7-1.6,13
		c2.7,2.3,12.3-0.6,16.9-4.6c4.6-4.1,7.5-9.6,10.2-15c13.7-27.4,23.6-56.7,29.4-86.8L324.8,282.9z"/>
</g>
<g id="face">
	<g>
		<path class="st0" d="M165.7,182.3c-12.3-11.9-31.8-11.6-41.2-12.4c-17.6-1.6-37.6-2.4-50.2,10c-7.7,7.6-10.8,18.7-15.5,28.5
			c-4.7,9.8-13.1,19.5-24,19.4c-5.9-0.1-13.5-2.3-16.3,2.9c-1,1.7-0.9,3.9-0.5,5.8c0.9,4.3,3.3,8.1,5.7,11.8
			c3.2,4.9,6.7,10.1,12.2,12.2c4,1.5,8.4,1.1,12.6,1.7c7.4,1.1,13.8,5.4,20.7,8.2c18.5,7.7,40.5,5.2,57.9-4.9s30.1-27.2,36.7-46.1
			C163.7,219.3,177.9,194.2,165.7,182.3z"/>
	</g>
	<g id="leftEar">
		<path class="st0" d="M113.1,179.5c3.9-17,15.3-32,30.5-40.5c0.8,16.9-3.3,34-11.9,48.6L113.1,179.5z"/>
	</g>
	<g class="st1" id="rightEar">
		<path class="st0" d="M84.7,179.7c-0.7-13.3,2.2-26.8,8.4-38.6c9.2,10.6,10.1,25.9,10.3,39.9L84.7,179.7z"/>
	</g>
</g>
<g id="tail">
<path class="st0" d="M436,204c4.1-6.9,10.6-12.6,18.4-15c7.7-2.3,16.4-1.2,22.9,3.6c6,4.4,9.4,12.4,8.2,19.8c-0.6,3.8-2.4,8-6.3,9.5
	c-3.8,1.5-8.5,0.7-11.3-2.2c-2.6-2.7-3.8-7.8-0.8-10.8c1.2-1.1,3.2-1.7,4.7-0.8c1,0.7,1.6,2.4,0.9,3.3c-0.8,1.1-1,2.5,0,3.5
	c0.9,0.9,2.7,1.1,3.5,0c3.6-4.4,1.1-11.2-4.6-12.2c-6-1-10.5,3.8-11.2,9.5c-0.6,5.4,2.6,10.9,7.3,13.4c5.1,2.8,11.9,2.6,16.6-1
	c4.3-3.3,6.2-9,6.4-14.3c0.2-5.1-1.2-10.3-3.8-14.6c-5.5-9.1-16.2-13.8-26.7-13c-12,0.8-22.4,8.4-28.5,18.6
	C430,204.2,434.3,206.7,436,204L436,204z"/>
</g>
</g>
</svg>
